{
.appVersion = "1230";
copyright = "Copyright 2019 The Tomorrow Project Authors (https://github.com/googlefonts/Tomorrow)";
customParameters = (
{
name = panose;
value = (
0,
0,
5,
0,
0,
0,
0,
0,
0,
0
);
},
{
name = unicodeRanges;
value = (
0,
1,
2,
29
);
},
{
name = codePageRanges;
value = (
1252,
1250,
1257
);
},
{
name = blueScale;
value = 0.037;
},
{
name = glyphOrder;
value = (
.notdef,
CR,
space,
A,
Aacute,
Abreve,
uni1EAE,
uni1EB6,
uni1EB0,
uni1EB2,
uni1EB4,
Acircumflex,
uni1EA4,
uni1EAC,
uni1EA6,
uni1EA8,
uni1EAA,
uni0200,
Adieresis,
uni1EA0,
Agrave,
uni1EA2,
uni0202,
Amacron,
Aogonek,
Aring,
Aringacute,
Atilde,
AE,
AEacute,
B,
C,
Cacute,
Ccaron,
Ccedilla,
Ccircumflex,
Cdotaccent,
D,
uni01C4,
Eth,
Dcaron,
Dcroat,
uni01C5,
E,
Eacute,
Ebreve,
Ecaron,
Ecircumflex,
uni1EBE,
uni1EC6,
uni1EC0,
uni1EC2,
uni1EC4,
uni0204,
Edieresis,
Edotaccent,
uni1EB8,
Egrave,
uni1EBA,
uni0206,
Emacron,
Eogonek,
uni1EBC,
F,
G,
Gbreve,
Gcaron,
Gcircumflex,
uni0122,
Gdotaccent,
H,
Hbar,
Hcircumflex,
I,
Iacute,
Ibreve,
Icircumflex,
uni0208,
Idieresis,
Idotaccent,
uni1ECA,
Igrave,
uni1EC8,
uni020A,
Imacron,
Iogonek,
Itilde,
J,
Jcircumflex,
K,
uni0136,
L,
uni01C7,
Lacute,
Lcaron,
uni013B,
Ldot,
uni01C8,
Lslash,
M,
N,
uni01CA,
Nacute,
Ncaron,
uni0145,
Eng,
uni01CB,
Ntilde,
O,
Oacute,
Obreve,
Ocircumflex,
uni1ED0,
uni1ED8,
uni1ED2,
uni1ED4,
uni1ED6,
uni020C,
Odieresis,
uni022A,
uni0230,
uni1ECC,
Ograve,
uni1ECE,
Ohorn,
uni1EDA,
uni1EE2,
uni1EDC,
uni1EDE,
uni1EE0,
Ohungarumlaut,
uni020E,
Omacron,
uni01EA,
Oslash,
Oslashacute,
Otilde,
uni022C,
OE,
P,
Thorn,
Q,
R,
Racute,
Rcaron,
uni0156,
uni0210,
uni0212,
S,
Sacute,
Scaron,
Scedilla,
Scircumflex,
uni0218,
uni1E9E,
uni018F,
T,
Tbar,
Tcaron,
uni0162,
uni021A,
U,
Uacute,
Ubreve,
Ucircumflex,
uni0214,
Udieresis,
uni1EE4,
Ugrave,
uni1EE6,
Uhorn,
uni1EE8,
uni1EF0,
uni1EEA,
uni1EEC,
uni1EEE,
Uhungarumlaut,
uni0216,
Umacron,
Uogonek,
Uring,
Utilde,
V,
W,
Wacute,
Wcircumflex,
Wdieresis,
Wgrave,
X,
Y,
Yacute,
Ycircumflex,
Ydieresis,
uni1EF4,

glyphs = (
{
glyphname = .notdef;
lastChange = "2019-09-04 12:41:08 +0000";
layers = (
{
hints = (
{
horizontal = 1;
place = "{177.08, 69.67}";
type = Stem;
},
{
horizontal = 1;
place = "{362.25, 160.25}";
type = Stem;
},
{
place = "{95.08, 542.57}";
type = Stem;
}
);
layerId = "7AC970EF-486C-4FB8-91F6-C99015BB6A18";
paths = (
{
closed = 1;
nodes = (
"175.74 76.29 LINE",
"183.17 118.41 LINE",
"248.85 177.08 LINE",
"507.77 177.08 LINE",
"552.14 119.16 LINE",
"544.58 76.29 LINE",
"625.24 76.29 LINE",
"637.65 146.66 LINE",
"557.38 246.75 LINE",
"223.05 246.75 LINE",
"107.49 146.66 LINE",
"95.08 76.29 LINE"
);
},
{
closed = 1;
nodes = (
"339.5 362.25 LINE",
"367.76 522.5 LINE",
"294.42 522.5 LINE",
"266.17 362.25 LINE"
);
},
{
closed = 1;
nodes = (
"554.33 362.25 LINE",
"582.59 522.5 LINE",
"509.26 522.5 LINE",
"481 362.25 LINE"
);
}
);
width = 688;
}
);
note = .notdef;
},
{
glyphname = A;
lastChange = "2019-09-04 12:41:08 +0000";
layers = (
{
hints = (
{
horizontal = 1;
place = "{191.75, 80.66}";
type = Stem;
},
{
horizontal = 1;
place = "{650.52, 86.48}";
type = Stem;
},
{
place = "{13.33, 639.92}";
type = Stem;
}
);
layerId = "7AC970EF-486C-4FB8-91F6-C99015BB6A18";
paths = (
{
closed = 1;
nodes = (
"115.76 0 LINE",
"211.3 191.75 LINE",
"531.39 191.75 LINE",
"561.03 0 LINE",
"653.25 0 LINE",
"525.83 737 LINE",
"391.66 737 LINE",
"13.33 0 LINE"
);
},
{
closed = 1;
nodes = (
"439.86 650.53 LINE",
"460.48 650.5 LINE",
"518.92 272.41 LINE",
"251.48 272.41 LINE"
);
}
);
width = 667;
}
);
leftKerningGroup = A;
note = A;
rightKerningGroup = A;
unicode = 0041;
},
{
glyphname = Aacute;
lastChange = "2019-09-04 12:41:08 +0000";
layers = (
{
hints = (
{
horizontal = 1;
place = "{191.75, 80.66}";
type = Stem;
},
{
horizontal = 1;
place = "{650.52, 86.48}";
type = Stem;
},
{
horizontal = 1;
place = "{794.25, 148.83}";
type = Stem;
},
{
place = "{13.33, 655.09}";
type = Stem;
}
);
layerId = "7AC970EF-486C-4FB8-91F6-C99015BB6A18";
paths = (
{
closed = 1;
nodes = (
"115.76 0 LINE",
"211.3 191.75 LINE",
"531.39 191.75 LINE",
"561.03 0 LINE",
"653.25 0 LINE",
"525.83 737 LINE",
"391.66 737 LINE",
"13.33 0 LINE"
);
},
{
closed = 1;
nodes = (
"439.86 650.53 LINE",
"460.48 650.5 LINE",
"518.92 272.41 LINE",
"251.48 272.41 LINE"
);
},
{
closed = 1;
nodes = (
"511.26 794.25 LINE",
"668.42 943.08 LINE",
"550.08 943.08 LINE",
"428.08 794.25 LINE"
);
}
);
width = 667;
}
);
leftKerningGroup = A;
note = Aacute;
rightKerningGroup = A;
unicode = 00C1;
},
{
glyphname = Abreve;
lastChange = "2019-09-04 12:41:08 +0000";
layers = (
{
hints = (
{
horizontal = 1;
place = "{191.75, 80.66}";
type = Stem;
},
{
horizontal = 1;
place = "{650.52, 86.48}";
type = Stem;
},
{
horizontal = 1;
place = "{794.22, 58.99}";
type = Stem;
},
{
place = "{13.33, 639.92}";
type = Stem;
},
{
horizontal = 1;
place = "{878.91, 49.5}";
type = Stem;
}
);
layerId = "7AC970EF-486C-4FB8-91F6-C99015BB6A18";
paths = (
{
closed = 1;
nodes = (
"115.76 0 LINE",
"211.3 191.75 LINE",
"531.39 191.75 LINE",
"561.03 0 LINE",
"653.25 0 LINE",
"525.83 737 LINE",
"391.66 737 LINE",
"13.33 0 LINE"
);
},
{
closed = 1;
nodes = (
"439.86 650.53 LINE",
"460.48 650.5 LINE",
"518.92 272.41 LINE",
"251.48 272.41 LINE"
);
},
{
closed = 1;
nodes = (
"544.64 794.25 LINE",
"609.6 849.18 LINE",
"623.62 928.41 LINE",
"563.04 928.41 LINE",
"554.29 878.91 LINE",
"524.12 853.21 LINE",
"420.71 853.21 LINE",
"399.62 878.91 LINE",
"408.37 928.41 LINE",
"347.79 928.41 LINE",
"336.3 863.31 LINE",
"393.88 794.19 LINE"
);
}
);
width = 667;
}
);
leftKerningGroup = A;
note = Abreve;
rightKerningGroup = A;
unicode = 0102;
},
{
glyphname = uni1EAE;
lastChange = "2019-09-04 12:41:08 +0000";
layers = (
{
hints = (
{
horizontal = 1;
place = "{191.75, 80.66}";
type = Stem;
},
{
horizontal = 1;
place = "{650.52, 86.48}";
type = Stem;
},
{
horizontal = 1;
place = "{794.22, 58.99}";
type = Stem;
},
{
horizontal = 1;
place = "{955.66, 148.84}";
type = Stem;
},
{
place = "{13.33, 675.88}";
type = Stem;
},
{
horizontal = 1;
place = "{878.91, 49.5}";
type = Stem;
}
);
layerId = "7AC970EF-486C-4FB8-91F6-C99015BB6A18";
paths = (
{
closed = 1;
nodes = (
"115.76 0 LINE",
"211.3 191.75 LINE",
"531.39 191.75 LINE",
"561.03 0 LINE",
"653.25 0 LINE",
"525.83 737 LINE",
"391.66 737 LINE",
"13.33 0 LINE"
);
},
{
closed = 1;
nodes = (
"439.86 650.53 LINE",
"460.48 650.5 LINE",
"518.92 272.41 LINE",
"251.48 272.41 LINE"
);
},
{
closed = 1;
nodes = (
"544.64 794.25 LINE",
"609.6 849.18 LINE",
"623.62 928.41 LINE",
"563.04 928.41 LINE",
"554.29 878.91 LINE",
"524.12 853.21 LINE",
"420.71 853.21 LINE",
"399.62 878.91 LINE",
"408.37 928.41 LINE",
"347.79 928.41 LINE",
"336.3 863.31 LINE",
"393.88 794.19 LINE"
);
},
{
closed = 1;
nodes = (
"532.05 955.66 LINE",
"689.21 1104.5 LINE",
"570.87 1104.5 LINE",
"448.87 955.66 LINE"
);
}
);
width = 667;
}
);
leftKerningGroup = A;
note = uni1EAE;
rightKerningGroup = A;
unicode = 1EAE;
},
{
glyphname = uni1EB6;
lastChange = "2019-09-04 12:41:08 +0000";
layers = (
{
hints = (
{
horizontal = 1;
place = "{-175.29, 118.04}";
type = Stem;
},
{
horizontal = 1;
place = "{191.75, 80.66}";
type = Stem;
},
{
horizontal = 1;
place = "{650.52, 86.48}";
type = Stem;
},
{
horizontal = 1;
place = "{794.22, 58.99}";
type = Stem;
},
{
place = "{13.33, 639.92}";
type = Stem;
},
{
horizontal = 1;
place = "{878.91, 49.5}";
type = Stem;
}
);
layerId = "7AC970EF-486C-4FB8-91F6-C99015BB6A18";
paths = (
{
closed = 1;
nodes = (
"115.76 0 LINE",
"211.3 191.75 LINE",
"531.39 191.75 LINE",
"561.03 0 LINE",
"653.25 0 LINE",
"525.83 737 LINE",
"391.66 737 LINE",
"13.33 0 LINE"
);
},
{
closed = 1;
nodes = (
"357.15 -175.29 LINE",
"377.99 -57.25 LINE",
"289.99 -57.25 LINE",
"269.15 -175.29 LINE"
);
},
{
closed = 1;
nodes = (
"439.86 650.53 LINE",
"460.48 650.5 LINE",
"518.92 272.41 LINE",
"251.48 272.41 LINE"
);
},
{
closed = 1;
nodes = (
"544.64 794.25 LINE",
"609.6 849.18 LINE",
"623.62 928.41 LINE",
"563.04 928.41 LINE",
"554.29 878.91 LINE",
"524.12 853.21 LINE",
"420.71 853.21 LINE",
"399.62 878.91 LINE",
"408.37 928.41 LINE",
"347.79 928.41 LINE",
"336.3 863.31 LINE",
"393.88 794.19 LINE"
);
}
);
width = 667;
}
);
leftKerningGroup = A;
note = uni1EB6;
rightKerningGroup = A;
unicode = 1EB6;
},
{
glyphname = uni1EB0;
lastChange = "2019-09-04 12:41:08 +0000";
layers = (
{
hints = (
{
horizontal = 1;
place = "{191.75, 80.66}";
type = Stem;
},
{
horizontal = 1;
place = "{650.52, 86.48}";
type = Stem;
},
{
horizontal = 1;
place = "{794.22, 58.99}";
type = Stem;
},
{
horizontal = 1;
place = "{955.41, 148.83}";
type = Stem;
},
{
place = "{13.33, 639.92}";
type = Stem;
},
{
horizontal = 1;
place = "{878.91, 49.5}";
type = Stem;
}
);
layerId = "7AC970EF-486C-4FB8-91F6-C99015BB6A18";
paths = (
{
closed = 1;
nodes = (
"115.76 0 LINE",
"211.3 191.75 LINE",
"531.39 191.75 LINE",
"561.03 0 LINE",
"653.25 0 LINE",
"525.83 737 LINE",
"391.66 737 LINE",
"13.33 0 LINE"
);
},
{
closed = 1;
nodes = (
"439.86 650.53 LINE",
"460.48 650.5 LINE",
"518.92 272.41 LINE",
"251.48 272.41 LINE"
);
},
{
closed = 1;
nodes = (
"544.64 794.25 LINE",
"609.6 849.18 LINE",
"623.62 928.41 LINE",
"563.04 928.41 LINE",
"554.29 878.91 LINE",
"524.12 853.21 LINE",
"420.71 853.21 LINE",
"399.62 878.91 LINE",
"408.37 928.41 LINE",
"347.79 928.41 LINE",
"336.3 863.31 LINE",
"393.88 794.19 LINE"
);
},
{
closed = 1;
nodes = (
"517.74 955.41 LINE",
"448.32 1104.24 LINE",
"342.61 1104.24 LINE",
"445.82 955.41 LINE"
);
}
);
width = 667;
}
);
leftKerningGroup = A;
note = uni1EB0;
rightKerningGroup = A;
unicode = 1EB0;
},
{
glyphname = uni1EB2;
lastChange = "2019-09-04 12:41:08 +0000";
layers = (
{
hints = (
{
horizontal = 1;
place = "{191.75, 80.66}";
type = Stem;
},
{
horizontal = 1;
place = "{650.52, 86.48}";
type = Stem;
},
{
horizontal = 1;
place = "{794.22, 58.99}";
type = Stem;
},
{
horizontal = 1;
place = "{1107.75, 54.54}";
type = Stem;
},
{
place = "{13.33, 639.92}";
type = Stem;
},
{
horizontal = 1;
place = "{878.91, 49.5}";
type = Stem;
}
);
layerId = "7AC970EF-486C-4FB8-91F6-C99015BB6A18";
paths = (
{
closed = 1;
nodes = (
"115.76 0 LINE",
"211.3 191.75 LINE",
"531.39 191.75 LINE",
"561.03 0 LINE",
"653.25 0 LINE",
"525.83 737 LINE",
"391.66 737 LINE",
"13.33 0 LINE"
);
},
{
closed = 1;
nodes = (
"439.86 650.53 LINE",
"460.48 650.5 LINE",
"518.92 272.41 LINE",
"251.48 272.41 LINE"
);
},
{
closed = 1;
nodes = (
"544.64 794.25 LINE",
"609.6 849.18 LINE",
"623.62 928.41 LINE",
"563.04 928.41 LINE",
"554.29 878.91 LINE",
"524.12 853.21 LINE",
"420.71 853.21 LINE",
"399.62 878.91 LINE",
"408.37 928.41 LINE",
"347.79 928.41 LINE",
"336.3 863.31 LINE",
"393.88 794.19 LINE"
);
},
{
closed = 1;
nodes = (
"519.62 955.66 LINE",
"524.49 983 LINE",
"605.04 1040.96 LINE",
"617.28 1110.36 LINE",
"575.71 1162.29 LINE",
"473.2 1162.29 LINE",
"422.23 1118.56 LINE",
"459.99 1072.87 LINE",
"500.7 1107.75 LINE",
"539.51 1107.75 LINE",
"549.31 1095.46 LINE",
"544.91 1070.79 LINE",
"469.24 1014 LINE",
"458.91 955.66 LINE"
);
}
);
width = 667;
}
);
leftKerningGroup = A;
note = uni1EB2;
rightKerningGroup = A;
unicode = 1EB2;
},
{
glyphname = uni1EB4;
lastChange = "2019-09-04 12:41:08 +0000";
layers = (
{
hints = (
{
horizontal = 1;
place = "{191.75, 80.66}";
type = Stem;
},
{
horizontal = 1;
place = "{650.52, 86.48}";
type = Stem;
},
{
horizontal = 1;
place = "{794.22, 58.99}";
type = Stem;
},
{
horizontal = 1;
place = "{955.58, 57.54}";
type = Stem;
},
{
horizontal = 1;
place = "{1025.25, 57.54}";
type = Stem;
},
{
place = "{13.33, 669.05}";
type = Stem;
},
{
horizontal = 1;
place = "{878.91, 49.5}";
type = Stem;
}
);
layerId = "7AC970EF-486C-4FB8-91F6-C99015BB6A18";
paths = (
{
closed = 1;
nodes = (
"115.76 0 LINE",
"211.3 191.75 LINE",
"531.39 191.75 LINE",
"561.03 0 LINE",
"653.25 0 LINE",
"525.83 737 LINE",
"391.66 737 LINE",
"13.33 0 LINE"
);
},
{
closed = 1;
nodes = (
"439.86 650.53 LINE",
"460.48 650.5 LINE",
"518.92 272.41 LINE",
"251.48 272.41 LINE"
);
},
{
closed = 1;
nodes = (
"544.64 794.25 LINE",
"609.6 849.18 LINE",
"623.62 928.41 LINE",
"563.04 928.41 LINE",
"554.29 878.91 LINE",
"524.12 853.21 LINE",
"420.71 853.21 LINE",
"399.62 878.91 LINE",
"408.37 928.41 LINE",
"347.79 928.41 LINE",
"336.3 863.31 LINE",
"393.88 794.19 LINE"
);
},
{
closed = 1;
nodes = (
"605.95 955.58 LINE",
"668.76 1009.67 LINE",
"682.38 1080.54 LINE",
"629.38 1080.54 LINE",
"622.84 1049.37 LINE",
"579.75 1013.12 LINE",
"543.23 1013.12 LINE",
"483.68 1082.79 LINE",
"382.21 1082.79 LINE",
"319.27 1028.25 LINE",
"305.72 957.75 LINE",
"358.79 957.75 LINE",
"365.38 988.87 LINE",
"408.38 1025.25 LINE",
"449.04 1025.25 LINE",
"508.58 955.58 LINE"
);
}
);
width = 667;
}
);
leftKerningGroup = A;
note = uni1EB4;
rightKerningGroup = A;
unicode = 1EB4;
},
{
glyphname = Acircumflex;
lastChange = "2019-09-04 12:41:08 +0000";
layers = (
{
hints = (
{
horizontal = 1;
place = "{191.75, 80.66}";
type = Stem;
},
{
horizontal = 1;
place = "{650.52, 86.48}";
type = Stem;
},
{
horizontal = 1;
place = "{794.25, 141.16}";
type = Stem;
},
{
place = "{13.33, 639.92}";
type = Stem;
}
);
layerId = "7AC970EF-486C-4FB8-91F6-C99015BB6A18";
paths = (
{
closed = 1;
nodes = (
"115.76 0 LINE",
"211.3 191.75 LINE",
"531.39 191.75 LINE",
"561.03 0 LINE",
"653.25 0 LINE",
"525.83 737 LINE",
"391.66 737 LINE",
"13.33 0 LINE"
);
},
{
closed = 1;
nodes = (
"439.86 650.53 LINE",
"460.48 650.5 LINE",
"518.92 272.41 LINE",
"251.48 272.41 LINE"
);
},
{
closed = 1;
nodes = (
"388.04 794.25 LINE",
"480 878.87 LINE",
"485.83 878.87 LINE",
"547.96 794.25 LINE",
"619.47 794.25 LINE",
"535.44 935.41 LINE",
"434.08 935.41 LINE",
"309.2 794.25 LINE"
);
}
);
width = 667;
}
);
leftKerningGroup = A;
note = Acircumflex;
rightKerningGroup = A;
unicode = 00C2;
},
{
glyphname = uni1EA4;
lastChange = "2019-09-04 12:41:08 +0000";
layers = (
{
hints = (
{
horizontal = 1;
place = "{191.75, 80.66}";
type = Stem;
},
{
horizontal = 1;
place = "{650.52, 86.48}";
type = Stem;
},
{
horizontal = 1;
place = "{871.07, 148.83}";
type = Stem;
},
{
place = "{13.33, 842.94}";
type = Stem;
},
{
horizontal = 1;
place = "{794.25, 141.16}";
type = Stem;
}
);
layerId = "7AC970EF-486C-4FB8-91F6-C99015BB6A18";
paths = (
{
closed = 1;
nodes = (
"115.76 0 LINE",
"211.3 191.75 LINE",
"531.39 191.75 LINE",
"561.03 0 LINE",
"653.25 0 LINE",
"525.83 737 LINE",
"391.66 737 LINE",
"13.33 0 LINE"
);
},
{
closed = 1;
nodes = (
"439.86 650.53 LINE",
"460.48 650.5 LINE",
"518.92 272.41 LINE",
"251.48 272.41 LINE"
);
},
{
closed = 1;
nodes = (
"388.04 794.25 LINE",
"480 878.87 LINE",
"485.83 878.87 LINE",
"547.96 794.25 LINE",
"619.47 794.25 LINE",
"535.44 935.41 LINE",
"434.08 935.41 LINE",
"309.2 794.25 LINE"
);
},
{
closed = 1;
nodes = (
"699.11 871.07 LINE",
"856.27 1019.9 LINE",
"737.93 1019.9 LINE",
"615.93 871.07 LINE"
);
}
);
width = 667;
}
);
leftKerningGroup = A;
note = uni1EA4;
rightKerningGroup = A;
unicode = 1EA4;
},
{
glyphname = uni1EAC;
lastChange = "2019-09-04 12:41:08 +0000";
layers = (
{
hints = (
{
horizontal = 1;
place = "{-175.29, 118.04}";
type = Stem;
},
{
horizontal = 1;
place = "{191.75, 80.66}";
type = Stem;
},
{
horizontal = 1;
place = "{650.52, 86.48}";
type = Stem;
},
{
horizontal = 1;
place = "{794.25, 141.16}";
type = Stem;
},
{
place = "{13.33, 639.92}";
type = Stem;
}
);
layerId = "7AC970EF-486C-4FB8-91F6-C99015BB6A18";
paths = (
{
closed = 1;
nodes = (
"115.76 0 LINE",
"211.3 191.75 LINE",
"531.39 191.75 LINE",
"561.03 0 LINE",
"653.25 0 LINE",
"525.83 737 LINE",
"391.66 737 LINE",
"13.33 0 LINE"
);
},
{
closed = 1;
nodes = (
"357.15 -175.29 LINE",
"377.99 -57.25 LINE",
"289.99 -57.25 LINE",
"269.15 -175.29 LINE"
);
},
{
closed = 1;
nodes = (
"439.86 650.53 LINE",
"460.48 650.5 LINE",
"518.92 272.41 LINE",
"251.48 272.41 LINE"
);
},
{
closed = 1;
nodes = (
"388.04 794.25 LINE",
"480 878.87 LINE",
"485.83 878.87 LINE",
"547.96 794.25 LINE",
"619.47 794.25 LINE",
"535.44 935.41 LINE",
"434.08 935.41 LINE",
"309.2 794.25 LINE"
);
}
);
width = 667;
}
);
leftKerningGroup = A;
note = uni1EAC;
rightKerningGroup = A;
unicode = 1EAC;
},
{
glyphname = uni1EA6;
lastChange = "2019-09-04 12:41:08 +0000";
layers = (
{
hints = (
{
horizontal = 1;
place = "{191.75, 80.66}";
type = Stem;
},
{
horizontal = 1;
place = "{650.52, 86.48}";
type = Stem;
},
{
horizontal = 1;
place = "{871.06, 148.83}";
type = Stem;
},
{
place = "{13.33, 639.92}";
type = Stem;
},
{
horizontal = 1;
place = "{794.25, 141.16}";
type = Stem;
}
);
layerId = "7AC970EF-486C-4FB8-91F6-C99015BB6A18";
paths = (
{
closed = 1;
nodes = (
"115.76 0 LINE",
"211.3 191.75 LINE",
"531.39 191.75 LINE",
"561.03 0 LINE",
"653.25 0 LINE",
"525.83 737 LINE",
"391.66 737 LINE",
"13.33 0 LINE"
);
},
{
closed = 1;
nodes = (
"439.86 650.53 LINE",
"460.48 650.5 LINE",
"518.92 272.41 LINE",
"251.48 272.41 LINE"
);
},
{
closed = 1;
nodes = (
"332.05 871.06 LINE",
"262.63 1019.89 LINE",
"156.92 1019.89 LINE",
"260.14 871.06 LINE"
);
},
{
closed = 1;
nodes = (
"388.04 794.25 LINE",
"480 878.87 LINE",
"485.83 878.87 LINE",
"547.96 794.25 LINE",
"619.47 794.25 LINE",
"535.44 935.41 LINE",
"434.08 935.41 LINE",
"309.2 794.25 LINE"
);
}
);
width = 667;
}
);
leftKerningGroup = A;
note = uni1EA6;
rightKerningGroup = A;
unicode = 1EA6;
},
{
glyphname = uni1EA8;
lastChange = "2019-09-04 12:41:08 +0000";
layers = (
{
hints = (
{
horizontal = 1;
place = "{191.75, 80.66}";
type = Stem;
},
{
horizontal = 1;
place = "{650.52, 86.48}";
type = Stem;
},
{
horizontal = 1;
place = "{794.25, 141.16}";
type = Stem;
},
{
horizontal = 1;
place = "{1023.16, 54.55}";
type = Stem;
},
{
place = "{13.33, 747.67}";
type = Stem;
}
);
layerId = "7AC970EF-486C-4FB8-91F6-C99015BB6A18";
paths = (
{
closed = 1;
nodes = (
"115.76 0 LINE",
"211.3 191.75 LINE",
"531.39 191.75 LINE",
"561.03 0 LINE",
"653.25 0 LINE",
"525.83 737 LINE",
"391.66 737 LINE",
"13.33 0 LINE"
);
},
{
closed = 1;
nodes = (
"439.86 650.53 LINE",
"460.48 650.5 LINE",
"518.92 272.41 LINE",
"251.48 272.41 LINE"
);
},
{
closed = 1;
nodes = (
"388.04 794.25 LINE",
"480 878.87 LINE",
"485.83 878.87 LINE",
"547.96 794.25 LINE",
"619.47 794.25 LINE",
"535.44 935.41 LINE",
"434.08 935.41 LINE",
"309.2 794.25 LINE"
);
},
{
closed = 1;
nodes = (
"663.33 871.08 LINE",
"668.2 898.42 LINE",
"748.76 956.38 LINE",
"761 1025.77 LINE",
"719.42 1077.71 LINE",
"616.92 1077.71 LINE",
"565.94 1033.98 LINE",
"603.71 988.29 LINE",
"644.42 1023.16 LINE",
"683.22 1023.16 LINE",
"693.02 1010.87 LINE",
"688.62 986.21 LINE",
"612.96 929.41 LINE",
"602.62 871.08 LINE"
);
}
);
width = 667;
}
);
leftKerningGroup = A;
note = uni1EA8;
rightKerningGroup = A;
unicode = 1EA8;
},
{
glyphname = uni1EAA;
lastChange = "2019-09-04 12:41:08 +0000";
layers = (
{
hints = (
{
horizontal = 1;
place = "{191.75, 80.66}";
type = Stem;
},
{
horizontal = 1;
place = "{650.52, 86.48}";
type = Stem;
},
{
horizontal = 1;
place = "{794.25, 141.16}";
type = Stem;
},
{
horizontal = 1;
place = "{962.21, 57.54}";
type = Stem;
},
{
horizontal = 1;
place = "{1031.87, 57.54}";
type = Stem;
},
{
place = "{13.33, 671.79}";
type = Stem;
}
);
layerId = "7AC970EF-486C-4FB8-91F6-C99015BB6A18";
paths = (
{
closed = 1;
nodes = (
"115.76 0 LINE",
"211.3 191.75 LINE",
"531.39 191.75 LINE",
"561.03 0 LINE",
"653.25 0 LINE",
"525.83 737 LINE",
"391.66 737 LINE",
"13.33 0 LINE"
);
},
{
closed = 1;
nodes = (
"439.86 650.53 LINE",
"460.48 650.5 LINE",
"518.92 272.41 LINE",
"251.48 272.41 LINE"
);
},
{
closed = 1;
nodes = (
"388.04 794.25 LINE",
"480 878.87 LINE",
"485.83 878.87 LINE",
"547.96 794.25 LINE",
"619.47 794.25 LINE",
"535.44 935.41 LINE",
"434.08 935.41 LINE",
"309.2 794.25 LINE"
);
},
{
closed = 1;
nodes = (
"608.69 962.21 LINE",
"671.51 1016.3 LINE",
"685.12 1087.16 LINE",
"632.12 1087.16 LINE",
"625.58 1056 LINE",
"582.5 1019.75 LINE",
"545.97 1019.75 LINE",
"486.43 1089.41 LINE",
"384.96 1089.41 LINE",
"322.01 1034.88 LINE",
"308.47 964.37 LINE",
"361.54 964.37 LINE",
"368.12 995.5 LINE",
"411.12 1031.87 LINE",
"451.79 1031.87 LINE",
"511.32 962.21 LINE"
);
}
);
width = 667;
}
);
leftKerningGroup = A;
note = uni1EAA;
rightKerningGroup = A;
unicode = 1EAA;
},
{
glyphname = uni0200;
lastChange = "2019-09-04 12:41:08 +0000";
layers = (
{
hints = (
{
horizontal = 1;
place = "{191.75, 80.66}";
type = Stem;
},
{
horizontal = 1;
place = "{650.52, 86.48}";
type = Stem;
},
{
horizontal = 1;
place = "{794.25, 148.83}";
type = Stem;
},
{
place = "{13.33, 639.92}";
type = Stem;
}
);
layerId = "7AC970EF-486C-4FB8-91F6-C99015BB6A18";
paths = (
{
closed = 1;
nodes = (
"115.76 0 LINE",
"211.3 191.75 LINE",
"531.39 191.75 LINE",
"561.03 0 LINE",
"653.25 0 LINE",
"525.83 737 LINE",
"391.66 737 LINE",
"13.33 0 LINE"
);
},
{
closed = 1;
nodes = (
"439.86 650.53 LINE",
"460.48 650.5 LINE",
"518.92 272.41 LINE",
"251.48 272.41 LINE"
);
},
{
closed = 1;
nodes = (
"406.21 794.25 LINE",
"336.78 943.08 LINE",
"231.07 943.08 LINE",
"334.29 794.25 LINE"
);
},
{
closed = 1;
nodes = (
"572.41 794.25 LINE",
"502.99 943.08 LINE",
"397.28 943.08 LINE",
"500.5 794.25 LINE"
);
}
);
width = 667;
}
);
leftKerningGroup = A;
note = uni0200;
rightKerningGroup = A;
unicode = 0200;
},
{
glyphname = Adieresis;
lastChange = "2019-09-04 12:41:08 +0000";
layers = (
{
hints = (
{
horizontal = 1;
place = "{191.75, 80.66}";
type = Stem;
},
{
horizontal = 1;
place = "{650.52, 86.48}";
type = Stem;
},
{
horizontal = 1;
place = "{794.25, 118.16}";
type = Stem;
},
{
place = "{13.33, 651.54}";
type = Stem;
}
);
layerId = "7AC970EF-486C-4FB8-91F6-C99015BB6A18";
paths = (
{
closed = 1;
nodes = (
"115.76 0 LINE",
"211.3 191.75 LINE",
"531.39 191.75 LINE",
"561.03 0 LINE",
"653.25 0 LINE",
"525.83 737 LINE",
"391.66 737 LINE",
"13.33 0 LINE"
);
},
{
closed = 1;
nodes = (
"439.86 650.53 LINE",
"460.48 650.5 LINE",
"518.92 272.41 LINE",
"251.48 272.41 LINE"
);
},
{
closed = 1;
nodes = (
"378.62 794.25 LINE",
"399.46 912.41 LINE",
"311.46 912.41 LINE",
"290.62 794.25 LINE"
);
},
{
closed = 1;
nodes = (
"644.04 794.25 LINE",
"664.87 912.41 LINE",
"576.87 912.41 LINE",
"556.04 794.25 LINE"
);
}
);
width = 667;
}
);
leftKerningGroup = A;
note = Adieresis;
rightKerningGroup = A;
unicode = 00C4;
},
{
glyphname = uni1EA0;
lastChange = "2019-09-04 12:41:08 +0000";
layers = (
{
hints = (
{
horizontal = 1;
place = "{-175.29, 118.04}";
type = Stem;
},
{
horizontal = 1;
place = "{191.75, 80.66}";
type = Stem;
},
{
horizontal = 1;
place = "{650.52, 86.48}";
type = Stem;
},
{
place = "{13.33, 639.92}";
type = Stem;
}
);
layerId = "7AC970EF-486C-4FB8-91F6-C99015BB6A18";
paths = (
{
closed = 1;
nodes = (
"115.76 0 LINE",
"211.3 191.75 LINE",
"531.39 191.75 LINE",
"561.03 0 LINE",
"653.25 0 LINE",
"525.83 737 LINE",
"391.66 737 LINE",
"13.33 0 LINE"
);
},
{
closed = 1;
nodes = (
"357.15 -175.29 LINE",
"377.99 -57.25 LINE",
"289.99 -57.25 LINE",
"269.15 -175.29 LINE"
);
},
{
closed = 1;
nodes = (
"439.86 650.53 LINE",
"460.48 650.5 LINE",
"518.92 272.41 LINE",
"251.48 272.41 LINE"
);
}
);
width = 667;
}
);
leftKerningGroup = A;
note = uni1EA0;
rightKerningGroup = A;
unicode = 1EA0;
},
{
glyphname = Agrave;
lastChange = "2019-09-04 12:41:08 +0000";
layers = (
{
hints = (
{
horizontal = 1;
place = "{191.75, 80.66}";
type = Stem;
},
{
horizontal = 1;
place = "{650.52, 86.48}";
type = Stem;
},
{
horizontal = 1;
place = "{794.25, 148.83}";
type = Stem;
},
{
place = "{13.33, 639.92}";
type = Stem;
}
);
layerId = "7AC970EF-486C-4FB8-91F6-C99015BB6A18";
paths = (
{
closed = 1;
nodes = (
"115.76 0 LINE",
"211.3 191.75 LINE",
"531.39 191.75 LINE",
"561.03 0 LINE",
"653.25 0 LINE",
"525.83 737 LINE",
"391.66 737 LINE",
"13.33 0 LINE"
);
},
{
closed = 1;
nodes = (
"439.86 650.53 LINE",
"460.48 650.5 LINE",
"518.92 272.41 LINE",
"251.48 272.41 LINE"
);
},
{
closed = 1;
nodes = (
"486.19 794.25 LINE",
"416.77 943.08 LINE",
"311.06 943.08 LINE",
"414.28 794.25 LINE"
);
}
);
width = 667;
}
);
leftKerningGroup = A;
note = Agrave;
rightKerningGroup = A;
unicode = 00C0;
},
{
glyphname = uni1EA2;
lastChange = "2019-09-04 12:41:08 +0000";
layers = (
{
hints = (
{
horizontal = 1;
place = "{191.75, 80.66}";
type = Stem;
},
{
horizontal = 1;
place = "{650.52, 86.48}";
type = Stem;
},
{
horizontal = 1;
place = "{946.33, 54.54}";
type = Stem;
},
{
place = "{13.33, 639.92}";
type = Stem;
}
);
layerId = "7AC970EF-486C-4FB8-91F6-C99015BB6A18";
paths = (
{
closed = 1;
nodes = (
"115.76 0 LINE",
"211.3 191.75 LINE",
"531.39 191.75 LINE",
"561.03 0 LINE",
"653.25 0 LINE",
"525.83 737 LINE",
"391.66 737 LINE",
"13.33 0 LINE"
);
},
{
closed = 1;
nodes = (
"439.86 650.53 LINE",
"460.48 650.5 LINE",
"518.92 272.41 LINE",
"251.48 272.41 LINE"
);
},
{
closed = 1;
nodes = (
"496.16 794.25 LINE",
"501.03 821.58 LINE",
"581.59 879.55 LINE",
"593.83 948.94 LINE",
"552.26 1000.87 LINE",
"449.75 1000.87 LINE",
"398.77 957.14 LINE",
"436.54 911.46 LINE",
"477.25 946.33 LINE",
"516.06 946.33 LINE",
"525.85 934.04 LINE",
"521.46 909.37 LINE",
"445.79 852.58 LINE",
"435.46 794.25 LINE"
);
}
);
width = 667;
}
);
leftKerningGroup = A;
note = uni1EA2;
rightKerningGroup = A;
unicode = 1EA2;
},
{
glyphname = uni0202;
lastChange = "2019-09-04 12:41:08 +0000";
layers = (
{
hints = (
{
horizontal = 1;
place = "{191.75, 80.66}";
type = Stem;
},
{
horizontal = 1;
place = "{650.52, 86.48}";
type = Stem;
},
{
horizontal = 1;
place = "{869.37, 59.04}";
type = Stem;
},
{
place = "{13.33, 639.92}";
type = Stem;
}
);
layerId = "7AC970EF-486C-4FB8-91F6-C99015BB6A18";
paths = (
{
closed = 1;
nodes = (
"115.76 0 LINE",
"211.3 191.75 LINE",
"531.39 191.75 LINE",
"561.03 0 LINE",
"653.25 0 LINE",
"525.83 737 LINE",
"391.66 737 LINE",
"13.33 0 LINE"
);
},
{
closed = 1;
nodes = (
"439.86 650.53 LINE",
"460.48 650.5 LINE",
"518.92 272.41 LINE",
"251.48 272.41 LINE"
);
},
{
closed = 1;
nodes = (
"390 794.25 LINE",
"398.75 843.75 LINE",
"428.91 869.37 LINE",
"532.33 869.37 LINE",
"553.41 843.75 LINE",
"544.66 794.25 LINE",
"605.25 794.25 LINE",
"616.64 858.52 LINE",
"559.42 928.41 LINE",
"408.45 928.41 LINE",
"343.4 873.31 LINE",
"329.41 794.25 LINE"
);
}
);
width = 667;
}
);
leftKerningGroup = A;
note = uni0202;
rightKerningGroup = A;
unicode = 0202;
},
{
glyphname = Amacron;
lastChange = "2019-09-04 12:41:08 +0000";
layers = (
{
hints = (
{
horizontal = 1;
place = "{191.75, 80.66}";
type = Stem;
},
{
horizontal = 1;
place = "{650.52, 86.48}";
type = Stem;
},
{
horizontal = 1;
place = "{794.25, 67.04}";
type = Stem;
},
{
place = "{13.33, 643.96}";
type = Stem;
}
);
layerId = "7AC970EF-486C-4FB8-91F6-C99015BB6A18";
paths = (
{
closed = 1;
nodes = (
"115.76 0 LINE",
"211.3 191.75 LINE",
"531.39 191.75 LINE",
"561.03 0 LINE",
"653.25 0 LINE",
"525.83 737 LINE",
"391.66 737 LINE",
"13.33 0 LINE"
);
},
{
closed = 1;
nodes = (
"439.86 650.53 LINE",
"460.48 650.5 LINE",
"518.92 272.41 LINE",
"251.48 272.41 LINE"
);
},
{
closed = 1;
nodes = (
"645.37 794.25 LINE",
"657.29 861.29 LINE",
"303.87 861.29 LINE",
"291.96 794.25 LINE"
);
}
);
width = 667;
}
);
leftKerningGroup = A;
note = Amacron;
rightKerningGroup = A;
unicode = 0100;
},
{
glyphname = Aogonek;
lastChange = "2019-09-04 12:41:08 +0000";
layers = (
{
hints = (
{
horizontal = 1;
place = "{-160.63, 61.63}";
type = Stem;
},
{
horizontal = 1;
place = "{191.75, 80.66}";
type = Stem;
},
{
horizontal = 1;
place = "{650.52, 86.48}";
type = Stem;
},
{
place = "{13.33, 639.92}";
type = Stem;
}
);
layerId = "7AC970EF-486C-4FB8-91F6-C99015BB6A18";
paths = (
{
closed = 1;
nodes = (
"596.08 -160.63 LINE",
"606.95 -99 LINE",
"579.45 -99 LINE",
"558.34 -73.38 LINE",
"563.05 -46.75 LINE",
"634.38 0 LINE",
"653.25 0 LINE",
"525.83 737 LINE",
"391.66 737 LINE",
"13.33 0 LINE",
"115.76 0 LINE",
"211.3 191.75 LINE",
"531.39 191.75 LINE",
"561.03 0 LINE",
"507.07 -35.25 LINE",
"496.6 -95.23 LINE",
"550.62 -160.63 LINE"
);
},
{
closed = 1;
nodes = (
"439.86 650.53 LINE",
"460.48 650.5 LINE",
"518.92 272.41 LINE",
"251.48 272.41 LINE"
);
}
);
width = 609;
}
);
leftKerningGroup = A;
note = Aogonek;
rightKerningGroup = A;
unicode = 0104;
},
{
glyphname = Aring;
lastChange = "2019-09-04 12:41:08 +0000";
layers = (
{
hints = (
{
horizontal = 1;
place = "{191.75, 80.66}";
type = Stem;
},
{
horizontal = 1;
place = "{650.52, 86.48}";
type = Stem;
},
{
horizontal = 1;
place = "{794.25, 50.21}";
type = Stem;
},
{
horizontal = 1;
place = "{940.5, 50.21}";
type = Stem;
},
{
place = "{13.33, 639.92}";
type = Stem;
}
);
layerId = "7AC970EF-486C-4FB8-91F6-C99015BB6A18";
paths = (
{
closed = 1;
nodes = (
"115.76 0 LINE",
"211.3 191.75 LINE",
"531.39 191.75 LINE",
"561.03 0 LINE",
"653.25 0 LINE",
"525.83 737 LINE",
"391.66 737 LINE",
"13.33 0 LINE"
);
},
{
closed = 1;
nodes = (
"439.86 650.53 LINE",
"460.48 650.5 LINE",
"518.92 272.41 LINE",
"251.48 272.41 LINE"
);
},
{
closed = 1;
nodes = (
"516.06 794.25 LINE",
"579.52 848.25 LINE",
"592.7 922.83 LINE",
"536.83 990.71 LINE",
"439.72 990.71 LINE",
"376.58 936.75 LINE",
"363.38 862.1 LINE",
"419.4 794.25 LINE"
);
},
{
closed = 1;
nodes = (
"426.62 873.75 LINE",
"433.21 911.16 LINE",
"467.87 940.5 LINE",
"505.21 940.5 LINE",
"529.37 911.16 LINE",
"522.79 873.75 LINE",
"488.25 844.46 LINE",
"450.91 844.46 LINE"
);
}
);
width = 667;
}
);
leftKerningGroup = A;
note = Aring;
rightKerningGroup = A;
unicode = 00C5;
},
{
glyphname = Aringacute;
lastChange = "2019-09-04 12:41:08 +0000";
layers = (
{
hints = (
{
horizontal = 1;
place = "{191.75, 80.66}";
type = Stem;
},
{
horizontal = 1;
place = "{650.52, 86.48}";
type = Stem;
},
{
horizontal = 1;
place = "{794.25, 50.21}";
type = Stem;
},
{
horizontal = 1;
place = "{940.5, 50.21}";
type = Stem;
},
{
horizontal = 1;
place = "{1019.18, 148.84}";
type = Stem;
},
{
place = "{13.33, 682.4}";
type = Stem;
}
);
layerId = "7AC970EF-486C-4FB8-91F6-C99015BB6A18";
paths = (
{
closed = 1;
nodes = (
"115.76 0 LINE",
"211.3 191.75 LINE",
"531.39 191.75 LINE",
"561.03 0 LINE",
"653.25 0 LINE",
"525.83 737 LINE",
"391.66 737 LINE",
"13.33 0 LINE"
);
},
{
closed = 1;
nodes = (
"439.86 650.53 LINE",
"460.48 650.5 LINE",
"518.92 272.41 LINE",
"251.48 272.41 LINE"
);
},
{
closed = 1;
nodes = (
"516.06 794.25 LINE",
"579.52 848.25 LINE",
"592.7 922.83 LINE",
"536.83 990.71 LINE",
"439.72 990.71 LINE",
"376.58 936.75 LINE",
"363.38 862.1 LINE",
"419.4 794.25 LINE"
);
},
{
closed = 1;
nodes = (
"426.62 873.75 LINE",
"433.21 911.16 LINE",
"467.87 940.5 LINE",
"505.21 940.5 LINE",
"529.37 911.16 LINE",
"522.79 873.75 LINE",
"488.25 844.46 LINE",
"450.91 844.46 LINE"
);
},
{
closed = 1;
nodes = (
"538.57 1019.18 LINE",
"695.73 1168.02 LINE",
"577.39 1168.02 LINE",
"455.39 1019.18 LINE"
);
}
);
width = 667;
}
);
leftKerningGroup = A;
note = Aringacute;
rightKerningGroup = A;
unicode = 01FA;
},
{
glyphname = Atilde;
lastChange = "2019-09-04 12:41:08 +0000";
layers = (
{
hints = (
{
horizontal = 1;
place = "{191.75, 80.66}";
type = Stem;
},
{
horizontal = 1;
place = "{650.52, 86.48}";
type = Stem;
},
{
horizontal = 1;
place = "{794.25, 57.54}";
type = Stem;
},
{
horizontal = 1;
place = "{863.91, 57.55}";
type = Stem;
},
{
place = "{13.33, 657.21}";
type = Stem;
}
);
layerId = "7AC970EF-486C-4FB8-91F6-C99015BB6A18";
paths = (
{
closed = 1;
nodes = (
"115.76 0 LINE",
"211.3 191.75 LINE",
"531.39 191.75 LINE",
"561.03 0 LINE",
"653.25 0 LINE",
"525.83 737 LINE",
"391.66 737 LINE",
"13.33 0 LINE"
);
},
{
closed = 1;
nodes = (
"439.86 650.53 LINE",
"460.48 650.5 LINE",
"518.92 272.41 LINE",
"251.48 272.41 LINE"
);
},
{
closed = 1;
nodes = (
"594.11 794.25 LINE",
"656.93 848.34 LINE",
"670.54 919.21 LINE",
"617.54 919.21 LINE",
"611 888.04 LINE",
"567.91 851.79 LINE",
"531.39 851.79 LINE",
"471.85 921.46 LINE",
"370.37 921.46 LINE",
"307.43 866.92 LINE",
"293.88 796.41 LINE",
"346.96 796.41 LINE",
"353.54 827.54 LINE",
"396.54 863.91 LINE",
"437.21 863.91 LINE",
"496.74 794.25 LINE"
);
}
);
width = 667;
}
);
leftKerningGroup = A;
note = Atilde;
rightKerningGroup = A;
unicode = 00C3;
},
{
glyphname = AE;
lastChange = "2019-09-04 12:41:08 +0000";
layers = (
{
hints = (
{
horizontal = 1;
place = "{0, 83.58}";
type = Stem;
},
{
horizontal = 1;
place = "{191.75, 80.66}";
type = Stem;
},
{
horizontal = 1;
place = "{345.75, 83.58}";
type = Stem;
},
{
horizontal = 1;
place = "{653.41, 83.59}";
type = Stem;
},
{
place = "{13.33, 1026.46}";
type = Stem;
}
);
layerId = "7AC970EF-486C-4FB8-91F6-C99015BB6A18";
paths = (
{
closed = 1;
nodes = (
"115.76 0 LINE",
"211.3 191.75 LINE",
"531.39 191.75 LINE",
"561.03 0 LINE",
"909.79 0 LINE",
"924.58 83.58 LINE",
"638.8 83.58 LINE",
"593.47 345.75 LINE",
"928.96 345.75 LINE",
"943.66 429.33 LINE",
"579.02 429.33 LINE",
"540.28 653.41 LINE",
"1025 653.41 LINE",
"1039.79 737 LINE",
"391.66 737 LINE",
"13.33 0 LINE"
);
},
{
closed = 1;
nodes = (
"439.86 650.53 LINE",
"460.48 650.5 LINE",
"518.92 272.41 LINE",
"251.48 272.41 LINE"
);
}
);
width = 961;
}
);
leftKerningGroup = A;
note = AE;
rightKerningGroup = AE;
unicode = 00C6;
},
{
glyphname = AEacute;
lastChange = "2019-09-04 12:41:08 +0000";
layers = (
{
hints = (
{
horizontal = 1;
place = "{0, 83.58}";
type = Stem;
},
{
horizontal = 1;
place = "{191.75, 80.66}";
type = Stem;
},
{
horizontal = 1;
place = "{345.75, 83.58}";
type = Stem;
},
{
horizontal = 1;
place = "{653.41, 83.59}";
type = Stem;
},
{
horizontal = 1;
place = "{794.25, 148.83}";
type = Stem;
},
{
place = "{13.33, 1026.46}";
type = Stem;
}
);
layerId = "7AC970EF-486C-4FB8-91F6-C99015BB6A18";
paths = (
{
closed = 1;
nodes = (
"115.76 0 LINE",
"211.3 191.75 LINE",
"531.39 191.75 LINE",
"561.03 0 LINE",
"909.79 0 LINE",
"924.58 83.58 LINE",
"638.8 83.58 LINE",
"593.47 345.75 LINE",
"928.96 345.75 LINE",
"943.66 429.33 LINE",
"579.02 429.33 LINE",
"540.28 653.41 LINE",
"1025 653.41 LINE",
"1039.79 737 LINE",
"391.66 737 LINE",
"13.33 0 LINE"
);
},
{
closed = 1;
nodes = (
"439.86 650.53 LINE",
"460.48 650.5 LINE",
"518.92 272.41 LINE",
"251.48 272.41 LINE"
);
},
{
closed = 1;
nodes = (
"511.26 794.25 LINE",
"668.42 943.08 LINE",
"550.08 943.08 LINE",
"428.08 794.25 LINE"
);
}
);
width = 961;
}
);
leftKerningGroup = A;
note = AEacute;
rightKerningGroup = AE;
unicode = 01FC;
},
{
glyphname = B;
lastChange = "2019-09-04 12:41:08 +0000";
layers = (
{
hints = (
{
horizontal = 1;
place = "{0, 80.76}";
type = Stem;
},
{
horizontal = 1;
place = "{347.34, 80.57}";
type = Stem;
},
{
horizontal = 1;
place = "{656.43, 80.61}";
type = Stem;
},
{
place = "{86.66, 609.44}";
type = Stem;
}
);
layerId = "7AC970EF-486C-4FB8-91F6-C99015BB6A18";
paths = (
{
closed = 1;
nodes = (
"520.94 0 LINE",
"642.84 103.97 LINE",
"679.25 310.58 LINE",
"609.87 397.41 LINE",
"667.37 459.46 LINE",
"696.1 621.85 LINE",
"601.79 737.08 LINE",
"216.62 737 LINE",
"86.66 0 LINE"
);
},
{
closed = 1;
nodes = (
"239.19 347.26 LINE",
"536.74 347.41 LINE",
"584.32 287.37 LINE",
"557.66 135.66 LINE",
"493.25 80.83 LINE",
"192.19 80.68 LINE"
);
},
{
closed = 1;
nodes = (
"293.7 656.35 LINE",
"556.62 656.5 LINE",
"601.29 601.33 LINE",
"581 485.08 LINE",
"527.96 427.91 LINE",
"253.42 427.91 LINE"
);
}
);
width = 690;
}
);
leftKerningGroup = B;
note = B;
rightKerningGroup = B;
unicode = 0042;
},
{
glyphname = C;
lastChange = "2019-09-04 12:41:08 +0000";
layers = (
{
hints = (
{
horizontal = 1;
place = "{-0.08, 80.66}";
type = Stem;
},
{
horizontal = 1;
place = "{656.25, 80.71}";
type = Stem;
},
{
place = "{88.81, 627.89}";
type = Stem;
}
);
layerId = "7AC970EF-486C-4FB8-91F6-C99015BB6A18";
paths = (
{
closed = 1;
nodes = (
"641.58 95.21 LINE",
"587.64 161.71 LINE",
"491.89 80.66 LINE",
"228.26 80.5 LINE",
"183.51 135.66 LINE",
"265.26 601.33 LINE",
"329.76 656.16 LINE",
"585.72 656.33 LINE",
"652.01 576.41 LINE",
"716.7 632 LINE",
"630.89 736.91 LINE",
"291.86 737 LINE",
"182 643.41 LINE",
"88.81 115.1 LINE",
"183.27 0 LINE",
"529.89 -0.17 LINE"
);
}
);
width = 646;
}
);
leftKerningGroup = C;
note = C;
rightKerningGroup = C;
unicode = 0043;
},
{
glyphname = Cacute;
lastChange = "2019-09-04 12:41:08 +0000";
layers = (
{
hints = (
{
horizontal = 1;
place = "{-0.08, 80.66}";
type = Stem;
},
{
horizontal = 1;
place = "{656.25, 80.71}";
type = Stem;
},
{
horizontal = 1;
place = "{794.25, 148.83}";
type = Stem;
},
{
place = "{88.81, 627.89}";
type = Stem;
}
);
layerId = "7AC970EF-486C-4FB8-91F6-C99015BB6A18";
paths = (
{
closed = 1;
nodes = (
"641.58 95.21 LINE",
"587.64 161.71 LINE",
"491.89 80.66 LINE",
"228.26 80.5 LINE",
"183.51 135.66 LINE",
"265.26 601.33 LINE",
"329.76 656.16 LINE",
"585.72 656.33 LINE",
"652.01 576.41 LINE",
"716.7 632 LINE",
"630.89 736.91 LINE",
"291.86 737 LINE",
"182 643.41 LINE",
"88.81 115.1 LINE",
"183.27 0 LINE",
"529.89 -0.17 LINE"
);
},
{
closed = 1;
nodes = (
"514.11 794.25 LINE",
"671.27 943.08 LINE",
"552.93 943.08 LINE",
"430.93 794.25 LINE"
);
}
);
width = 646;
}
);
leftKerningGroup = C;
note = Cacute;
rightKerningGroup = C;
unicode = 0106;
},
{
glyphname = Ccaron;
lastChange = "2019-09-04 12:41:08 +0000";
layers = (
{
hints = (
{
horizontal = 1;
place = "{-0.08, 80.66}";
type = Stem;
},
{
horizontal = 1;
place = "{656.25, 80.71}";
type = Stem;
},
{
horizontal = 1;
place = "{794.25, 141.16}";
type = Stem;
},
{
place = "{88.81, 627.89}";
type = Stem;
}
);
layerId = "7AC970EF-486C-4FB8-91F6-C99015BB6A18";
paths = (
{
closed = 1;
nodes = (
"641.58 95.21 LINE",
"587.64 161.71 LINE",
"491.89 80.66 LINE",
"228.26 80.5 LINE",
"183.51 135.66 LINE",
"265.26 601.33 LINE",
"329.76 656.16 LINE",
"585.72 656.33 LINE",
"652.01 576.41 LINE",
"716.7 632 LINE",
"630.89 736.91 LINE",
"291.86 737 LINE",
"182 643.41 LINE",
"88.81 115.1 LINE",
"183.27 0 LINE",
"529.89 -0.17 LINE"
);
},
{
closed = 1;
nodes = (
"518.58 794.25 LINE",
"643.47 935.41 LINE",
"564.63 935.41 LINE",
"472.67 850.79 LINE",
"466.84 850.79 LINE",
"404.71 935.41 LINE",
"333.2 935.41 LINE",
"417.22 794.25 LINE"
);
}
);
width = 646;
}
);
leftKerningGroup = C;
note = Ccaron;
rightKerningGroup = C;
unicode = 010C;
},
{
glyphname = Ccedilla;
lastChange = "2019-09-04 12:41:08 +0000";
layers = (
{
hints = (
{
horizontal = 1;
place = "{-0.03, 80.61}";
type = Stem;
},
{
horizontal = 1;
place = "{656.25, 80.71}";
type = Stem;
},
{
place = "{88.81, 627.89}";
type = Stem;
}
);
layerId = "7AC970EF-486C-4FB8-91F6-C99015BB6A18";
paths = (
{
closed = 1;
nodes = (
"338.39 -127.59 LINE",
"400.96 -0.11 LINE",
"529.89 -0.17 LINE",
"641.58 95.21 LINE",
"587.64 161.71 LINE",
"491.89 80.66 LINE",
"228.26 80.5 LINE",
"183.51 135.66 LINE",
"265.26 601.33 LINE",
"329.76 656.16 LINE",
"585.72 656.33 LINE",
"652.01 576.41 LINE",
"716.7 632 LINE",
"630.89 736.91 LINE",
"291.86 737 LINE",
"182 643.41 LINE",
"88.81 115.1 LINE",
"183.27 0 LINE",
"319.11 -0.07 LINE",
"270.93 -127.59 LINE"
);
}
);
width = 646;
}
);
leftKerningGroup = C;
note = Ccedilla;
rightKerningGroup = C;
unicode = 00C7;
},
{
glyphname = Ccircumflex;
lastChange = "2019-09-04 12:41:08 +0000";
layers = (
{
hints = (
{
horizontal = 1;
place = "{-0.08, 80.66}";
type = Stem;
},
{
horizontal = 1;
place = "{656.25, 80.71}";
type = Stem;
},
{
horizontal = 1;
place = "{794.25, 141.16}";
type = Stem;
},
{
place = "{88.81, 627.89}";
type = Stem;
}
);
layerId = "7AC970EF-486C-4FB8-91F6-C99015BB6A18";
paths = (
{
closed = 1;
nodes = (
"641.58 95.21 LINE",
"587.64 161.71 LINE",
"491.89 80.66 LINE",
"228.26 80.5 LINE",
"183.51 135.66 LINE",
"265.26 601.33 LINE",
"329.76 656.16 LINE",
"585.72 656.33 LINE",
"652.01 576.41 LINE",
"716.7 632 LINE",
"630.89 736.91 LINE",
"291.86 737 LINE",
"182 643.41 LINE",
"88.81 115.1 LINE",
"183.27 0 LINE",
"529.89 -0.17 LINE"
);
},
{
closed = 1;
nodes = (
"390.89 794.25 LINE",
"482.84 878.87 LINE",
"488.68 878.87 LINE",
"550.8 794.25 LINE",
"622.31 794.25 LINE",
"538.29 935.41 LINE",
"436.93 935.41 LINE",
"312.05 794.25 LINE"
);
}
);
width = 646;
}
);
leftKerningGroup = C;
note = Ccircumflex;
rightKerningGroup = C;
unicode = 0108;
},
{
glyphname = Cdotaccent;
lastChange = "2019-09-04 12:41:08 +0000";
layers = (
{
hints = (
{
horizontal = 1;
place = "{-0.08, 80.66}";
type = Stem;
},
{
horizontal = 1;
place = "{656.25, 80.71}";
type = Stem;
},
{
horizontal = 1;
place = "{794.25, 118.04}";
type = Stem;
},
{
place = "{88.81, 627.89}";
type = Stem;
}
);
layerId = "7AC970EF-486C-4FB8-91F6-C99015BB6A18";
paths = (
{
closed = 1;
nodes = (
"641.58 95.21 LINE",
"587.64 161.71 LINE",
"491.89 80.66 LINE",
"228.26 80.5 LINE",
"183.51 135.66 LINE",
"265.26 601.33 LINE",
"329.76 656.16 LINE",
"585.72 656.33 LINE",
"652.01 576.41 LINE",
"716.7 632 LINE",
"630.89 736.91 LINE",
"291.86 737 LINE",
"182 643.41 LINE",
"88.81 115.1 LINE",
"183.27 0 LINE",
"529.89 -0.17 LINE"
);
},
{
closed = 1;
nodes = (
"515.51 794.25 LINE",
"536.34 912.29 LINE",
"448.34 912.29 LINE",
"427.51 794.25 LINE"
);
}
);
width = 646;
}
);
leftKerningGroup = C;
note = Cdotaccent;
rightKerningGroup = C;
unicode = 010A;
},
{
glyphname = D;
lastChange = "2019-09-04 12:41:08 +0000";
layers = (
{
hints = (
{
horizontal = 1;
place = "{-0.04, 80.7}";
type = Stem;
},
{
horizontal = 1;
place = "{656.33, 80.62}";
type = Stem;
},
{
place = "{86.66, 654.11}";
type = Stem;
}
);
layerId = "7AC970EF-486C-4FB8-91F6-C99015BB6A18";
paths = (
{
closed = 1;
nodes = (
"665.38 143.76 LINE",
"740.76 571.59 LINE",
"606.9 736.91 LINE",
"307.92 736.99 LINE",
"307.92 736.99 LINE",
"216.62 736.99 LINE",
"86.66 -0.01 LINE",
"498.38 -0.1 LINE"
);
},
{
closed = 1;
nodes = (
"293.68 656.32 LINE",
"561.65 656.32 LINE",
"646.28 551.28 LINE",
"581.82 185.74 LINE",
"460.2 80.65 LINE",
"192.18 80.65 LINE"
);
}
);
width = 705;
}
);
leftKerningGroup = B;
note = D;
rightKerningGroup = D;
unicode = 0044;
},
{
glyphname = uni01C4;
lastChange = "2019-09-04 12:41:08 +0000";
layers = (
{
hints = (
{
horizontal = 1;
place = "{0, 83.58}";
type = Stem;
},
{
horizontal = 1;
place = "{653.41, 83.59}";
type = Stem;
},
{
horizontal = 1;
place = "{794.25, 141.16}";
type = Stem;
},
{
place = "{86.66, 1346.88}";
type = Stem;
},
{
horizontal = 1;
place = "{-0.04, 80.7}";
type = Stem;
},
{
horizontal = 1;
place = "{656.33, 80.63}";
type = Stem;
}
);
layerId = "7AC970EF-486C-4FB8-91F6-C99015BB6A18";
paths = (
{
closed = 1;
nodes = (
"665.38 143.77 LINE",
"740.76 571.6 LINE",
"606.9 736.91 LINE",
"216.62 737 LINE",
"86.66 0 LINE",
"498.38 -0.09 LINE"
);
},
{
closed = 1;
nodes = (
"293.68 656.33 LINE",
"561.65 656.33 LINE",
"646.28 551.29 LINE",
"581.82 185.75 LINE",
"460.2 80.66 LINE",
"192.18 80.66 LINE"
);
},
{
closed = 1;
nodes = (
"1308.32 0 LINE",
"1323.03 83.58 LINE",
"922.2 83.58 LINE",
"926.28 106.33 LINE",
"1417 644.26 LINE",
"1433.53 737 LINE",
"939.57 737 LINE",
"924.78 653.41 LINE",
"1292.07 653.41 LINE",
"1288.07 630.66 LINE",
"806.82 104.09 LINE",
"788.65 0 LINE"
);
},
{
closed = 1;
nodes = (
"1250.07 794.25 LINE",
"1374.96 935.41 LINE",
"1296.12 935.41 LINE",
"1204.16 850.79 LINE",
"1198.32 850.79 LINE",
"1136.2 935.41 LINE",
"1064.69 935.41 LINE",
"1148.71 794.25 LINE"
);
}
);
width = 1380;
}
);
note = uni01C4;
unicode = 01C4;
},
{
glyphname = Eth;
lastChange = "2019-09-04 12:41:08 +0000";
layers = (
{
hints = (
{
horizontal = 1;
place = "{-0.04, 80.7}";
type = Stem;
},
{
horizontal = 1;
place = "{337.33, 73.33}";
type = Stem;
},
{
horizontal = 1;
place = "{656.33, 80.62}";
type = Stem;
},
{
place = "{73.66, 667.11}";
type = Stem;
}
);
layerId = "7AC970EF-486C-4FB8-91F6-C99015BB6A18";
paths = (
{
closed = 1;
nodes = (
"665.38 143.76 LINE",
"740.76 571.59 LINE",
"606.9 736.91 LINE",
"307.92 736.99 LINE",
"307.92 736.99 LINE",
"216.62 736.99 LINE",
"159.08 410.65 LINE",
"86.54 410.65 LINE",
"73.66 337.32 LINE",
"146.15 337.32 LINE",
"86.66 -0.01 LINE",
"498.38 -0.1 LINE"
);
},
{
closed = 1;
nodes = (
"237.44 337.32 LINE",
"373.99 337.32 LINE",
"386.86 410.65 LINE",
"250.37 410.65 LINE",
"293.68 656.32 LINE",
"561.65 656.32 LINE",
"646.28 551.28 LINE",
"581.82 185.74 LINE",
"460.2 80.65 LINE",
"192.18 80.65 LINE"
);
}
);
width = 705;
}
);
note = Eth;
rightKerningGroup = D;
unicode = 00D0;
},
{
glyphname = Dcaron;
lastChange = "2019-09-04 12:41:08 +0000";
layers = (
{
hints = (
{
horizontal = 1;
place = "{-0.04, 80.7}";
type = Stem;
},
{
horizontal = 1;
place = "{656.33, 80.62}";
type = Stem;
},
{
horizontal = 1;
place = "{794.25, 141.16}";
type = Stem;
},
{
place = "{86.66, 654.11}";
type = Stem;
}
);
layerId = "7AC970EF-486C-4FB8-91F6-C99015BB6A18";
paths = (
{
closed = 1;
nodes = (
"665.38 143.76 LINE",
"740.76 571.59 LINE",
"606.9 736.91 LINE",
"307.92 736.99 LINE",
"307.92 736.99 LINE",
"216.62 736.99 LINE",
"86.66 -0.01 LINE",
"498.38 -0.1 LINE"
);
},
{
closed = 1;
nodes = (
"293.68 656.32 LINE",
"561.65 656.32 LINE",
"646.28 551.28 LINE",
"581.82 185.74 LINE",
"460.2 80.65 LINE",
"192.18 80.65 LINE"
);
},
{
closed = 1;
nodes = (
"511.49 794.25 LINE",
"636.37 935.41 LINE",
"557.53 935.41 LINE",
"465.57 850.79 LINE",
"459.74 850.79 LINE",
"397.62 935.41 LINE",
"326.1 935.41 LINE",
"410.13 794.25 LINE"
);
}
);
width = 705;
}
);
note = Dcaron;
rightKerningGroup = D;
unicode = 010E;
},
{
glyphname = Dcroat;
lastChange = "2019-09-04 12:41:08 +0000";
layers = (
{
hints = (
{
horizontal = 1;
place = "{-0.04, 80.7}";
type = Stem;
},
{
horizontal = 1;
place = "{337.33, 73.33}";
type = Stem;
},
{
horizontal = 1;
place = "{656.33, 80.62}";
type = Stem;
},
{
place = "{73.66, 667.11}";
type = Stem;
}
);
layerId = "7AC970EF-486C-4FB8-91F6-C99015BB6A18";
paths = (
{
closed = 1;
nodes = (
"665.38 143.76 LINE",
"740.76 571.59 LINE",
"606.9 736.91 LINE",
"307.92 736.99 LINE",
"307.92 736.99 LINE",
"216.62 736.99 LINE",
"159.08 410.65 LINE",
"86.54 410.65 LINE",
"73.66 337.32 LINE",
"146.15 337.32 LINE",
"86.66 -0.01 LINE",
"498.38 -0.1 LINE"
);
},
{
closed = 1;
nodes = (
"237.44 337.32 LINE",
"373.99 337.32 LINE",
"386.86 410.65 LINE",
"250.37 410.65 LINE",
"293.68 656.32 LINE",
"561.65 656.32 LINE",
"646.28 551.28 LINE",
"581.82 185.74 LINE",
"460.2 80.65 LINE",
"192.18 80.65 LINE"
);
}
);
width = 705;
}
);
note = Dcroat;
rightKerningGroup = D;
unicode = 0110;
},
{
glyphname = uni01C5;
lastChange = "2019-09-04 12:41:08 +0000";
layers = (
{
hints = (
{
horizontal = 1;
place = "{0, 73.33}";
type = Stem;
},
{
horizontal = 1;
place = "{449.16, 73.34}";
type = Stem;
},
{
horizontal = 1;
place = "{656.33, 80.63}";
type = Stem;
},
{
place = "{86.66, 1230.63}";
type = Stem;
},
{
horizontal = 1;
place = "{-0.04, 80.7}";
type = Stem;
},
{
horizontal = 1;
place = "{579.75, 141.16}";
type = Stem;
}
);
layerId = "7AC970EF-486C-4FB8-91F6-C99015BB6A18";
paths = (
{
closed = 1;
nodes = (
"665.38 143.77 LINE",
"740.76 571.6 LINE",
"606.9 736.91 LINE",
"216.62 737 LINE",
"86.66 0 LINE",
"498.38 -0.09 LINE"
);
},
{
closed = 1;
nodes = (
"293.68 656.33 LINE",
"561.65 656.33 LINE",
"646.28 551.29 LINE",
"581.82 185.75 LINE",
"460.2 80.66 LINE",
"192.18 80.66 LINE"
);
},
{
closed = 1;
nodes = (
"1233.57 0 LINE",
"1246.53 73.33 LINE",
"922.11 73.33 LINE",
"1299.81 423.65 LINE",
"1317.28 522.5 LINE",
"915.78 522.5 LINE",
"902.82 449.16 LINE",
"1205.63 449.16 LINE",
"816.45 89.83 LINE",
"800.57 0 LINE"
);
},
{
closed = 1;
nodes = (
"1169.77 579.75 LINE",
"1294.65 720.91 LINE",
"1215.81 720.91 LINE",
"1123.86 636.29 LINE",
"1118.02 636.29 LINE",
"1055.9 720.91 LINE",
"984.39 720.91 LINE",
"1068.41 579.75 LINE"
);
}
);
width = 1292;
}
);
note = uni01C5;
unicode = 01C5;
},
{
glyphname = E;
lastChange = "2019-09-04 12:41:08 +0000";
layers = (
{
hints = (
{
horizontal = 1;
place = "{0, 83.58}";
type = Stem;
},
{
horizontal = 1;
place = "{345.75, 83.58}";
type = Stem;
},
{
horizontal = 1;
place = "{653.41, 83.59}";
type = Stem;
},
{
place = "{86.66, 616.17}";
type = Stem;
}
);
layerId = "7AC970EF-486C-4FB8-91F6-C99015BB6A18";
paths = (
{
closed = 1;
nodes = (
"572.83 0 LINE",
"587.54 83.58 LINE",
"192.7 83.58 LINE",
"238.93 345.75 LINE",
"592 345.75 LINE",
"606.71 429.33 LINE",
"253.67 429.33 LINE",
"293.18 653.41 LINE",
"688.04 653.41 LINE",
"702.83 737 LINE",
"216.62 737 LINE",
"86.66 0 LINE"
);
}
);
width = 625;
}
);
note = E;
rightKerningGroup = AE;
unicode = 0045;
},
{
glyphname = Eacute;
lastChange = "2019-09-04 12:41:08 +0000";
layers = (
{
hints = (
{
horizontal = 1;
place = "{0, 83.58}";
type = Stem;
},
{
horizontal = 1;
place = "{345.75, 83.58}";
type = Stem;
},
{
horizontal = 1;
place = "{653.41, 83.59}";
type = Stem;
},
{
horizontal = 1;
place = "{794.25, 148.83}";
type = Stem;
},
{
place = "{86.66, 616.17}";
type = Stem;
}
);
layerId = "7AC970EF-486C-4FB8-91F6-C99015BB6A18";
paths = (
{
closed = 1;
nodes = (
"572.83 0 LINE",
"587.54 83.58 LINE",
"192.7 83.58 LINE",
"238.93 345.75 LINE",
"592 345.75 LINE",
"606.71 429.33 LINE",
"253.67 429.33 LINE",
"293.18 653.41 LINE",
"688.04 653.41 LINE",
"702.83 737 LINE",
"216.62 737 LINE",
"86.66 0 LINE"
);
},
{
closed = 1;
nodes = (
"513.22 794.25 LINE",
"670.38 943.08 LINE",
"552.04 943.08 LINE",
"430.04 794.25 LINE"
);
}
);
width = 625;
}
);
note = Eacute;
rightKerningGroup = AE;
unicode = 00C9;
},
{
glyphname = Ebreve;
lastChange = "2019-09-04 12:41:08 +0000";
layers = (
{
hints = (
{
horizontal = 1;
place = "{0, 83.58}";
type = Stem;
},
{
horizontal = 1;
place = "{345.75, 83.58}";
type = Stem;
},
{
horizontal = 1;
place = "{653.41, 83.59}";
type = Stem;
},
{
horizontal = 1;
place = "{794.22, 58.99}";
type = Stem;
},
{
place = "{86.66, 616.17}";
type = Stem;
},
{
horizontal = 1;
place = "{878.91, 49.5}";
type = Stem;
}
);
layerId = "7AC970EF-486C-4FB8-91F6-C99015BB6A18";
paths = (
{
closed = 1;
nodes = (
"572.83 0 LINE",
"587.54 83.58 LINE",
"192.7 83.58 LINE",
"238.93 345.75 LINE",
"592 345.75 LINE",
"606.71 429.33 LINE",
"253.67 429.33 LINE",
"293.18 653.41 LINE",
"688.04 653.41 LINE",
"702.83 737 LINE",
"216.62 737 LINE",
"86.66 0 LINE"
);
},
{
closed = 1;
nodes = (
"546.6 794.25 LINE",
"611.56 849.18 LINE",
"625.58 928.41 LINE",
"565 928.41 LINE",
"556.25 878.91 LINE",
"526.08 853.21 LINE",
"422.66 853.21 LINE",
"401.58 878.91 LINE",
"410.33 928.41 LINE",
"349.75 928.41 LINE",
"338.26 863.31 LINE",
"395.84 794.19 LINE"
);
}
);
width = 625;
}
);
note = Ebreve;
rightKerningGroup = AE;
unicode = 0114;
},
{
glyphname = Ecaron;
lastChange = "2019-09-04 12:41:08 +0000";
layers = (
{
hints = (
{
horizontal = 1;
place = "{0, 83.58}";
type = Stem;
},
{
horizontal = 1;
place = "{345.75, 83.58}";
type = Stem;
},
{
horizontal = 1;
place = "{653.41, 83.59}";
type = Stem;
},
{
horizontal = 1;
place = "{794.25, 141.16}";
type = Stem;
},
{
place = "{86.66, 616.17}";
type = Stem;
}
);
layerId = "7AC970EF-486C-4FB8-91F6-C99015BB6A18";
paths = (
{
closed = 1;
nodes = (
"572.83 0 LINE",
"587.54 83.58 LINE",
"192.7 83.58 LINE",
"238.93 345.75 LINE",
"592 345.75 LINE",
"606.71 429.33 LINE",
"253.67 429.33 LINE",
"293.18 653.41 LINE",
"688.04 653.41 LINE",
"702.83 737 LINE",
"216.62 737 LINE",
"86.66 0 LINE"
);
},
{
closed = 1;
nodes = (
"517.7 794.25 LINE",
"642.58 935.41 LINE",
"563.74 935.41 LINE",
"471.78 850.79 LINE",
"465.95 850.79 LINE",
"403.82 935.41 LINE",
"332.31 935.41 LINE",
"416.33 794.25 LINE"
);
}
);
width = 625;
}
);
note = Ecaron;
rightKerningGroup = AE;
unicode = 011A;
},
{
glyphname = Ecircumflex;
lastChange = "2019-09-04 12:41:08 +0000";
layers = (
{
hints = (
{
horizontal = 1;
place = "{0, 83.58}";
type = Stem;
},
{
horizontal = 1;
place = "{345.75, 83.58}";
type = Stem;
},
{
horizontal = 1;
place = "{653.41, 83.59}";
type = Stem;
},
{
horizontal = 1;
place = "{794.25, 141.16}";
type = Stem;
},
{
place = "{86.66, 616.17}";
type = Stem;
}
);
layerId = "7AC970EF-486C-4FB8-91F6-C99015BB6A18";
paths = (
{
closed = 1;
nodes = (
"572.83 0 LINE",
"587.54 83.58 LINE",
"192.7 83.58 LINE",
"238.93 345.75 LINE",
"592 345.75 LINE",
"606.71 429.33 LINE",
"253.67 429.33 LINE",
"293.18 653.41 LINE",
"688.04 653.41 LINE",
"702.83 737 LINE",
"216.62 737 LINE",
"86.66 0 LINE"
);
},
{
closed = 1;
nodes = (
"390 794.25 LINE",
"481.96 878.87 LINE",
"487.79 878.87 LINE",
"549.91 794.25 LINE",
"621.43 794.25 LINE",
"537.4 935.41 LINE",
"436.04 935.41 LINE",
"311.16 794.25 LINE"
);
}
);
width = 625;
}
);
note = Ecircumflex;
rightKerningGroup = AE;
unicode = 00CA;
},
{
glyphname = uni1EBE;
lastChange = "2019-09-04 12:41:08 +0000";
layers = (
{
hints = (
{
horizontal = 1;
place = "{0, 83.58}";
type = Stem;
},
{
horizontal = 1;
place = "{345.75, 83.58}";
type = Stem;
},
{
horizontal = 1;
place = "{653.41, 83.59}";
type = Stem;
},
{
horizontal = 1;
place = "{871.07, 148.83}";
type = Stem;
},
{
place = "{86.66, 771.57}";
type = Stem;
},
{
horizontal = 1;
place = "{794.25, 141.16}";
type = Stem;
}
);
layerId = "7AC970EF-486C-4FB8-91F6-C99015BB6A18";
paths = (
{
closed = 1;
nodes = (
"572.83 0 LINE",
"587.54 83.58 LINE",
"192.7 83.58 LINE",
"238.93 345.75 LINE",
"592 345.75 LINE",
"606.71 429.33 LINE",
"253.67 429.33 LINE",
"293.18 653.41 LINE",
"688.04 653.41 LINE",
"702.83 737 LINE",
"216.62 737 LINE",
"86.66 0 LINE"
);
},
{
closed = 1;
nodes = (
"390 794.25 LINE",
"481.96 878.87 LINE",
"487.79 878.87 LINE",
"549.91 794.25 LINE",
"621.43 794.25 LINE",
"537.4 935.41 LINE",
"436.04 935.41 LINE",
"311.16 794.25 LINE"
);
},
{
closed = 1;
nodes = (
"701.07 871.07 LINE",
"858.23 1019.9 LINE",
"739.89 1019.9 LINE",
"617.89 871.07 LINE"
);
}
);
width = 625;
}
);
note = uni1EBE;
rightKerningGroup = AE;
unicode = 1EBE;
},
{
glyphname = uni1EC6;
lastChange = "2019-09-04 12:41:08 +0000";
layers = (
{
hints = (
{
horizontal = 1;
place = "{-175.29, 118.04}";
type = Stem;
},
{
horizontal = 1;
place = "{0, 83.58}";
type = Stem;
},
{
horizontal = 1;
place = "{345.75, 83.58}";
type = Stem;
},
{
horizontal = 1;
place = "{653.41, 83.59}";
type = Stem;
},
{
horizontal = 1;
place = "{794.25, 141.16}";
type = Stem;
},
{
place = "{86.66, 616.17}";
type = Stem;
}
);
layerId = "7AC970EF-486C-4FB8-91F6-C99015BB6A18";
paths = (
{
closed = 1;
nodes = (
"572.83 0 LINE",
"587.54 83.58 LINE",
"192.7 83.58 LINE",
"238.93 345.75 LINE",
"592 345.75 LINE",
"606.71 429.33 LINE",
"253.67 429.33 LINE",
"293.18 653.41 LINE",
"688.04 653.41 LINE",
"702.83 737 LINE",
"216.62 737 LINE",
"86.66 0 LINE"
);
},
{
closed = 1;
nodes = (
"342.28 -175.29 LINE",
"363.11 -57.25 LINE",
"275.11 -57.25 LINE",
"254.28 -175.29 LINE"
);
},
{
closed = 1;
nodes = (
"390 794.25 LINE",
"481.96 878.87 LINE",
"487.79 878.87 LINE",
"549.91 794.25 LINE",
"621.43 794.25 LINE",
"537.4 935.41 LINE",
"436.04 935.41 LINE",
"311.16 794.25 LINE"
);
}
);
width = 625;
}
);
note = uni1EC6;
rightKerningGroup = AE;
unicode = 1EC6;
},
{
glyphname = uni1EC0;
lastChange = "2019-09-04 12:41:08 +0000";
layers = (
{
hints = (
{
horizontal = 1;
place = "{0, 83.58}";
type = Stem;
},
{
horizontal = 1;
place = "{345.75, 83.58}";
type = Stem;
},
{
horizontal = 1;
place = "{653.41, 83.59}";
type = Stem;
},
{
horizontal = 1;
place = "{871.06, 148.83}";
type = Stem;
},
{
place = "{86.66, 616.17}";
type = Stem;
},
{
horizontal = 1;
place = "{794.25, 141.16}";
type = Stem;
}
);
layerId = "7AC970EF-486C-4FB8-91F6-C99015BB6A18";
paths = (
{
closed = 1;
nodes = (
"572.83 0 LINE",
"587.54 83.58 LINE",
"192.7 83.58 LINE",
"238.93 345.75 LINE",
"592 345.75 LINE",
"606.71 429.33 LINE",
"253.67 429.33 LINE",
"293.18 653.41 LINE",
"688.04 653.41 LINE",
"702.83 737 LINE",
"216.62 737 LINE",
"86.66 0 LINE"
);
},
{
closed = 1;
nodes = (
"334.01 871.06 LINE",
"264.59 1019.89 LINE",
"158.88 1019.89 LINE",
"262.1 871.06 LINE"
);
},
{
closed = 1;
nodes = (
"390 794.25 LINE",
"481.96 878.87 LINE",
"487.79 878.87 LINE",
"549.91 794.25 LINE",
"621.43 794.25 LINE",
"537.4 935.41 LINE",
"436.04 935.41 LINE",
"311.16 794.25 LINE"
);
}
);
width = 625;
}
);
leftKerningGroup = B;
note = uni1EC0;
rightKerningGroup = AE;
unicode = 1EC0;
},
{
glyphname = uni1EC2;
lastChange = "2019-09-04 12:41:08 +0000";
layers = (
{
hints = (
{
horizontal = 1;
place = "{0, 83.58}";
type = Stem;
},
{
horizontal = 1;
place = "{345.75, 83.58}";
type = Stem;
},
{
horizontal = 1;
place = "{653.41, 83.59}";
type = Stem;
},
{
horizontal = 1;
place = "{794.25, 141.16}";
type = Stem;
},
{
horizontal = 1;
place = "{1023.16, 54.55}";
type = Stem;
},
{
place = "{86.66, 676.3}";
type = Stem;
}
);
layerId = "7AC970EF-486C-4FB8-91F6-C99015BB6A18";
paths = (
{
closed = 1;
nodes = (
"572.83 0 LINE",
"587.54 83.58 LINE",
"192.7 83.58 LINE",
"238.93 345.75 LINE",
"592 345.75 LINE",
"606.71 429.33 LINE",
"253.67 429.33 LINE",
"293.18 653.41 LINE",
"688.04 653.41 LINE",
"702.83 737 LINE",
"216.62 737 LINE",
"86.66 0 LINE"
);
},
{
closed = 1;
nodes = (
"390 794.25 LINE",
"481.96 878.87 LINE",
"487.79 878.87 LINE",
"549.91 794.25 LINE",
"621.43 794.25 LINE",
"537.4 935.41 LINE",
"436.04 935.41 LINE",
"311.16 794.25 LINE"
);
},
{
closed = 1;
nodes = (
"665.29 871.08 LINE",
"670.16 898.42 LINE",
"750.72 956.38 LINE",
"762.96 1025.77 LINE",
"721.38 1077.71 LINE",
"618.88 1077.71 LINE",
"567.9 1033.98 LINE",
"605.67 988.29 LINE",
"646.37 1023.16 LINE",
"685.18 1023.16 LINE",
"694.98 1010.87 LINE",
"690.58 986.21 LINE",
"614.92 929.41 LINE",
"604.58 871.08 LINE"
);
}
);
width = 625;
}
);
note = uni1EC2;
rightKerningGroup = AE;
unicode = 1EC2;
},
{
glyphname = uni1EC4;
lastChange = "2019-09-04 12:41:08 +0000";
layers = (
{
hints = (
{
horizontal = 1;
place = "{0, 83.58}";
type = Stem;
},
{
horizontal = 1;
place = "{345.75, 83.58}";
type = Stem;
},
{
horizontal = 1;
place = "{653.41, 83.59}";
type = Stem;
},
{
horizontal = 1;
place = "{794.25, 141.16}";
type = Stem;
},
{
horizontal = 1;
place = "{1031.87, 57.54}";
type = Stem;
},
{
place = "{86.66, 616.17}";
type = Stem;
},
{
horizontal = 1;
place = "{962.21, 57.54}";
type = Stem;
}
);
layerId = "7AC970EF-486C-4FB8-91F6-C99015BB6A18";
paths = (
{
closed = 1;
nodes = (
"572.83 0 LINE",
"587.54 83.58 LINE",
"192.7 83.58 LINE",
"238.93 345.75 LINE",
"592 345.75 LINE",
"606.71 429.33 LINE",
"253.67 429.33 LINE",
"293.18 653.41 LINE",
"688.04 653.41 LINE",
"702.83 737 LINE",
"216.62 737 LINE",
"86.66 0 LINE"
);
},
{
closed = 1;
nodes = (
"390 794.25 LINE",
"481.96 878.87 LINE",
"487.79 878.87 LINE",
"549.91 794.25 LINE",
"621.43 794.25 LINE",
"537.4 935.41 LINE",
"436.04 935.41 LINE",
"311.16 794.25 LINE"
);
},
{
closed = 1;
nodes = (
"610.65 962.21 LINE",
"673.47 1016.3 LINE",
"687.08 1087.16 LINE",
"634.08 1087.16 LINE",
"627.54 1056 LINE",
"584.46 1019.75 LINE",
"547.93 1019.75 LINE",
"488.39 1089.41 LINE",
"386.92 1089.41 LINE",
"323.97 1034.88 LINE",
"310.43 964.37 LINE",
"363.5 964.37 LINE",
"370.08 995.5 LINE",
"413.08 1031.87 LINE",
"453.75 1031.87 LINE",
"513.28 962.21 LINE"
);
}
);
width = 625;
}
);
note = uni1EC4;
rightKerningGroup = AE;
unicode = 1EC4;
},
{
glyphname = uni0204;
lastChange = "2019-09-04 12:41:08 +0000";
layers = (
{
hints = (
{
horizontal = 1;
place = "{0, 83.58}";
type = Stem;
},
{
horizontal = 1;
place = "{345.75, 83.58}";
type = Stem;
},
{
horizontal = 1;
place = "{653.41, 83.59}";
type = Stem;
},
{
horizontal = 1;
place = "{794.25, 148.83}";
type = Stem;
},
{
place = "{86.66, 616.17}";
type = Stem;
}
);
layerId = "7AC970EF-486C-4FB8-91F6-C99015BB6A18";
paths = (
{
closed = 1;
nodes = (
"572.83 0 LINE",
"587.54 83.58 LINE",
"192.7 83.58 LINE",
"238.93 345.75 LINE",
"592 345.75 LINE",
"606.71 429.33 LINE",
"253.67 429.33 LINE",
"293.18 653.41 LINE",
"688.04 653.41 LINE",
"702.83 737 LINE",
"216.62 737 LINE",
"86.66 0 LINE"
);
},
{
closed = 1;
nodes = (
"408.17 794.25 LINE",
"338.74 943.08 LINE",
"233.03 943.08 LINE",
"336.25 794.25 LINE"
);
},
{
closed = 1;
nodes = (
"574.37 794.25 LINE",
"504.95 943.08 LINE",
"399.24 943.08 LINE",
"502.46 794.25 LINE"
);
}
);
width = 625;
}
);
leftKerningGroup = B;
note = uni0204;
rightKerningGroup = AE;
unicode = 0204;
},
{
glyphname = Edieresis;
lastChange = "2019-09-04 12:41:08 +0000";
layers = (
{
hints = (
{
horizontal = 1;
place = "{0, 83.58}";
type = Stem;
},
{
horizontal = 1;
place = "{345.75, 83.58}";
type = Stem;
},
{
horizontal = 1;
place = "{653.41, 83.59}";
type = Stem;
},
{
horizontal = 1;
place = "{794.25, 118.16}";
type = Stem;
},
{
place = "{86.66, 616.17}";
type = Stem;
}
);
layerId = "7AC970EF-486C-4FB8-91F6-C99015BB6A18";
paths = (
{
closed = 1;
nodes = (
"572.83 0 LINE",
"587.54 83.58 LINE",
"192.7 83.58 LINE",
"238.93 345.75 LINE",
"592 345.75 LINE",
"606.71 429.33 LINE",
"253.67 429.33 LINE",
"293.18 653.41 LINE",
"688.04 653.41 LINE",
"702.83 737 LINE",
"216.62 737 LINE",
"86.66 0 LINE"
);
},
{
closed = 1;
nodes = (
"380.58 794.25 LINE",
"401.41 912.41 LINE",
"313.41 912.41 LINE",
"292.58 794.25 LINE"
);
},
{
closed = 1;
nodes = (
"646 794.25 LINE",
"666.83 912.41 LINE",
"578.83 912.41 LINE",
"558 794.25 LINE"
);
}
);
width = 625;
}
);
note = Edieresis;
rightKerningGroup = AE;
unicode = 00CB;
},
{
glyphname = Edotaccent;
lastChange = "2019-09-04 12:41:08 +0000";
layers = (
{
hints = (
{
horizontal = 1;
place = "{0, 83.58}";
type = Stem;
},
{
horizontal = 1;
place = "{345.75, 83.58}";
type = Stem;
},
{
horizontal = 1;
place = "{653.41, 83.59}";
type = Stem;
},
{
horizontal = 1;
place = "{794.25, 118.04}";
type = Stem;
},
{
place = "{86.66, 616.17}";
type = Stem;
}
);
layerId = "7AC970EF-486C-4FB8-91F6-C99015BB6A18";
paths = (
{
closed = 1;
nodes = (
"572.83 0 LINE",
"587.54 83.58 LINE",
"192.7 83.58 LINE",
"238.93 345.75 LINE",
"592 345.75 LINE",
"606.71 429.33 LINE",
"253.67 429.33 LINE",
"293.18 653.41 LINE",
"688.04 653.41 LINE",
"702.83 737 LINE",
"216.62 737 LINE",
"86.66 0 LINE"
);
},
{
closed = 1;
nodes = (
"514.62 794.25 LINE",
"535.46 912.29 LINE",
"447.46 912.29 LINE",
"426.62 794.25 LINE"
);
}
);
width = 625;
}
);
note = Edotaccent;
rightKerningGroup = AE;
unicode = 0116;
},
{
glyphname = uni1EB8;
lastChange = "2019-09-04 12:41:08 +0000";
layers = (
{
hints = (
{
horizontal = 1;
place = "{-175.29, 118.04}";
type = Stem;
},
{
horizontal = 1;
place = "{0, 83.58}";
type = Stem;
},
{
horizontal = 1;
place = "{345.75, 83.58}";
type = Stem;
},
{
horizontal = 1;
place = "{653.41, 83.59}";
type = Stem;
},
{
place = "{86.66, 616.17}";
type = Stem;
}
);
layerId = "7AC970EF-486C-4FB8-91F6-C99015BB6A18";
paths = (
{
closed = 1;
nodes = (
"572.83 0 LINE",
"587.54 83.58 LINE",
"192.7 83.58 LINE",
"238.93 345.75 LINE",
"592 345.75 LINE",
"606.71 429.33 LINE",
"253.67 429.33 LINE",
"293.18 653.41 LINE",
"688.04 653.41 LINE",
"702.83 737 LINE",
"216.62 737 LINE",
"86.66 0 LINE"
);
},
{
closed = 1;
nodes = (
"342.28 -175.29 LINE",
"363.11 -57.25 LINE",
"275.11 -57.25 LINE",
"254.28 -175.29 LINE"
);
}
);
width = 625;
}
);
note = uni1EB8;
rightKerningGroup = AE;
unicode = 1EB8;
},
{
glyphname = Egrave;
lastChange = "2019-09-04 12:41:08 +0000";
layers = (
{
hints = (
{
horizontal = 1;
place = "{0, 83.58}";
type = Stem;
},
{
horizontal = 1;
place = "{345.75, 83.58}";
type = Stem;
},
{
horizontal = 1;
place = "{653.41, 83.59}";
type = Stem;
},
{
horizontal = 1;
place = "{794.25, 148.83}";
type = Stem;
},
{
place = "{86.66, 616.17}";
type = Stem;
}
);
layerId = "7AC970EF-486C-4FB8-91F6-C99015BB6A18";
paths = (
{
closed = 1;
nodes = (
"572.83 0 LINE",
"587.54 83.58 LINE",
"192.7 83.58 LINE",
"238.93 345.75 LINE",
"592 345.75 LINE",
"606.71 429.33 LINE",
"253.67 429.33 LINE",
"293.18 653.41 LINE",
"688.04 653.41 LINE",
"702.83 737 LINE",
"216.62 737 LINE",
"86.66 0 LINE"
);
},
{
closed = 1;
nodes = (
"488.15 794.25 LINE",
"418.73 943.08 LINE",
"313.02 943.08 LINE",
"416.24 794.25 LINE"
);
}
);
width = 625;
}
);
note = Egrave;
rightKerningGroup = AE;
unicode = 00C8;
},
{
glyphname = uni1EBA;
lastChange = "2019-09-04 12:41:08 +0000";
layers = (
{
hints = (
{
horizontal = 1;
place = "{0, 83.58}";
type = Stem;
},
{
horizontal = 1;
place = "{345.75, 83.58}";
type = Stem;
},
{
horizontal = 1;
place = "{653.41, 83.59}";
type = Stem;
},
{
horizontal = 1;
place = "{946.33, 54.54}";
type = Stem;
},
{
place = "{86.66, 616.17}";
type = Stem;
}
);
layerId = "7AC970EF-486C-4FB8-91F6-C99015BB6A18";
paths = (
{
closed = 1;
nodes = (
"572.83 0 LINE",
"587.54 83.58 LINE",
"192.7 83.58 LINE",
"238.93 345.75 LINE",
"592 345.75 LINE",
"606.71 429.33 LINE",
"253.67 429.33 LINE",
"293.18 653.41 LINE",
"688.04 653.41 LINE",
"702.83 737 LINE",
"216.62 737 LINE",
"86.66 0 LINE"
);
},
{
closed = 1;
nodes = (
"498.12 794.25 LINE",
"502.99 821.58 LINE",
"583.55 879.55 LINE",
"595.79 948.94 LINE",
"554.21 1000.87 LINE",
"451.71 1000.87 LINE",
"400.73 957.14 LINE",
"438.5 911.46 LINE",
"479.21 946.33 LINE",
"518.02 946.33 LINE",
"527.81 934.04 LINE",
"523.41 909.37 LINE",
"447.75 852.58 LINE",
"437.41 794.25 LINE"
);
}
);
width = 625;
}
);
note = uni1EBA;
rightKerningGroup = AE;
unicode = 1EBA;
},
{
glyphname = uni0206;
lastChange = "2019-09-04 12:41:08 +0000";
layers = (
{
hints = (
{
horizontal = 1;
place = "{0, 83.58}";
type = Stem;
},
{
horizontal = 1;
place = "{345.75, 83.58}";
type = Stem;
},
{
horizontal = 1;
place = "{653.41, 83.59}";
type = Stem;
},
{
horizontal = 1;
place = "{869.37, 59.04}";
type = Stem;
},
{
place = "{86.66, 616.17}";
type = Stem;
}
);
layerId = "7AC970EF-486C-4FB8-91F6-C99015BB6A18";
paths = (
{
closed = 1;
nodes = (
"572.83 0 LINE",
"587.54 83.58 LINE",
"192.7 83.58 LINE",
"238.93 345.75 LINE",
"592 345.75 LINE",
"606.71 429.33 LINE",
"253.67 429.33 LINE",
"293.18 653.41 LINE",
"688.04 653.41 LINE",
"702.83 737 LINE",
"216.62 737 LINE",
"86.66 0 LINE"
);
},
{
closed = 1;
nodes = (
"391.96 794.25 LINE",
"400.71 843.75 LINE",
"430.87 869.37 LINE",
"534.29 869.37 LINE",
"555.37 843.75 LINE",
"546.62 794.25 LINE",
"607.21 794.25 LINE",
"618.6 858.52 LINE",
"561.37 928.41 LINE",
"410.4 928.41 LINE",
"345.36 873.31 LINE",
"331.37 794.25 LINE"
);
}
);
width = 625;
}
);
note = uni0206;
rightKerningGroup = AE;
unicode = 0206;
},
{
glyphname = Emacron;
lastChange = "2019-09-04 12:41:08 +0000";
layers = (
{
hints = (
{
horizontal = 1;
place = "{0, 83.58}";
type = Stem;
},
{
horizontal = 1;
place = "{345.75, 83.58}";
type = Stem;
},
{
horizontal = 1;
place = "{653.41, 83.59}";
type = Stem;
},
{
horizontal = 1;
place = "{794.25, 67.04}";
type = Stem;
},
{
place = "{86.66, 616.17}";
type = Stem;
}
);
layerId = "7AC970EF-486C-4FB8-91F6-C99015BB6A18";
paths = (
{
closed = 1;
nodes = (
"572.83 0 LINE",
"587.54 83.58 LINE",
"192.7 83.58 LINE",
"238.93 345.75 LINE",
"592 345.75 LINE",
"606.71 429.33 LINE",
"253.67 429.33 LINE",
"293.18 653.41 LINE",
"688.04 653.41 LINE",
"702.83 737 LINE",
"216.62 737 LINE",
"86.66 0 LINE"
);
},
{
closed = 1;
nodes = (
"647.33 794.25 LINE",
"659.25 861.29 LINE",
"305.83 861.29 LINE",
"293.91 794.25 LINE"
);
}
);
width = 625;
}
);
note = Emacron;
rightKerningGroup = AE;
unicode = 0112;
},
{
glyphname = Eogonek;
lastChange = "2019-09-04 12:41:08 +0000";
layers = (
{
hints = (
{
horizontal = 1;
place = "{-160.63, 61.59}";
type = Stem;
},
{
horizontal = 1;
place = "{0, 83.58}";
type = Stem;
},
{
horizontal = 1;
place = "{345.75, 83.58}";
type = Stem;
},
{
horizontal = 1;
place = "{653.41, 83.59}";
type = Stem;
},
{
place = "{86.66, 616.17}";
type = Stem;
}
);
layerId = "7AC970EF-486C-4FB8-91F6-C99015BB6A18";
paths = (
{
closed = 1;
nodes = (
"544.5 -160.63 LINE",
"555.37 -99.04 LINE",
"526.79 -99.04 LINE",
"506.46 -74.42 LINE",
"512.62 -39.88 LINE",
"572.83 0 LINE",
"587.54 83.58 LINE",
"192.7 83.58 LINE",
"238.93 345.75 LINE",
"592 345.75 LINE",
"606.71 429.33 LINE",
"253.67 429.33 LINE",
"293.18 653.41 LINE",
"688.04 653.41 LINE",
"702.83 737 LINE",
"216.62 737 LINE",
"86.66 0 LINE",
"499.93 0 LINE",
"456.58 -28.76 LINE",
"444.93 -95.05 LINE",
"498.78 -160.63 LINE"
);
}
);
width = 625;
}
);
note = Eogonek;
rightKerningGroup = AE;
unicode = 0118;
},
{
glyphname = uni1EBC;
lastChange = "2019-09-04 12:41:08 +0000";
layers = (
{
hints = (
{
horizontal = 1;
place = "{0, 83.58}";
type = Stem;
},
{
horizontal = 1;
place = "{345.75, 83.58}";
type = Stem;
},
{
horizontal = 1;
place = "{653.41, 83.59}";
type = Stem;
},
{
horizontal = 1;
place = "{863.91, 57.55}";
type = Stem;
},
{
place = "{86.66, 616.17}";
type = Stem;
},
{
horizontal = 1;
place = "{794.25, 57.54}";
type = Stem;
}
);
layerId = "7AC970EF-486C-4FB8-91F6-C99015BB6A18";
paths = (
{
closed = 1;
nodes = (
"572.83 0 LINE",
"587.54 83.58 LINE",
"192.7 83.58 LINE",
"238.93 345.75 LINE",
"592 345.75 LINE",
"606.71 429.33 LINE",
"253.67 429.33 LINE",
"293.18 653.41 LINE",
"688.04 653.41 LINE",
"702.83 737 LINE",
"216.62 737 LINE",
"86.66 0 LINE"
);
},
{
closed = 1;
nodes = (
"596.07 794.25 LINE",
"658.89 848.34 LINE",
"672.5 919.21 LINE",
"619.5 919.21 LINE",
"612.96 888.04 LINE",
"569.87 851.79 LINE",
"533.35 851.79 LINE",
"473.8 921.46 LINE",
"372.33 921.46 LINE",
"309.39 866.92 LINE",
"295.84 796.41 LINE",
"348.91 796.41 LINE",
"355.5 827.54 LINE",
"398.5 863.91 LINE",
"439.16 863.91 LINE",
"498.7 794.25 LINE"
);
}
);
width = 625;
}
);
note = uni1EBC;
rightKerningGroup = AE;
unicode = 1EBC;
},
{
glyphname = F;
lastChange = "2019-09-04 12:41:08 +0000";
layers = (
{
hints = (
{
horizontal = 1;
place = "{331.5, 83.58}";
type = Stem;
},
{
horizontal = 1;
place = "{653.41, 83.59}";
type = Stem;
},
{
place = "{86.66, 605.17}";
type = Stem;
}
);
layerId = "7AC970EF-486C-4FB8-91F6-C99015BB6A18";
paths = (
{
closed = 1;
nodes = (
"177.96 0 LINE",
"236.42 331.5 LINE",
"573.33 331.5 LINE",
"588.12 415.08 LINE",
"251.15 415.08 LINE",
"293.18 653.41 LINE",
"677.04 653.41 LINE",
"691.83 737 LINE",
"216.62 737 LINE",
"86.66 0 LINE"
);
}
);
width = 577;
}
);
note = F;
rightKerningGroup = F;
unicode = 0046;
},
{
glyphname = G;
lastChange = "2019-09-04 12:41:08 +0000";
layers = (
{
hints = (
{
horizontal = 1;
place = "{0, 80.58}";
type = Stem;
},
{
horizontal = 1;
place = "{306.5, 80.66}";
type = Stem;
},
{
horizontal = 1;
place = "{656.25, 80.71}";
type = Stem;
},
{
place = "{88.81, 645.14}";
type = Stem;
}
);
layerId = "7AC970EF-486C-4FB8-91F6-C99015BB6A18";
paths = (
{
closed = 1;
nodes = (
"458.82 0 LINE",
"564.13 84.28 LINE",
"549.26 0 LINE",
"625.51 0 LINE",
"693.8 387.16 LINE",
"447.72 387.16 LINE",
"433.51 306.5 LINE",
"603.34 306.5 LINE",
"583.41 193.53 LINE",
"442.68 80.66 LINE",
"228.26 80.5 LINE",
"183.51 135.66 LINE",
"265.26 601.33 LINE",
"329.76 656.16 LINE",
"602.97 656.33 LINE",
"669.18 576.41 LINE",
"733.95 632.02 LINE",
"648.14 736.91 LINE",
"291.86 737 LINE",
"181.95 643.37 LINE",
"88.81 115.1 LINE",
"183.27 0 LINE"
);
}
);
width = 711;
}
);
leftKerningGroup = C;
note = G;
rightKerningGroup = G;
unicode = 0047;
},
{
glyphname = Gbreve;
lastChange = "2019-09-04 12:41:08 +0000";
layers = (
{
hints = (
{
horizontal = 1;
place = "{0, 80.58}";
type = Stem;
},
{
horizontal = 1;
place = "{306.5, 80.66}";
type = Stem;
},
{
horizontal = 1;
place = "{656.25, 80.71}";
type = Stem;
},
{
horizontal = 1;
place = "{794.22, 58.99}";
type = Stem;
},
{
place = "{88.81, 645.14}";
type = Stem;
},
{
horizontal = 1;
place = "{878.91, 49.5}";
type = Stem;
}
);
layerId = "7AC970EF-486C-4FB8-91F6-C99015BB6A18";
paths = (
{
closed = 1;
nodes = (
"458.82 0 LINE",
"564.13 84.28 LINE",
"549.26 0 LINE",
"625.51 0 LINE",
"693.8 387.16 LINE",
"447.72 387.16 LINE",
"433.51 306.5 LINE",
"603.34 306.5 LINE",
"583.41 193.53 LINE",
"442.68 80.66 LINE",
"228.26 80.5 LINE",
"183.51 135.66 LINE",
"265.26 601.33 LINE",
"329.76 656.16 LINE",
"602.97 656.33 LINE",
"669.18 576.41 LINE",
"733.95 632.02 LINE",
"648.14 736.91 LINE",
"291.86 737 LINE",
"181.95 643.37 LINE",
"88.81 115.1 LINE",
"183.27 0 LINE"
);
},
{
closed = 1;
nodes = (
"554.4 794.25 LINE",
"619.36 849.18 LINE",
"633.39 928.41 LINE",
"572.8 928.41 LINE",
"564.05 878.91 LINE",
"533.89 853.21 LINE",
"430.47 853.21 LINE",
"409.39 878.91 LINE",
"418.14 928.41 LINE",
"357.55 928.41 LINE",
"346.06 863.31 LINE",
"403.64 794.19 LINE"
);
}
);
width = 711;
}
);
leftKerningGroup = C;
note = Gbreve;
rightKerningGroup = G;
unicode = 011E;
},
{
glyphname = Gcaron;
lastChange = "2019-09-04 12:41:08 +0000";
layers = (
{
hints = (
{
horizontal = 1;
place = "{0, 80.58}";
type = Stem;
},
{
horizontal = 1;
place = "{306.5, 80.66}";
type = Stem;
},
{
horizontal = 1;
place = "{656.25, 80.71}";
type = Stem;
},
{
horizontal = 1;
place = "{794.25, 141.16}";
type = Stem;
},
{
place = "{88.81, 645.14}";
type = Stem;
}
);
layerId = "7AC970EF-486C-4FB8-91F6-C99015BB6A18";
paths = (
{
closed = 1;
nodes = (
"458.82 0 LINE",
"564.13 84.28 LINE",
"549.26 0 LINE",
"625.51 0 LINE",
"693.8 387.16 LINE",
"447.72 387.16 LINE",
"433.51 306.5 LINE",
"603.34 306.5 LINE",
"583.41 193.53 LINE",
"442.68 80.66 LINE",
"228.26 80.5 LINE",
"183.51 135.66 LINE",
"265.26 601.33 LINE",
"329.76 656.16 LINE",
"602.97 656.33 LINE",
"669.18 576.41 LINE",
"733.95 632.02 LINE",
"648.14 736.91 LINE",
"291.86 737 LINE",
"181.95 643.37 LINE",
"88.81 115.1 LINE",
"183.27 0 LINE"
);
},
{
closed = 1;
nodes = (
"525.5 794.25 LINE",
"650.39 935.41 LINE",
"571.55 935.41 LINE",
"479.59 850.79 LINE",
"473.75 850.79 LINE",
"411.63 935.41 LINE",
"340.12 935.41 LINE",
"424.14 794.25 LINE"
);
}
);
width = 711;
}
);
leftKerningGroup = C;
note = Gcaron;
rightKerningGroup = G;
unicode = 01E6;
},
{
glyphname = Gcircumflex;
lastChange = "2019-09-04 12:41:08 +0000";
layers = (
{
hints = (
{
horizontal = 1;
place = "{0, 80.58}";
type = Stem;
},
{
horizontal = 1;
place = "{306.5, 80.66}";
type = Stem;
},
{
horizontal = 1;
place = "{656.25, 80.71}";
type = Stem;
},
{
horizontal = 1;
place = "{794.25, 141.16}";
type = Stem;
},
{
place = "{88.81, 645.14}";
type = Stem;
}
);
layerId = "7AC970EF-486C-4FB8-91F6-C99015BB6A18";
paths = (
{
closed = 1;
nodes = (
"458.82 0 LINE",
"564.13 84.28 LINE",
"549.26 0 LINE",
"625.51 0 LINE",
"693.8 387.16 LINE",
"447.72 387.16 LINE",
"433.51 306.5 LINE",
"603.34 306.5 LINE",
"583.41 193.53 LINE",
"442.68 80.66 LINE",
"228.26 80.5 LINE",
"183.51 135.66 LINE",
"265.26 601.33 LINE",
"329.76 656.16 LINE",
"602.97 656.33 LINE",
"669.18 576.41 LINE",
"733.95 632.02 LINE",
"648.14 736.91 LINE",
"291.86 737 LINE",
"181.95 643.37 LINE",
"88.81 115.1 LINE",
"183.27 0 LINE"
);
},
{
closed = 1;
nodes = (
"397.8 794.25 LINE",
"489.76 878.87 LINE",
"495.59 878.87 LINE",
"557.72 794.25 LINE",
"629.23 794.25 LINE",
"545.21 935.41 LINE",
"443.85 935.41 LINE",
"318.96 794.25 LINE"
);
}
);
width = 711;
}
);
leftKerningGroup = C;
note = Gcircumflex;
rightKerningGroup = G;
unicode = 011C;
},
{
glyphname = uni0122;
lastChange = "2019-09-04 12:41:08 +0000";
layers = (
{
hints = (
{
horizontal = 1;
place = "{-232.09, 174.84}";
type = Stem;
},
{
horizontal = 1;
place = "{0, 80.58}";
type = Stem;
},
{
horizontal = 1;
place = "{306.5, 80.66}";
type = Stem;
},
{
horizontal = 1;
place = "{656.25, 80.71}";
type = Stem;
},
{
place = "{88.81, 645.14}";
type = Stem;
}
);
layerId = "7AC970EF-486C-4FB8-91F6-C99015BB6A18";
paths = (
{
closed = 1;
nodes = (
"458.82 0 LINE",
"564.13 84.28 LINE",
"549.26 0 LINE",
"625.51 0 LINE",
"693.8 387.16 LINE",
"447.72 387.16 LINE",
"433.51 306.5 LINE",
"603.34 306.5 LINE",
"583.41 193.53 LINE",
"442.68 80.66 LINE",
"228.26 80.5 LINE",
"183.51 135.66 LINE",
"265.26 601.33 LINE",
"329.76 656.16 LINE",
"602.97 656.33 LINE",
"669.18 576.41 LINE",
"733.95 632.02 LINE",
"648.14 736.91 LINE",
"291.86 737 LINE",
"181.95 643.37 LINE",
"88.81 115.1 LINE",
"183.27 0 LINE"
);
},
{
closed = 1;
nodes = (
"260.61 -232.09 LINE",
"373.21 -57.25 LINE",
"277.3 -57.25 LINE",
"206.93 -232.09 LINE"
);
}
);
width = 711;
}
);
leftKerningGroup = C;
note = uni0122;
rightKerningGroup = G;
unicode = 0122;
},
{
glyphname = Gdotaccent;
lastChange = "2019-09-04 12:41:08 +0000";
layers = (
{
hints = (
{
horizontal = 1;
place = "{0, 80.58}";
type = Stem;
},
{
horizontal = 1;
place = "{306.5, 80.66}";
type = Stem;
},
{
horizontal = 1;
place = "{656.25, 80.71}";
type = Stem;
},
{
horizontal = 1;
place = "{794.25, 118.04}";
type = Stem;
},
{
place = "{88.81, 645.14}";
type = Stem;
}
);
layerId = "7AC970EF-486C-4FB8-91F6-C99015BB6A18";
paths = (
{
closed = 1;
nodes = (
"458.82 0 LINE",
"564.13 84.28 LINE",
"549.26 0 LINE",
"625.51 0 LINE",
"693.8 387.16 LINE",
"447.72 387.16 LINE",
"433.51 306.5 LINE",
"603.34 306.5 LINE",
"583.41 193.53 LINE",
"442.68 80.66 LINE",
"228.26 80.5 LINE",
"183.51 135.66 LINE",
"265.26 601.33 LINE",
"329.76 656.16 LINE",
"602.97 656.33 LINE",
"669.18 576.41 LINE",
"733.95 632.02 LINE",
"648.14 736.91 LINE",
"291.86 737 LINE",
"181.95 643.37 LINE",
"88.81 115.1 LINE",
"183.27 0 LINE"
);
},
{
closed = 1;
nodes = (
"522.43 794.25 LINE",
"543.26 912.29 LINE",
"455.26 912.29 LINE",
"434.43 794.25 LINE"
);
}
);
width = 711;
}
);
leftKerningGroup = C;
note = Gdotaccent;
rightKerningGroup = G;
unicode = 0120;
},
{
glyphname = H;
lastChange = "2019-09-04 12:41:08 +0000";
layers = (
{
hints = (
{
horizontal = 1;
place = "{347.25, 80.66}";
type = Stem;
},
{
place = "{86.66, 677.34}";
type = Stem;
}
);
layerId = "7AC970EF-486C-4FB8-91F6-C99015BB6A18";
paths = (
{
closed = 1;
nodes = (
"177.96 0 LINE",
"239.19 347.25 LINE",
"603.98 347.25 LINE",
"542.75 0 LINE",
"634.05 0 LINE",
"764 737 LINE",
"672.7 737 LINE",
"618.2 427.91 LINE",
"253.42 427.91 LINE",
"307.92 737 LINE",
"216.62 737 LINE",
"86.66 0 LINE"
);
}
);
width = 720;
}
);
leftKerningGroup = B;
note = H;
rightKerningGroup = H;
unicode = 0048;
},
{
glyphname = Hbar;
lastChange = "2019-09-04 12:41:08 +0000";
layers = (
{
hints = (
{
horizontal = 1;
place = "{347.25, 80.66}";
type = Stem;
},
{
horizontal = 1;
place = "{546.5, 73.33}";
type = Stem;
},
{
place = "{86.58, 721.63}";
type = Stem;
}
);
layerId = "7AC970EF-486C-4FB8-91F6-C99015BB6A18";
paths = (
{
closed = 1;
nodes = (
"177.88 0 LINE",
"239.11 347.25 LINE",
"603.89 347.25 LINE",
"542.66 0 LINE",
"633.96 0 LINE",
"730.33 546.5 LINE",
"795.25 546.5 LINE",
"808.21 619.83 LINE",
"743.26 619.83 LINE",
"763.92 737 LINE",
"672.62 737 LINE",
"651.96 619.83 LINE",
"287.17 619.83 LINE",
"307.83 737 LINE",
"216.53 737 LINE",
"195.87 619.83 LINE",
"128.66 619.83 LINE",
"115.71 546.5 LINE",
"182.94 546.5 LINE",
"86.58 0 LINE"
);
},
{
closed = 1;
nodes = (
"274.24 546.5 LINE",
"639.03 546.5 LINE",
"618.12 427.91 LINE",
"253.33 427.91 LINE"
);
}
);
width = 720;
}
);
note = Hbar;
unicode = 0126;
},
{
glyphname = Hcircumflex;
lastChange = "2019-09-04 12:41:08 +0000";
layers = (
{
hints = (
{
horizontal = 1;
place = "{347.25, 80.66}";
type = Stem;
},
{
horizontal = 1;
place = "{794.25, 141.16}";
type = Stem;
},
{
place = "{86.66, 677.34}";
type = Stem;
}
);
layerId = "7AC970EF-486C-4FB8-91F6-C99015BB6A18";
paths = (
{
closed = 1;
nodes = (
"177.96 0 LINE",
"239.19 347.25 LINE",
"603.98 347.25 LINE",
"542.75 0 LINE",
"634.05 0 LINE",
"764 737 LINE",
"672.7 737 LINE",
"618.2 427.91 LINE",
"253.42 427.91 LINE",
"307.92 737 LINE",
"216.62 737 LINE",
"86.66 0 LINE"
);
},
{
closed = 1;
nodes = (
"421.79 794.25 LINE",
"513.75 878.87 LINE",
"519.58 878.87 LINE",
"581.71 794.25 LINE",
"653.22 794.25 LINE",
"569.19 935.41 LINE",
"467.83 935.41 LINE",
"342.95 794.25 LINE"
);
}
);
width = 720;
}
);
leftKerningGroup = B;
note = Hcircumflex;
rightKerningGroup = H;
unicode = 0124;
},
{
glyphname = I;
lastChange = "2019-09-04 12:41:08 +0000";
layers = (
{
hints = (
{
horizontal = 1;
place = "{0, 83.58}";
type = Stem;
},
{
horizontal = 1;
place = "{653.41, 83.59}";
type = Stem;
},
{
place = "{61.66, 401.34}";
type = Stem;
}
);
layerId = "7AC970EF-486C-4FB8-91F6-C99015BB6A18";
paths = (
{
closed = 1;
nodes = (
"333 0 LINE",
"347.71 83.58 LINE",
"257.87 83.58 LINE",
"358.35 653.41 LINE",
"448.21 653.41 LINE",
"463 737 LINE",
"191.66 737 LINE",
"176.87 653.41 LINE",
"267.05 653.41 LINE",
"166.57 83.58 LINE",
"76.37 83.58 LINE",
"61.66 0 LINE"
);
}
);
width = 395;
}
);
leftKerningGroup = B;
note = I;
rightKerningGroup = H;
unicode = 0049;
},
{
glyphname = Iacute;
lastChange = "2019-09-04 12:41:08 +0000";
layers = (
{
hints = (
{
horizontal = 1;
place = "{0, 83.58}";
type = Stem;
},
{
horizontal = 1;
place = "{653.41, 83.59}";
type = Stem;
},
{
horizontal = 1;
place = "{794.25, 148.83}";
type = Stem;
},
{
place = "{61.66, 475.52}";
type = Stem;
}
);
layerId = "7AC970EF-486C-4FB8-91F6-C99015BB6A18";
paths = (
{
closed = 1;
nodes = (
"333 0 LINE",
"347.71 83.58 LINE",
"257.87 83.58 LINE",
"358.35 653.41 LINE",
"448.21 653.41 LINE",
"463 737 LINE",
"191.66 737 LINE",
"176.87 653.41 LINE",
"267.05 653.41 LINE",
"166.57 83.58 LINE",
"76.37 83.58 LINE",
"61.66 0 LINE"
);
},
{
closed = 1;
nodes = (
"380.02 794.25 LINE",
"537.18 943.08 LINE",
"418.84 943.08 LINE",
"296.84 794.25 LINE"
);
}
);
width = 395;
}
);
leftKerningGroup = B;
note = Iacute;
rightKerningGroup = H;
unicode = 00CD;
},
{
glyphname = Ibreve;
lastChange = "2019-09-04 12:41:08 +0000";
layers = (
{
hints = (
{
horizontal = 1;
place = "{0, 83.58}";
type = Stem;
},
{
horizontal = 1;
place = "{653.41, 83.59}";
type = Stem;
},
{
horizontal = 1;
place = "{794.22, 58.99}";
type = Stem;
},
{
place = "{61.66, 430.72}";
type = Stem;
},
{
horizontal = 1;
place = "{878.91, 49.5}";
type = Stem;
}
);
layerId = "7AC970EF-486C-4FB8-91F6-C99015BB6A18";
paths = (
{
closed = 1;
nodes = (
"333 0 LINE",
"347.71 83.58 LINE",
"257.87 83.58 LINE",
"358.35 653.41 LINE",
"448.21 653.41 LINE",
"463 737 LINE",
"191.66 737 LINE",
"176.87 653.41 LINE",
"267.05 653.41 LINE",
"166.57 83.58 LINE",
"76.37 83.58 LINE",
"61.66 0 LINE"
);
},
{
closed = 1;
nodes = (
"413.39 794.25 LINE",
"478.36 849.18 LINE",
"492.38 928.41 LINE",
"431.8 928.41 LINE",
"423.05 878.91 LINE",
"392.88 853.21 LINE",
"289.46 853.21 LINE",
"268.38 878.91 LINE",
"277.13 928.41 LINE",
"216.55 928.41 LINE",
"205.06 863.31 LINE",
"262.64 794.19 LINE"
);
}
);
width = 395;
}
);
leftKerningGroup = B;
note = Ibreve;
rightKerningGroup = H;
unicode = 012C;
},
{
glyphname = Icircumflex;
lastChange = "2019-09-04 12:41:08 +0000";
layers = (
{
hints = (
{
horizontal = 1;
place = "{0, 83.58}";
type = Stem;
},
{
horizontal = 1;
place = "{653.41, 83.59}";
type = Stem;
},
{
horizontal = 1;
place = "{794.25, 141.16}";
type = Stem;
},
{
place = "{61.66, 426.56}";
type = Stem;
}
);
layerId = "7AC970EF-486C-4FB8-91F6-C99015BB6A18";
paths = (
{
closed = 1;
nodes = (
"333 0 LINE",
"347.71 83.58 LINE",
"257.87 83.58 LINE",
"358.35 653.41 LINE",
"448.21 653.41 LINE",
"463 737 LINE",
"191.66 737 LINE",
"176.87 653.41 LINE",
"267.05 653.41 LINE",
"166.57 83.58 LINE",
"76.37 83.58 LINE",
"61.66 0 LINE"
);
},
{
closed = 1;
nodes = (
"256.8 794.25 LINE",
"348.76 878.87 LINE",
"354.59 878.87 LINE",
"416.71 794.25 LINE",
"488.22 794.25 LINE",
"404.2 935.41 LINE",
"302.84 935.41 LINE",
"177.96 794.25 LINE"
);
}
);
width = 395;
}
);
leftKerningGroup = B;
note = Icircumflex;
rightKerningGroup = H;
unicode = 00CE;
},
{
glyphname = uni0208;
lastChange = "2019-09-04 12:41:08 +0000";
layers = (
{
hints = (
{
horizontal = 1;
place = "{0, 83.58}";
type = Stem;
},
{
horizontal = 1;
place = "{653.41, 83.59}";
type = Stem;
},
{
horizontal = 1;
place = "{794.25, 148.83}";
type = Stem;
},
{
place = "{61.66, 401.34}";
type = Stem;
}
);
layerId = "7AC970EF-486C-4FB8-91F6-C99015BB6A18";
paths = (
{
closed = 1;
nodes = (
"333 0 LINE",
"347.71 83.58 LINE",
"257.87 83.58 LINE",
"358.35 653.41 LINE",
"448.21 653.41 LINE",
"463 737 LINE",
"191.66 737 LINE",
"176.87 653.41 LINE",
"267.05 653.41 LINE",
"166.57 83.58 LINE",
"76.37 83.58 LINE",
"61.66 0 LINE"
);
},
{
closed = 1;
nodes = (
"274.97 794.25 LINE",
"205.54 943.08 LINE",
"99.83 943.08 LINE",
"203.05 794.25 LINE"
);
},
{
closed = 1;
nodes = (
"441.17 794.25 LINE",
"371.75 943.08 LINE",
"266.04 943.08 LINE",
"369.26 794.25 LINE"
);
}
);
width = 395;
}
);
leftKerningGroup = B;
note = uni0208;
rightKerningGroup = H;
unicode = 0208;
},
{
glyphname = Idieresis;
lastChange = "2019-09-04 12:41:08 +0000";
layers = (
{
hints = (
{
horizontal = 1;
place = "{0, 83.58}";
type = Stem;
},
{
horizontal = 1;
place = "{653.41, 83.59}";
type = Stem;
},
{
horizontal = 1;
place = "{794.25, 118.16}";
type = Stem;
},
{
place = "{61.66, 471.97}";
type = Stem;
}
);
layerId = "7AC970EF-486C-4FB8-91F6-C99015BB6A18";
paths = (
{
closed = 1;
nodes = (
"333 0 LINE",
"347.71 83.58 LINE",
"257.87 83.58 LINE",
"358.35 653.41 LINE",
"448.21 653.41 LINE",
"463 737 LINE",
"191.66 737 LINE",
"176.87 653.41 LINE",
"267.05 653.41 LINE",
"166.57 83.58 LINE",
"76.37 83.58 LINE",
"61.66 0 LINE"
);
},
{
closed = 1;
nodes = (
"247.38 794.25 LINE",
"268.21 912.41 LINE",
"180.21 912.41 LINE",
"159.38 794.25 LINE"
);
},
{
closed = 1;
nodes = (
"512.8 794.25 LINE",
"533.63 912.41 LINE",
"445.63 912.41 LINE",
"424.8 794.25 LINE"
);
}
);
width = 395;
}
);
leftKerningGroup = B;
note = Idieresis;
rightKerningGroup = H;
unicode = 00CF;
},
{
glyphname = Idotaccent;
lastChange = "2019-09-04 12:41:08 +0000";
layers = (
{
hints = (
{
horizontal = 1;
place = "{0, 83.58}";
type = Stem;
},
{
horizontal = 1;
place = "{653.41, 83.59}";
type = Stem;
},
{
horizontal = 1;
place = "{794.25, 118.04}";
type = Stem;
},
{
place = "{61.66, 401.34}";
type = Stem;
}
);
layerId = "7AC970EF-486C-4FB8-91F6-C99015BB6A18";
paths = (
{
closed = 1;
nodes = (
"333 0 LINE",
"347.71 83.58 LINE",
"257.87 83.58 LINE",
"358.35 653.41 LINE",
"448.21 653.41 LINE",
"463 737 LINE",
"191.66 737 LINE",
"176.87 653.41 LINE",
"267.05 653.41 LINE",
"166.57 83.58 LINE",
"76.37 83.58 LINE",
"61.66 0 LINE"
);
},
{
closed = 1;
nodes = (
"381.42 794.25 LINE",
"402.26 912.29 LINE",
"314.26 912.29 LINE",
"293.42 794.25 LINE"
);
}
);
width = 395;
}
);
leftKerningGroup = B;
note = Idotaccent;
rightKerningGroup = H;
unicode = 0130;
},
{
glyphname = uni1ECA;
lastChange = "2019-09-04 12:41:08 +0000";
layers = (
{
hints = (
{
horizontal = 1;
place = "{-175.29, 118.04}";
type = Stem;
},
{
horizontal = 1;
place = "{0, 83.58}";
type = Stem;
},
{
horizontal = 1;
place = "{653.41, 83.59}";
type = Stem;
},
{
place = "{61.66, 401.34}";
type = Stem;
}
);
layerId = "7AC970EF-486C-4FB8-91F6-C99015BB6A18";
paths = (
{
closed = 1;
nodes = (
"333 0 LINE",
"347.71 83.58 LINE",
"257.87 83.58 LINE",
"358.35 653.41 LINE",
"448.21 653.41 LINE",
"463 737 LINE",
"191.66 737 LINE",
"176.87 653.41 LINE",
"267.05 653.41 LINE",
"166.57 83.58 LINE",
"76.37 83.58 LINE",
"61.66 0 LINE"
);
},
{
closed = 1;
nodes = (
"211.28 -175.29 LINE",
"232.11 -57.25 LINE",
"144.11 -57.25 LINE",
"123.28 -175.29 LINE"
);
}
);
width = 395;
}
);
leftKerningGroup = B;
note = uni1ECA;
rightKerningGroup = H;
unicode = 1ECA;
},
{
glyphname = Igrave;
lastChange = "2019-09-04 12:41:08 +0000";
layers = (
{
hints = (
{
horizontal = 1;
place = "{0, 83.58}";
type = Stem;
},
{
horizontal = 1;
place = "{653.41, 83.59}";
type = Stem;
},
{
horizontal = 1;
place = "{794.25, 148.83}";
type = Stem;
},
{
place = "{61.66, 401.34}";
type = Stem;
}
);
layerId = "7AC970EF-486C-4FB8-91F6-C99015BB6A18";
paths = (
{
closed = 1;
nodes = (
"333 0 LINE",
"347.71 83.58 LINE",
"257.87 83.58 LINE",
"358.35 653.41 LINE",
"448.21 653.41 LINE",
"463 737 LINE",
"191.66 737 LINE",
"176.87 653.41 LINE",
"267.05 653.41 LINE",
"166.57 83.58 LINE",
"76.37 83.58 LINE",
"61.66 0 LINE"
);
},
{
closed = 1;
nodes = (
"354.95 794.25 LINE",
"285.53 943.08 LINE",
"179.82 943.08 LINE",
"283.04 794.25 LINE"
);
}
);
width = 395;
}
);
leftKerningGroup = B;
note = Igrave;
rightKerningGroup = H;
unicode = 00CC;
},
{
glyphname = uni1EC8;
lastChange = "2019-09-04 12:41:08 +0000";
layers = (
{
hints = (
{
horizontal = 1;
place = "{0, 83.58}";
type = Stem;
},
{
horizontal = 1;
place = "{653.41, 83.59}";
type = Stem;
},
{
horizontal = 1;
place = "{946.33, 54.54}";
type = Stem;
},
{
place = "{61.66, 401.34}";
type = Stem;
}
);
layerId = "7AC970EF-486C-4FB8-91F6-C99015BB6A18";
paths = (
{
closed = 1;
nodes = (
"333 0 LINE",
"347.71 83.58 LINE",
"257.87 83.58 LINE",
"358.35 653.41 LINE",
"448.21 653.41 LINE",
"463 737 LINE",
"191.66 737 LINE",
"176.87 653.41 LINE",
"267.05 653.41 LINE",
"166.57 83.58 LINE",
"76.37 83.58 LINE",
"61.66 0 LINE"
);
},
{
closed = 1;
nodes = (
"364.92 794.25 LINE",
"369.79 821.58 LINE",
"450.35 879.55 LINE",
"462.59 948.94 LINE",
"421.01 1000.87 LINE",
"318.51 1000.87 LINE",
"267.53 957.14 LINE",
"305.3 911.46 LINE",
"346.01 946.33 LINE",
"384.81 946.33 LINE",
"394.61 934.04 LINE",
"390.21 909.37 LINE",
"314.55 852.58 LINE",
"304.21 794.25 LINE"
);
}
);
width = 395;
}
);
leftKerningGroup = B;
note = uni1EC8;
rightKerningGroup = H;
unicode = 1EC8;
},
{
glyphname = uni020A;
lastChange = "2019-09-04 12:41:08 +0000";
layers = (
{
hints = (
{
horizontal = 1;
place = "{0, 83.58}";
type = Stem;
},
{
horizontal = 1;
place = "{653.41, 83.59}";
type = Stem;
},
{
horizontal = 1;
place = "{869.37, 59.04}";
type = Stem;
},
{
place = "{61.66, 423.74}";
type = Stem;
}
);
layerId = "7AC970EF-486C-4FB8-91F6-C99015BB6A18";
paths = (
{
closed = 1;
nodes = (
"333 0 LINE",
"347.71 83.58 LINE",
"257.87 83.58 LINE",
"358.35 653.41 LINE",
"448.21 653.41 LINE",
"463 737 LINE",
"191.66 737 LINE",
"176.87 653.41 LINE",
"267.05 653.41 LINE",
"166.57 83.58 LINE",
"76.37 83.58 LINE",
"61.66 0 LINE"
);
},
{
closed = 1;
nodes = (
"258.76 794.25 LINE",
"267.51 843.75 LINE",
"297.67 869.37 LINE",
"401.09 869.37 LINE",
"422.17 843.75 LINE",
"413.42 794.25 LINE",
"474.01 794.25 LINE",
"485.4 858.52 LINE",
"428.17 928.41 LINE",
"277.2 928.41 LINE",
"212.16 873.31 LINE",
"198.17 794.25 LINE"
);
}
);
width = 395;
}
);
leftKerningGroup = B;
note = uni020A;
rightKerningGroup = H;
unicode = 020A;
},
{
glyphname = Imacron;
lastChange = "2019-09-04 12:41:08 +0000";
layers = (
{
hints = (
{
horizontal = 1;
place = "{0, 83.58}";
type = Stem;
},
{
horizontal = 1;
place = "{653.41, 83.59}";
type = Stem;
},
{
horizontal = 1;
place = "{794.25, 67.04}";
type = Stem;
},
{
place = "{61.66, 464.39}";
type = Stem;
}
);
layerId = "7AC970EF-486C-4FB8-91F6-C99015BB6A18";
paths = (
{
closed = 1;
nodes = (
"333 0 LINE",
"347.71 83.58 LINE",
"257.87 83.58 LINE",
"358.35 653.41 LINE",
"448.21 653.41 LINE",
"463 737 LINE",
"191.66 737 LINE",
"176.87 653.41 LINE",
"267.05 653.41 LINE",
"166.57 83.58 LINE",
"76.37 83.58 LINE",
"61.66 0 LINE"
);
},
{
closed = 1;
nodes = (
"514.13 794.25 LINE",
"526.05 861.29 LINE",
"172.63 861.29 LINE",
"160.71 794.25 LINE"
);
}
);
width = 395;
}
);
leftKerningGroup = B;
note = Imacron;
rightKerningGroup = H;
unicode = 012A;
},
{
glyphname = Iogonek;
lastChange = "2019-09-04 12:41:08 +0000";
layers = (
{
hints = (
{
horizontal = 1;
place = "{-160.63, 61.59}";
type = Stem;
},
{
horizontal = 1;
place = "{0, 83.58}";
type = Stem;
},
{
horizontal = 1;
place = "{653.41, 83.59}";
type = Stem;
},
{
place = "{61.66, 401.34}";
type = Stem;
}
);
layerId = "7AC970EF-486C-4FB8-91F6-C99015BB6A18";
paths = (
{
closed = 1;
nodes = (
"304.66 -160.63 LINE",
"315.54 -99.04 LINE",
"286.96 -99.04 LINE",
"266.62 -74.42 LINE",
"272.79 -39.88 LINE",
"333 0 LINE",
"347.71 83.58 LINE",
"257.87 83.58 LINE",
"358.35 653.41 LINE",
"448.21 653.41 LINE",
"463 737 LINE",
"191.66 737 LINE",
"176.87 653.41 LINE",
"267.05 653.41 LINE",
"166.57 83.58 LINE",
"76.37 83.58 LINE",
"61.66 0 LINE",
"260.1 0 LINE",
"216.74 -28.76 LINE",
"205.1 -95.05 LINE",
"258.95 -160.63 LINE"
);
}
);
width = 395;
}
);
leftKerningGroup = B;
note = Iogonek;
rightKerningGroup = H;
unicode = 012E;
},
{
glyphname = Itilde;
lastChange = "2019-09-04 12:41:08 +0000";
layers = (
{
hints = (
{
horizontal = 1;
place = "{0, 83.58}";
type = Stem;
},
{
horizontal = 1;
place = "{653.41, 83.59}";
type = Stem;
},
{
horizontal = 1;
place = "{794.25, 57.54}";
type = Stem;
},
{
horizontal = 1;
place = "{863.91, 57.55}";
type = Stem;
},
{
place = "{61.66, 477.64}";
type = Stem;
}
);
layerId = "7AC970EF-486C-4FB8-91F6-C99015BB6A18";
paths = (
{
closed = 1;
nodes = (
"333 0 LINE",
"347.71 83.58 LINE",
"257.87 83.58 LINE",
"358.35 653.41 LINE",
"448.21 653.41 LINE",
"463 737 LINE",
"191.66 737 LINE",
"176.87 653.41 LINE",
"267.05 653.41 LINE",
"166.57 83.58 LINE",
"76.37 83.58 LINE",
"61.66 0 LINE"
);
},
{
closed = 1;
nodes = (
"462.87 794.25 LINE",
"525.68 848.34 LINE",
"539.3 919.21 LINE",
"486.3 919.21 LINE",
"479.76 888.04 LINE",
"436.67 851.79 LINE",
"400.15 851.79 LINE",
"340.6 921.46 LINE",
"239.13 921.46 LINE",
"176.19 866.92 LINE",
"162.64 796.41 LINE",
"215.71 796.41 LINE",
"222.3 827.54 LINE",
"265.3 863.91 LINE",
"305.96 863.91 LINE",
"365.5 794.25 LINE"
);
}
);
width = 395;
}
);
leftKerningGroup = B;
note = Itilde;
rightKerningGroup = H;
unicode = 0128;
},
{
glyphname = J;
lastChange = "2019-09-04 12:41:08 +0000";
layers = (
{
hints = (
{
horizontal = 1;
place = "{-0.04, 80.67}";
type = Stem;
},
{
place = "{60.34, 550.37}";
type = Stem;
}
);
layerId = "7AC970EF-486C-4FB8-91F6-C99015BB6A18";
paths = (
{
closed = 1;
nodes = (
"497.16 93.63 LINE",
"610.71 737 LINE",
"519.79 737 LINE",
"413.87 135.66 LINE",
"349.37 80.75 LINE",
"199.79 80.5 LINE",
"155.04 135.66 LINE",
"179.21 273.54 LINE",
"88.29 273.54 LINE",
"60.34 115.09 LINE",
"154.8 0 LINE",
"387.38 -0.09 LINE"
);
}
);
width = 577;
}
);
leftKerningGroup = J;
note = J;
unicode = 004A;
},
{
glyphname = Jcircumflex;
lastChange = "2019-09-04 12:41:08 +0000";
layers = (
{
hints = (
{
horizontal = 1;
place = "{-0.04, 80.67}";
type = Stem;
},
{
horizontal = 1;
place = "{794.25, 141.16}";
type = Stem;
},
{
place = "{60.34, 664.14}";
type = Stem;
}
);
layerId = "7AC970EF-486C-4FB8-91F6-C99015BB6A18";
paths = (
{
closed = 1;
nodes = (
"497.16 93.63 LINE",
"610.71 737 LINE",
"519.79 737 LINE",
"413.87 135.66 LINE",
"349.37 80.75 LINE",
"199.79 80.5 LINE",
"155.04 135.66 LINE",
"179.21 273.54 LINE",
"88.29 273.54 LINE",
"60.34 115.09 LINE",
"154.8 0 LINE",
"387.38 -0.09 LINE"
);
},
{
closed = 1;
nodes = (
"493.05 794.25 LINE",
"585.01 878.87 LINE",
"590.84 878.87 LINE",
"652.97 794.25 LINE",
"724.48 794.25 LINE",
"640.46 935.41 LINE",
"539.09 935.41 LINE",
"414.21 794.25 LINE"
);
}
);
width = 577;
}
);
note = Jcircumflex;
unicode = 0134;
},
{
glyphname = K;
lastChange = "2019-09-04 12:41:08 +0000";
layers = (
{
hints = (
{
horizontal = 1;
place = "{0, 737.01}";
type = Stem;
},
{
place = "{86.66, 686.07}";
type = Stem;
}
);
layerId = "7AC970EF-486C-4FB8-91F6-C99015BB6A18";
paths = (
{
closed = 1;
nodes = (
"177.96 0 LINE",
"213.78 203.12 LINE",
"360.32 343.08 LINE",
"530.16 0 LINE",
"631.61 0 LINE",
"430.08 409.73 LINE",
"772.73 737 LINE",
"655.5 737 LINE",
"257.33 362.29 LINE",
"241.85 362.29 LINE",
"307.92 737 LINE",
"216.62 737 LINE",
"86.66 0 LINE"
);
}
);
width = 656;
}
);
leftKerningGroup = B;
note = K;
rightKerningGroup = K;
unicode = 004B;
},
{
glyphname = uni0136;
lastChange = "2019-09-04 12:41:08 +0000";
layers = (
{
hints = (
{
horizontal = 1;
place = "{-232.09, 174.84}";
type = Stem;
},
{
place = "{86.66, 686.07}";
type = Stem;
}
);
layerId = "7AC970EF-486C-4FB8-91F6-C99015BB6A18";
paths = (
{
closed = 1;
nodes = (
"177.96 0 LINE",
"213.78 203.12 LINE",
"360.32 343.08 LINE",
"530.16 0 LINE",
"631.61 0 LINE",
"430.08 409.73 LINE",
"772.73 737 LINE",
"655.5 737 LINE",
"257.33 362.29 LINE",
"241.85 362.29 LINE",
"307.92 737 LINE",
"216.62 737 LINE",
"86.66 0 LINE"
);
},
{
closed = 1;
nodes = (
"286.63 -232.08 LINE",
"399.24 -57.24 LINE",
"303.33 -57.24 LINE",
"232.95 -232.08 LINE"
);
}
);
width = 656;
}
);
leftKerningGroup = B;
note = uni0136;
rightKerningGroup = K;
unicode = 0136;
},
{
glyphname = L;
lastChange = "2019-09-04 12:41:08 +0000";
layers = (
{
hints = (
{
horizontal = 1;
place = "{0, 83.58}";
type = Stem;
},
{
place = "{86.66, 477.38}";
type = Stem;
}
);
layerId = "7AC970EF-486C-4FB8-91F6-C99015BB6A18";
paths = (
{
closed = 1;
nodes = (
"549.33 0 LINE",
"564.04 83.58 LINE",
"192.7 83.58 LINE",
"307.92 737 LINE",
"216.62 737 LINE",
"86.66 0 LINE"
);
}
);
width = 559;
}
);
leftKerningGroup = B;
note = L;
rightKerningGroup = L;
unicode = 004C;
},
{
glyphname = uni01C7;
lastChange = "2019-09-04 12:41:08 +0000";
layers = (
{
hints = (
{
horizontal = 1;
place = "{0, 83.58}";
type = Stem;
},
{
place = "{86.66, 1106.96}";
type = Stem;
},
{
horizontal = 1;
place = "{-0.04, 80.67}";
type = Stem;
}
);
layerId = "7AC970EF-486C-4FB8-91F6-C99015BB6A18";
paths = (
{
closed = 1;
nodes = (
"1080.08 93.63 LINE",
"1193.62 737 LINE",
"1102.71 737 LINE",
"996.79 135.66 LINE",
"932.29 80.75 LINE",
"782.71 80.5 LINE",
"737.96 135.66 LINE",
"762.12 273.54 LINE",
"671.21 273.54 LINE",
"643.26 115.09 LINE",
"737.72 0 LINE",
"970.29 -0.09 LINE"
);
},
{
closed = 1;
nodes = (
"549.33 0 LINE",
"564.04 83.58 LINE",
"192.7 83.58 LINE",
"307.92 737 LINE",
"216.62 737 LINE",
"86.66 0 LINE"
);
}
);
width = 1160;
}
);
note = uni01C7;
unicode = 01C7;
},
{
glyphname = Lacute;
lastChange = "2019-09-04 12:41:08 +0000";
layers = (
{
hints = (
{
horizontal = 1;
place = "{0, 83.58}";
type = Stem;
},
{
horizontal = 1;
place = "{794.25, 148.83}";
type = Stem;
},
{
place = "{86.66, 477.38}";
type = Stem;
}
);
layerId = "7AC970EF-486C-4FB8-91F6-C99015BB6A18";
paths = (
{
closed = 1;
nodes = (
"549.33 0 LINE",
"564.04 83.58 LINE",
"192.7 83.58 LINE",
"307.92 737 LINE",
"216.62 737 LINE",
"86.66 0 LINE"
);
},
{
closed = 1;
nodes = (
"314.68 794.25 LINE",
"471.84 943.08 LINE",
"353.5 943.08 LINE",
"231.5 794.25 LINE"
);
}
);
width = 559;
}
);
leftKerningGroup = B;
note = Lacute;
rightKerningGroup = L;
unicode = 0139;
},
{
glyphname = Lcaron;
lastChange = "2019-09-04 12:41:08 +0000";
layers = (
{
hints = (
{
horizontal = 1;
place = "{0, 83.58}";
type = Stem;
},
{
horizontal = 1;
place = "{562.16, 174.84}";
type = Stem;
},
{
place = "{86.66, 498.62}";
type = Stem;
}
);
layerId = "7AC970EF-486C-4FB8-91F6-C99015BB6A18";
paths = (
{
closed = 1;
nodes = (
"549.33 0 LINE",
"564.04 83.58 LINE",
"192.7 83.58 LINE",
"307.92 737 LINE",
"216.62 737 LINE",
"86.66 0 LINE"
);
},
{
closed = 1;
nodes = (
"472.68 562.16 LINE",
"585.28 737 LINE",
"489.37 737 LINE",
"419 562.16 LINE"
);
}
);
width = 555;
}
);
leftKerningGroup = B;
note = Lcaron;
rightKerningGroup = L;
unicode = 013D;
},
{
glyphname = uni013B;
lastChange = "2019-09-04 12:41:08 +0000";
layers = (
{
hints = (
{
horizontal = 1;
place = "{-232.09, 174.84}";
type = Stem;
},
{
horizontal = 1;
place = "{0, 83.58}";
type = Stem;
},
{
place = "{86.66, 477.38}";
type = Stem;
}
);
layerId = "7AC970EF-486C-4FB8-91F6-C99015BB6A18";
paths = (
{
closed = 1;
nodes = (
"549.33 0 LINE",
"564.04 83.58 LINE",
"192.7 83.58 LINE",
"307.92 737 LINE",
"216.62 737 LINE",
"86.66 0 LINE"
);
},
{
closed = 1;
nodes = (
"245.01 -232.09 LINE",
"357.62 -57.25 LINE",
"261.71 -57.25 LINE",
"191.33 -232.09 LINE"
);
}
);
width = 559;
}
);
leftKerningGroup = B;
note = uni013B;
rightKerningGroup = L;
unicode = 013B;
},
{
glyphname = Ldot;
lastChange = "2019-09-04 12:41:08 +0000";
layers = (
{
hints = (
{
horizontal = 1;
place = "{0, 83.58}";
type = Stem;
},
{
horizontal = 1;
place = "{331.12, 118.04}";
type = Stem;
},
{
place = "{86.66, 477.38}";
type = Stem;
}
);
layerId = "7AC970EF-486C-4FB8-91F6-C99015BB6A18";
paths = (
{
closed = 1;
nodes = (
"549.33 0 LINE",
"564.04 83.58 LINE",
"192.7 83.58 LINE",
"307.92 737 LINE",
"216.62 737 LINE",
"86.66 0 LINE"
);
},
{
closed = 1;
nodes = (
"495.64 331.12 LINE",
"516.46 449.16 LINE",
"428.46 449.16 LINE",
"407.64 331.12 LINE"
);
}
);
width = 559;
}
);
leftKerningGroup = B;
note = Ldot;
rightKerningGroup = L;
unicode = 013F;
},
{
glyphname = uni01C8;
lastChange = "2019-09-04 12:41:08 +0000";
layers = (
{
hints = (
{
horizontal = 1;
place = "{-187, 73.33}";
type = Stem;
},
{
horizontal = 1;
place = "{0, 83.58}";
type = Stem;
},
{
horizontal = 1;
place = "{579.75, 118.04}";
type = Stem;
},
{
place = "{86.66, 785.13}";
type = Stem;
}
);
layerId = "7AC970EF-486C-4FB8-91F6-C99015BB6A18";
paths = (
{
closed = 1;
nodes = (
"549.33 0 LINE",
"564.04 83.58 LINE",
"192.7 83.58 LINE",
"307.92 737 LINE",
"216.62 737 LINE",
"86.66 0 LINE"
);
},
{
closed = 1;
nodes = (
"633.57 -187 LINE",
"729.99 -106.85 LINE",
"840.96 522.5 LINE",
"752.96 522.5 LINE",
"649.45 -64.92 LINE",
"593.78 -113.67 LINE",
"506.95 -113.67 LINE",
"493.99 -187 LINE"
);
},
{
closed = 1;
nodes = (
"850.96 579.75 LINE",
"871.79 697.79 LINE",
"783.79 697.79 LINE",
"762.96 579.75 LINE"
);
}
);
width = 831;
}
);
leftKerningGroup = B;
note = uni01C8;
unicode = 01C8;
},
{
glyphname = Lslash;
lastChange = "2019-09-04 12:41:08 +0000";
layers = (
{
hints = (
{
horizontal = 1;
place = "{0, 83.58}";
type = Stem;
},
{
place = "{70.83, 493.21}";
type = Stem;
}
);
layerId = "7AC970EF-486C-4FB8-91F6-C99015BB6A18";
paths = (
{
closed = 1;
nodes = (
"549.33 0 LINE",
"564.04 83.58 LINE",
"192.7 83.58 LINE",
"238.89 345.53 LINE",
"425.12 421.29 LINE",
"442.14 517.85 LINE",
"255.92 442.09 LINE",
"307.92 737 LINE",
"216.62 737 LINE",
"157.56 402.08 LINE",
"87.86 373.72 LINE",
"70.83 277.16 LINE",
"140.54 305.52 LINE",
"86.66 0 LINE"
);
}
);
width = 559;
}
);
leftKerningGroup = B;
note = Lslash;
rightKerningGroup = L;
unicode = 0141;
},
{
glyphname = M;
lastChange = "2019-09-04 12:41:08 +0000";
layers = (
{
hints = (
{
horizontal = 1;
place = "{581.5, 155.5}";
type = Stem;
},
{
place = "{86.66, 843.92}";
type = Stem;
}
);
layerId = "7AC970EF-486C-4FB8-91F6-C99015BB6A18";
paths = (
{
closed = 1;
nodes = (
"177.96 0 LINE",
"280.5 581.5 LINE",
"286.75 581.5 LINE",
"417.75 0 LINE",
"469.16 0 LINE",
"805.25 581.5 LINE",
"811.87 581.5 LINE",
"709.33 0 LINE",
"800.63 0 LINE",
"930.58 737 LINE",
"800 737 LINE",
"464.58 149.76 LINE",
"336.16 737 LINE",
"216.62 737 LINE",
"86.66 0 LINE"
);
}
);
width = 887;
}
);
note = M;
unicode = 004D;
},
{
glyphname = N;
lastChange = "2019-09-04 12:41:08 +0000";
layers = (
{
hints = (
{
horizontal = 1;
place = "{0, 145.87}";
type = Stem;
},
{
horizontal = 1;
place = "{581.5, 155.5}";
type = Stem;
},
{
place = "{86.66, 674.76}";
type = Stem;
}
);
layerId = "7AC970EF-486C-4FB8-91F6-C99015BB6A18";
paths = (
{
closed = 1;
nodes = (
"177.96 0 LINE",
"280.5 581.5 LINE",
"302.79 581.5 LINE",
"523.08 0 LINE",
"631.46 0 LINE",
"761.42 737 LINE",
"670.12 737 LINE",
"565.97 146.32 LINE",
"559.28 145.42 LINE",
"334.42 737 LINE",
"216.62 737 LINE",
"86.66 0 LINE"
);
}
);
width = 718;
}
);
leftKerningGroup = B;
note = N;
rightKerningGroup = H;
unicode = 004E;
},
{
glyphname = uni01CA;
lastChange = "2019-09-04 12:41:08 +0000";
layers = (
{
hints = (
{
horizontal = 1;
place = "{0, 145.87}";
type = Stem;
},
{
horizontal = 1;
place = "{581.5, 155.5}";
type = Stem;
},
{
place = "{86.66, 1263.76}";
type = Stem;
},
{
horizontal = 1;
place = "{-0.04, 80.67}";
type = Stem;
}
);
layerId = "7AC970EF-486C-4FB8-91F6-C99015BB6A18";
paths = (
{
closed = 1;
nodes = (
"177.96 0 LINE",
"280.5 581.5 LINE",
"302.79 581.5 LINE",
"523.08 0 LINE",
"631.46 0 LINE",
"761.42 737 LINE",
"670.12 737 LINE",
"565.97 146.32 LINE",
"559.28 145.42 LINE",
"334.42 737 LINE",
"216.62 737 LINE",
"86.66 0 LINE"
);
},
{
closed = 1;
nodes = (
"1236.87 93.63 LINE",
"1350.42 737 LINE",
"1259.5 737 LINE",
"1153.58 135.66 LINE",
"1089.08 80.75 LINE",
"939.5 80.5 LINE",
"894.75 135.66 LINE",
"918.92 273.54 LINE",
"828 273.54 LINE",
"800.05 115.09 LINE",
"894.51 0 LINE",
"1127.09 -0.09 LINE"
);
}
);
width = 1317;
}
);
note = uni01CA;
unicode = 01CA;
},
{
glyphname = Nacute;
lastChange = "2019-09-04 12:41:08 +0000";
layers = (
{
hints = (
{
horizontal = 1;
place = "{0, 145.87}";
type = Stem;
},
{
horizontal = 1;
place = "{581.5, 155.5}";
type = Stem;
},
{
horizontal = 1;
place = "{794.25, 148.83}";
type = Stem;
},
{
place = "{86.66, 674.76}";
type = Stem;
}
);
layerId = "7AC970EF-486C-4FB8-91F6-C99015BB6A18";
paths = (
{
closed = 1;
nodes = (
"177.96 0 LINE",
"280.5 581.5 LINE",
"302.79 581.5 LINE",
"523.08 0 LINE",
"631.46 0 LINE",
"761.42 737 LINE",
"670.12 737 LINE",
"565.97 146.32 LINE",
"559.28 145.42 LINE",
"334.42 737 LINE",
"216.62 737 LINE",
"86.66 0 LINE"
);
},
{
closed = 1;
nodes = (
"540.89 794.25 LINE",
"698.05 943.08 LINE",
"579.71 943.08 LINE",
"457.71 794.25 LINE"
);
}
);
width = 718;
}
);
note = Nacute;
unicode = 0143;
},
{
glyphname = Ncaron;
lastChange = "2019-09-04 12:41:08 +0000";
layers = (
{
hints = (
{
horizontal = 1;
place = "{0, 145.87}";
type = Stem;
},
{
horizontal = 1;
place = "{581.5, 155.5}";
type = Stem;
},
{
horizontal = 1;
place = "{794.25, 141.16}";
type = Stem;
},
{
place = "{86.66, 674.76}";
type = Stem;
}
);
layerId = "7AC970EF-486C-4FB8-91F6-C99015BB6A18";
paths = (
{
closed = 1;
nodes = (
"177.96 0 LINE",
"280.5 581.5 LINE",
"302.79 581.5 LINE",
"523.08 0 LINE",
"631.46 0 LINE",
"761.42 737 LINE",
"670.12 737 LINE",
"565.97 146.32 LINE",
"559.28 145.42 LINE",
"334.42 737 LINE",
"216.62 737 LINE",
"86.66 0 LINE"
);
},
{
closed = 1;
nodes = (
"545.36 794.25 LINE",
"670.25 935.41 LINE",
"591.41 935.41 LINE",
"499.45 850.79 LINE",
"493.62 850.79 LINE",
"431.49 935.41 LINE",
"359.98 935.41 LINE",
"444 794.25 LINE"
);
}
);
width = 718;
}
);
note = Ncaron;
unicode = 0147;
},
{
glyphname = uni0145;
lastChange = "2019-09-04 12:41:08 +0000";
layers = (
{
hints = (
{
horizontal = 1;
place = "{-232.09, 174.84}";
type = Stem;
},
{
horizontal = 1;
place = "{0, 145.87}";
type = Stem;
},
{
horizontal = 1;
place = "{581.5, 155.5}";
type = Stem;
},
{
place = "{86.66, 674.76}";
type = Stem;
}
);
layerId = "7AC970EF-486C-4FB8-91F6-C99015BB6A18";
paths = (
{
closed = 1;
nodes = (
"177.96 0 LINE",
"280.5 581.5 LINE",
"302.79 581.5 LINE",
"523.08 0 LINE",
"631.46 0 LINE",
"761.42 737 LINE",
"670.12 737 LINE",
"565.97 146.32 LINE",
"559.28 145.42 LINE",
"334.42 737 LINE",
"216.62 737 LINE",
"86.66 0 LINE"
);
},
{
closed = 1;
nodes = (
"281.3 -232.09 LINE",
"393.91 -57.25 LINE",
"298 -57.25 LINE",
"227.62 -232.09 LINE"
);
}
);
width = 718;
}
);
note = uni0145;
unicode = 0145;
},
{
glyphname = Eng;
lastChange = "2019-09-04 12:41:08 +0000";
layers = (
{
hints = (
{
horizontal = 1;
place = "{-170, 66}";
type = Stem;
},
{
horizontal = 1;
place = "{581.5, 155.5}";
type = Stem;
},
{
place = "{86.66, 674.76}";
type = Stem;
}
);
layerId = "7AC970EF-486C-4FB8-91F6-C99015BB6A18";
paths = (
{
closed = 1;
nodes = (
"511 -170 LINE",
"607 -87 LINE",
"752 737 LINE",
"661 737 LINE",
"558 148 LINE",
"334.42 737 LINE",
"216.62 737 LINE",
"86.66 0 LINE",
"177.96 0 LINE",
"280.5 581.5 LINE",
"302.79 581.5 LINE",
"529 -16 LINE",
"524 -49 LINE",
"463 -104 LINE",
"396 -104 LINE",
"385 -170 LINE"
);
}
);
width = 709;
}
);
note = Eng;
unicode = 014A;
},
{
glyphname = uni01CB;
lastChange = "2019-09-04 12:41:08 +0000";
layers = (
{
hints = (
{
horizontal = 1;
place = "{-187, 73.33}";
type = Stem;
},
{
horizontal = 1;
place = "{0, 145.87}";
type = Stem;
},
{
horizontal = 1;
place = "{579.75, 118.04}";
type = Stem;
},
{
place = "{86.66, 961.75}";
type = Stem;
},
{
horizontal = 1;
place = "{581.5, 155.5}";
type = Stem;
}
);
layerId = "7AC970EF-486C-4FB8-91F6-C99015BB6A18";
paths = (
{
closed = 1;
nodes = (
"177.96 0 LINE",
"280.5 581.5 LINE",
"302.79 581.5 LINE",
"523.08 0 LINE",
"631.46 0 LINE",
"761.42 737 LINE",
"670.12 737 LINE",
"565.97 146.32 LINE",
"559.28 145.42 LINE",
"334.42 737 LINE",
"216.62 737 LINE",
"86.66 0 LINE"
);
},
{
closed = 1;
nodes = (
"810.19 -187 LINE",
"906.62 -106.85 LINE",
"1017.58 522.5 LINE",
"929.58 522.5 LINE",
"826.07 -64.92 LINE",
"770.4 -113.67 LINE",
"683.57 -113.67 LINE",
"670.61 -187 LINE"
);
},
{
closed = 1;
nodes = (
"1027.58 579.75 LINE",
"1048.41 697.79 LINE",
"960.41 697.79 LINE",
"939.58 579.75 LINE"
);
}
);
width = 1007;
}
);
note = uni01CB;
unicode = 01CB;
},
{
glyphname = Ntilde;
lastChange = "2019-09-04 12:41:08 +0000";
layers = (
{
hints = (
{
horizontal = 1;
place = "{863.91, 57.55}";
type = Stem;
},
{
place = "{86.66, 674.76}";
type = Stem;
},
{
horizontal = 1;
place = "{794.25, 57.54}";
type = Stem;
},
{
horizontal = 1;
place = "{0, 145.87}";
type = Stem;
},
{
horizontal = 1;
place = "{581.5, 155.5}";
type = Stem;
}
);
layerId = "7AC970EF-486C-4FB8-91F6-C99015BB6A18";
paths = (
{
closed = 1;
nodes = (
"177.96 0 LINE",
"280.5 581.5 LINE",
"302.79 581.5 LINE",
"523.08 0 LINE",
"631.46 0 LINE",
"761.42 737 LINE",
"670.12 737 LINE",
"565.97 146.32 LINE",
"559.28 145.42 LINE",
"334.42 737 LINE",
"216.62 737 LINE",
"86.66 0 LINE"
);
},
{
closed = 1;
nodes = (
"623.73 794.25 LINE",
"686.55 848.34 LINE",
"700.16 919.21 LINE",
"647.16 919.21 LINE",
"640.62 888.04 LINE",
"597.54 851.79 LINE",
"561.02 851.79 LINE",
"501.47 921.46 LINE",
"400 921.46 LINE",
"337.06 866.92 LINE",
"323.51 796.41 LINE",
"376.58 796.41 LINE",
"383.16 827.54 LINE",
"426.16 863.91 LINE",
"466.83 863.91 LINE",
"526.37 794.25 LINE"
);
}
);
width = 718;
}
);
leftKerningGroup = B;
note = Ntilde;
rightKerningGroup = H;
unicode = 00D1;
},
{
glyphname = O;
lastChange = "2019-09-04 12:41:08 +0000";
layers = (
{
hints = (
{
horizontal = 1;
place = "{0, 80.71}";
type = Stem;
},
{
horizontal = 1;
place = "{656.29, 80.71}";
type = Stem;
},
{
place = "{88.81, 646.68}";
type = Stem;
}
);
layerId = "7AC970EF-486C-4FB8-91F6-C99015BB6A18";
paths = (
{
closed = 1;
nodes = (
"532.6 0 LINE",
"642.38 93.72 LINE",
"735.49 621.77 LINE",
"641.18 737 LINE",
"291.86 737 LINE",
"181.95 643.37 LINE",
"88.81 115.1 LINE",
"183.27 0 LINE"
);
},
{
closed = 1;
nodes = (
"183.51 135.66 LINE",
"265.26 601.33 LINE",
"329.76 656.16 LINE",
"596.01 656.41 LINE",
"640.76 601.33 LINE",
"558.93 135.75 LINE",
"494.59 80.83 LINE",
"228.34 80.58 LINE"
);
}
);
width = 694;
}
);
leftKerningGroup = C;
note = O;
rightKerningGroup = O;
unicode = 004F;
},
{
glyphname = Oacute;
lastChange = "2019-09-04 12:41:08 +0000";
layers = (
{
hints = (
{
horizontal = 1;
place = "{0, 80.71}";
type = Stem;
},
{
horizontal = 1;
place = "{656.29, 80.71}";
type = Stem;
},
{
horizontal = 1;
place = "{794.25, 148.83}";
type = Stem;
},
{
place = "{88.81, 646.68}";
type = Stem;
}
);
layerId = "7AC970EF-486C-4FB8-91F6-C99015BB6A18";
paths = (
{
closed = 1;
nodes = (
"532.6 0 LINE",
"642.38 93.72 LINE",
"735.49 621.77 LINE",
"641.18 737 LINE",
"291.86 737 LINE",
"181.95 643.37 LINE",
"88.81 115.1 LINE",
"183.27 0 LINE"
);
},
{
closed = 1;
nodes = (
"183.51 135.66 LINE",
"265.26 601.33 LINE",
"329.76 656.16 LINE",
"596.01 656.41 LINE",
"640.76 601.33 LINE",
"558.93 135.75 LINE",
"494.59 80.83 LINE",
"228.34 80.58 LINE"
);
},
{
closed = 1;
nodes = (
"526.46 794.25 LINE",
"683.62 943.08 LINE",
"565.28 943.08 LINE",
"443.28 794.25 LINE"
);
}
);
width = 694;
}
);
leftKerningGroup = C;
note = Oacute;
rightKerningGroup = O;
unicode = 00D3;
},
{
glyphname = Obreve;
lastChange = "2019-09-04 12:41:08 +0000";
layers = (
{
hints = (
{
horizontal = 1;
place = "{0, 80.71}";
type = Stem;
},
{
horizontal = 1;
place = "{656.29, 80.71}";
type = Stem;
},
{
horizontal = 1;
place = "{794.22, 58.99}";
type = Stem;
},
{
place = "{88.81, 646.68}";
type = Stem;
},
{
horizontal = 1;
place = "{878.91, 49.5}";
type = Stem;
}
);
layerId = "7AC970EF-486C-4FB8-91F6-C99015BB6A18";
paths = (
{
closed = 1;
nodes = (
"532.6 0 LINE",
"642.38 93.72 LINE",
"735.49 621.77 LINE",
"641.18 737 LINE",
"291.86 737 LINE",
"181.95 643.37 LINE",
"88.81 115.1 LINE",
"183.27 0 LINE"
);
},
{
closed = 1;
nodes = (
"183.51 135.66 LINE",
"265.26 601.33 LINE",
"329.76 656.16 LINE",
"596.01 656.41 LINE",
"640.76 601.33 LINE",
"558.93 135.75 LINE",
"494.59 80.83 LINE",
"228.34 80.58 LINE"
);
},
{
closed = 1;
nodes = (
"559.84 794.25 LINE",
"624.8 849.18 LINE",
"638.82 928.41 LINE",
"578.24 928.41 LINE",
"569.49 878.91 LINE",
"539.32 853.21 LINE",
"435.91 853.21 LINE",
"414.82 878.91 LINE",
"423.57 928.41 LINE",
"362.99 928.41 LINE",
"351.5 863.31 LINE",
"409.08 794.19 LINE"
);
}
);
width = 694;
}
);
leftKerningGroup = C;
note = Obreve;
rightKerningGroup = O;
unicode = 014E;
},
{
glyphname = Ocircumflex;
lastChange = "2019-09-04 12:41:08 +0000";
layers = (
{
hints = (
{
horizontal = 1;
place = "{0, 80.71}";
type = Stem;
},
{
horizontal = 1;
place = "{656.29, 80.71}";
type = Stem;
},
{
horizontal = 1;
place = "{794.25, 141.16}";
type = Stem;
},
{
place = "{88.81, 646.68}";
type = Stem;
}
);
layerId = "7AC970EF-486C-4FB8-91F6-C99015BB6A18";
paths = (
{
closed = 1;
nodes = (
"532.6 0 LINE",
"642.38 93.72 LINE",
"735.49 621.77 LINE",
"641.18 737 LINE",
"291.86 737 LINE",
"181.95 643.37 LINE",
"88.81 115.1 LINE",
"183.27 0 LINE"
);
},
{
closed = 1;
nodes = (
"183.51 135.66 LINE",
"265.26 601.33 LINE",
"329.76 656.16 LINE",
"596.01 656.41 LINE",
"640.76 601.33 LINE",
"558.93 135.75 LINE",
"494.59 80.83 LINE",
"228.34 80.58 LINE"
);
},
{
closed = 1;
nodes = (
"403.24 794.25 LINE",
"495.2 878.87 LINE",
"501.03 878.87 LINE",
"563.16 794.25 LINE",
"634.67 794.25 LINE",
"550.64 935.41 LINE",
"449.28 935.41 LINE",
"324.4 794.25 LINE"
);
}
);
width = 694;
}
);
leftKerningGroup = C;
note = Ocircumflex;
rightKerningGroup = O;
unicode = 00D4;
},
{
glyphname = uni1ED0;
lastChange = "2019-09-04 12:41:08 +0000";
layers = (
{
hints = (
{
horizontal = 1;
place = "{0, 80.71}";
type = Stem;
},
{
horizontal = 1;
place = "{656.29, 80.71}";
type = Stem;
},
{
horizontal = 1;
place = "{871.07, 148.83}";
type = Stem;
},
{
place = "{88.81, 782.66}";
type = Stem;
},
{
horizontal = 1;
place = "{794.25, 141.16}";
type = Stem;
}
);
layerId = "7AC970EF-486C-4FB8-91F6-C99015BB6A18";
paths = (
{
closed = 1;
nodes = (
"532.6 0 LINE",
"642.38 93.72 LINE",
"735.49 621.77 LINE",
"641.18 737 LINE",
"291.86 737 LINE",
"181.95 643.37 LINE",
"88.81 115.1 LINE",
"183.27 0 LINE"
);
},
{
closed = 1;
nodes = (
"183.51 135.66 LINE",
"265.26 601.33 LINE",
"329.76 656.16 LINE",
"596.01 656.41 LINE",
"640.76 601.33 LINE",
"558.93 135.75 LINE",
"494.59 80.83 LINE",
"228.34 80.58 LINE"
);
},
{
closed = 1;
nodes = (
"403.24 794.25 LINE",
"495.2 878.87 LINE",
"501.03 878.87 LINE",
"563.16 794.25 LINE",
"634.67 794.25 LINE",
"550.64 935.41 LINE",
"449.28 935.41 LINE",
"324.4 794.25 LINE"
);
},
{
closed = 1;
nodes = (
"714.31 871.07 LINE",
"871.47 1019.9 LINE",
"753.13 1019.9 LINE",
"631.13 871.07 LINE"
);
}
);
width = 694;
}
);
leftKerningGroup = C;
note = uni1ED0;
rightKerningGroup = O;
unicode = 1ED0;
},
{
glyphname = uni1ED8;
lastChange = "2019-09-04 12:41:08 +0000";
layers = (
{
hints = (
{
horizontal = 1;
place = "{-175.29, 118.04}";
type = Stem;
},
{
horizontal = 1;
place = "{0, 80.71}";
type = Stem;
},
{
horizontal = 1;
place = "{656.29, 80.71}";
type = Stem;
},
{
horizontal = 1;
place = "{794.25, 141.16}";
type = Stem;
},
{
place = "{88.81, 646.68}";
type = Stem;
}
);
layerId = "7AC970EF-486C-4FB8-91F6-C99015BB6A18";
paths = (
{
closed = 1;
nodes = (
"532.6 0 LINE",
"642.38 93.72 LINE",
"735.49 621.77 LINE",
"641.18 737 LINE",
"291.86 737 LINE",
"181.95 643.37 LINE",
"88.81 115.1 LINE",
"183.27 0 LINE"
);
},
{
closed = 1;
nodes = (
"363.22 -175.29 LINE",
"384.05 -57.25 LINE",
"296.05 -57.25 LINE",
"275.22 -175.29 LINE"
);
},
{
closed = 1;
nodes = (
"183.51 135.66 LINE",
"265.26 601.33 LINE",
"329.76 656.16 LINE",
"596.01 656.41 LINE",
"640.76 601.33 LINE",
"558.93 135.75 LINE",
"494.59 80.83 LINE",
"228.34 80.58 LINE"
);
},
{
closed = 1;
nodes = (
"403.24 794.25 LINE",
"495.2 878.87 LINE",
"501.03 878.87 LINE",
"563.16 794.25 LINE",
"634.67 794.25 LINE",
"550.64 935.41 LINE",
"449.28 935.41 LINE",
"324.4 794.25 LINE"
);
}
);
width = 694;
}
);
leftKerningGroup = C;
note = uni1ED8;
rightKerningGroup = O;
unicode = 1ED8;
},
{
glyphname = uni1ED2;
lastChange = "2019-09-04 12:41:08 +0000";
layers = (
{
hints = (
{
horizontal = 1;
place = "{0, 80.71}";
type = Stem;
},
{
horizontal = 1;
place = "{656.29, 80.71}";
type = Stem;
},
{
horizontal = 1;
place = "{871.06, 148.83}";
type = Stem;
},
{
place = "{88.81, 646.68}";
type = Stem;
},
{
horizontal = 1;
place = "{794.25, 141.16}";
type = Stem;
}
);
layerId = "7AC970EF-486C-4FB8-91F6-C99015BB6A18";
paths = (
{
closed = 1;
nodes = (
"532.6 0 LINE",
"642.38 93.72 LINE",
"735.49 621.77 LINE",
"641.18 737 LINE",
"291.86 737 LINE",
"181.95 643.37 LINE",
"88.81 115.1 LINE",
"183.27 0 LINE"
);
},
{
closed = 1;
nodes = (
"183.51 135.66 LINE",
"265.26 601.33 LINE",
"329.76 656.16 LINE",
"596.01 656.41 LINE",
"640.76 601.33 LINE",
"558.93 135.75 LINE",
"494.59 80.83 LINE",
"228.34 80.58 LINE"
);
},
{
closed = 1;
nodes = (
"347.25 871.06 LINE",
"277.83 1019.89 LINE",
"172.12 1019.89 LINE",
"275.34 871.06 LINE"
);
},
{
closed = 1;
nodes = (
"403.24 794.25 LINE",
"495.2 878.87 LINE",
"501.03 878.87 LINE",
"563.16 794.25 LINE",
"634.67 794.25 LINE",
"550.64 935.41 LINE",
"449.28 935.41 LINE",
"324.4 794.25 LINE"
);
}
);
width = 694;
}
);
leftKerningGroup = C;
note = uni1ED2;
rightKerningGroup = O;
unicode = 1ED2;
},
{
glyphname = uni1ED4;
lastChange = "2019-09-04 12:41:08 +0000";
layers = (
{
hints = (
{
horizontal = 1;
place = "{0, 80.71}";
type = Stem;
},
{
horizontal = 1;
place = "{656.29, 80.71}";
type = Stem;
},
{
horizontal = 1;
place = "{794.25, 141.16}";
type = Stem;
},
{
horizontal = 1;
place = "{1023.16, 54.55}";
type = Stem;
},
{
place = "{88.81, 687.39}";
type = Stem;
}
);
layerId = "7AC970EF-486C-4FB8-91F6-C99015BB6A18";
paths = (
{
closed = 1;
nodes = (
"532.6 0 LINE",
"642.38 93.72 LINE",
"735.49 621.77 LINE",
"641.18 737 LINE",
"291.86 737 LINE",
"181.95 643.37 LINE",
"88.81 115.1 LINE",
"183.27 0 LINE"
);
},
{
closed = 1;
nodes = (
"183.51 135.66 LINE",
"265.26 601.33 LINE",
"329.76 656.16 LINE",
"596.01 656.41 LINE",
"640.76 601.33 LINE",
"558.93 135.75 LINE",
"494.59 80.83 LINE",
"228.34 80.58 LINE"
);
},
{
closed = 1;
nodes = (
"403.24 794.25 LINE",
"495.2 878.87 LINE",
"501.03 878.87 LINE",
"563.16 794.25 LINE",
"634.67 794.25 LINE",
"550.64 935.41 LINE",
"449.28 935.41 LINE",
"324.4 794.25 LINE"
);
},
{
closed = 1;
nodes = (
"678.53 871.08 LINE",
"683.4 898.42 LINE",
"763.96 956.38 LINE",
"776.2 1025.77 LINE",
"734.62 1077.71 LINE",
"632.12 1077.71 LINE",
"581.14 1033.98 LINE",
"618.91 988.29 LINE",
"659.61 1023.16 LINE",
"698.42 1023.16 LINE",
"708.22 1010.87 LINE",
"703.82 986.21 LINE",
"628.16 929.41 LINE",
"617.82 871.08 LINE"
);
}
);
width = 694;
}
);
leftKerningGroup = C;
note = uni1ED4;
rightKerningGroup = O;
unicode = 1ED4;
},
{
glyphname = uni1ED6;
lastChange = "2019-09-04 12:41:08 +0000";
layers = (
{
hints = (
{
horizontal = 1;
place = "{0, 80.71}";
type = Stem;
},
{
horizontal = 1;
place = "{656.29, 80.71}";
type = Stem;
},
{
horizontal = 1;
place = "{794.25, 141.16}";
type = Stem;
},
{
horizontal = 1;
place = "{1031.87, 57.54}";
type = Stem;
},
{
place = "{88.81, 646.68}";
type = Stem;
},
{
horizontal = 1;
place = "{962.21, 57.54}";
type = Stem;
}
);
layerId = "7AC970EF-486C-4FB8-91F6-C99015BB6A18";
paths = (
{
closed = 1;
nodes = (
"532.6 0 LINE",
"642.38 93.72 LINE",
"735.49 621.77 LINE",
"641.18 737 LINE",
"291.86 737 LINE",
"181.95 643.37 LINE",
"88.81 115.1 LINE",
"183.27 0 LINE"
);
},
{
closed = 1;
nodes = (
"183.51 135.66 LINE",
"265.26 601.33 LINE",
"329.76 656.16 LINE",
"596.01 656.41 LINE",
"640.76 601.33 LINE",
"558.93 135.75 LINE",
"494.59 80.83 LINE",
"228.34 80.58 LINE"
);
},
{
closed = 1;
nodes = (
"403.24 794.25 LINE",
"495.2 878.87 LINE",
"501.03 878.87 LINE",
"563.16 794.25 LINE",
"634.67 794.25 LINE",
"550.64 935.41 LINE",
"449.28 935.41 LINE",
"324.4 794.25 LINE"
);
},
{
closed = 1;
nodes = (
"623.89 962.21 LINE",
"686.71 1016.3 LINE",
"700.32 1087.16 LINE",
"647.32 1087.16 LINE",
"640.78 1056 LINE",
"597.7 1019.75 LINE",
"561.17 1019.75 LINE",
"501.63 1089.41 LINE",
"400.16 1089.41 LINE",
"337.21 1034.88 LINE",
"323.67 964.37 LINE",
"376.74 964.37 LINE",
"383.32 995.5 LINE",
"426.32 1031.87 LINE",
"466.99 1031.87 LINE",
"526.52 962.21 LINE"
);
}
);
width = 694;
}
);
leftKerningGroup = C;
note = uni1ED6;
rightKerningGroup = O;
unicode = 1ED6;
},
{
glyphname = uni020C;
lastChange = "2019-09-04 12:41:08 +0000";
layers = (
{
hints = (
{
horizontal = 1;
place = "{0, 80.71}";
type = Stem;
},
{
horizontal = 1;
place = "{656.29, 80.71}";
type = Stem;
},
{
horizontal = 1;
place = "{794.25, 148.83}";
type = Stem;
},
{
place = "{88.81, 646.68}";
type = Stem;
}
);
layerId = "7AC970EF-486C-4FB8-91F6-C99015BB6A18";
paths = (
{
closed = 1;
nodes = (
"532.6 0 LINE",
"642.38 93.72 LINE",
"735.49 621.77 LINE",
"641.18 737 LINE",
"291.86 737 LINE",
"181.95 643.37 LINE",
"88.81 115.1 LINE",
"183.27 0 LINE"
);
},
{
closed = 1;
nodes = (
"183.51 135.66 LINE",
"265.26 601.33 LINE",
"329.76 656.16 LINE",
"596.01 656.41 LINE",
"640.76 601.33 LINE",
"558.93 135.75 LINE",
"494.59 80.83 LINE",
"228.34 80.58 LINE"
);
},
{
closed = 1;
nodes = (
"421.41 794.25 LINE",
"351.98 943.08 LINE",
"246.27 943.08 LINE",
"349.49 794.25 LINE"
);
},
{
closed = 1;
nodes = (
"587.61 794.25 LINE",
"518.19 943.08 LINE",
"412.48 943.08 LINE",
"515.7 794.25 LINE"
);
}
);
width = 694;
}
);
leftKerningGroup = C;
note = uni020C;
rightKerningGroup = O;
unicode = 020C;
},
{
glyphname = Odieresis;
lastChange = "2019-09-04 12:41:08 +0000";
layers = (
{
hints = (
{
horizontal = 1;
place = "{0, 80.71}";
type = Stem;
},
{
horizontal = 1;
place = "{656.29, 80.71}";
type = Stem;
},
{
horizontal = 1;
place = "{794.25, 118.16}";
type = Stem;
},
{
place = "{88.81, 646.68}";
type = Stem;
}
);
layerId = "7AC970EF-486C-4FB8-91F6-C99015BB6A18";
paths = (
{
closed = 1;
nodes = (
"532.6 0 LINE",
"642.38 93.72 LINE",
"735.49 621.77 LINE",
"641.18 737 LINE",
"291.86 737 LINE",
"181.95 643.37 LINE",
"88.81 115.1 LINE",
"183.27 0 LINE"
);
},
{
closed = 1;
nodes = (
"183.51 135.66 LINE",
"265.26 601.33 LINE",
"329.76 656.16 LINE",
"596.01 656.41 LINE",
"640.76 601.33 LINE",
"558.93 135.75 LINE",
"494.59 80.83 LINE",
"228.34 80.58 LINE"
);
},
{
closed = 1;
nodes = (
"393.82 794.25 LINE",
"414.66 912.41 LINE",
"326.66 912.41 LINE",
"305.82 794.25 LINE"
);
},
{
closed = 1;
nodes = (
"659.24 794.25 LINE",
"680.07 912.41 LINE",
"592.07 912.41 LINE",
"571.24 794.25 LINE"
);
}
);
width = 694;
}
);
leftKerningGroup = C;
note = Odieresis;
rightKerningGroup = O;
unicode = 00D6;
},
{
glyphname = uni022A;
lastChange = "2019-09-04 12:41:08 +0000";
layers = (
{
hints = (
{
horizontal = 1;
place = "{0, 80.71}";
type = Stem;
},
{
horizontal = 1;
place = "{656.29, 80.71}";
type = Stem;
},
{
horizontal = 1;
place = "{794.25, 118.16}";
type = Stem;
},
{
horizontal = 1;
place = "{944.52, 67.04}";
type = Stem;
},
{
place = "{88.81, 646.68}";
type = Stem;
}
);
layerId = "7AC970EF-486C-4FB8-91F6-C99015BB6A18";
paths = (
{
closed = 1;
nodes = (
"532.6 0 LINE",
"642.38 93.72 LINE",
"735.49 621.77 LINE",
"641.18 737 LINE",
"291.86 737 LINE",
"181.95 643.37 LINE",
"88.81 115.1 LINE",
"183.27 0 LINE"
);
},
{
closed = 1;
nodes = (
"183.51 135.66 LINE",
"265.26 601.33 LINE",
"329.76 656.16 LINE",
"596.01 656.41 LINE",
"640.76 601.33 LINE",
"558.93 135.75 LINE",
"494.59 80.83 LINE",
"228.34 80.58 LINE"
);
},
{
closed = 1;
nodes = (
"393.82 794.25 LINE",
"414.66 912.41 LINE",
"326.66 912.41 LINE",
"305.82 794.25 LINE"
);
},
{
closed = 1;
nodes = (
"659.24 794.25 LINE",
"680.07 912.41 LINE",
"592.07 912.41 LINE",
"571.24 794.25 LINE"
);
},
{
closed = 1;
nodes = (
"685.62 944.52 LINE",
"697.54 1011.56 LINE",
"344.12 1011.56 LINE",
"332.2 944.52 LINE"
);
}
);
width = 694;
}
);
leftKerningGroup = C;
note = uni022A;
rightKerningGroup = O;
unicode = 022A;
},
{
glyphname = uni0230;
lastChange = "2019-09-04 12:41:08 +0000";
layers = (
{
hints = (
{
horizontal = 1;
place = "{0, 80.71}";
type = Stem;
},
{
horizontal = 1;
place = "{656.29, 80.71}";
type = Stem;
},
{
horizontal = 1;
place = "{794.25, 118.04}";
type = Stem;
},
{
horizontal = 1;
place = "{944.52, 67.04}";
type = Stem;
},
{
place = "{88.81, 646.68}";
type = Stem;
}
);
layerId = "7AC970EF-486C-4FB8-91F6-C99015BB6A18";
paths = (
{
closed = 1;
nodes = (
"532.6 0 LINE",
"642.38 93.72 LINE",
"735.49 621.77 LINE",
"641.18 737 LINE",
"291.86 737 LINE",
"181.95 643.37 LINE",
"88.81 115.1 LINE",
"183.27 0 LINE"
);
},
{
closed = 1;
nodes = (
"183.51 135.66 LINE",
"265.26 601.33 LINE",
"329.76 656.16 LINE",
"596.01 656.41 LINE",
"640.76 601.33 LINE",
"558.93 135.75 LINE",
"494.59 80.83 LINE",
"228.34 80.58 LINE"
);
},
{
closed = 1;
nodes = (
"527.86 794.25 LINE",
"548.7 912.29 LINE",
"460.7 912.29 LINE",
"439.86 794.25 LINE"
);
},
{
closed = 1;
nodes = (
"685.62 944.52 LINE",
"697.54 1011.56 LINE",
"344.12 1011.56 LINE",
"332.2 944.52 LINE"
);
}
);
width = 694;
}
);
leftKerningGroup = C;
note = uni0230;
rightKerningGroup = O;
unicode = 0230;
},
{
glyphname = uni1ECC;
lastChange = "2019-09-04 12:41:08 +0000";
layers = (
{
hints = (
{
horizontal = 1;
place = "{-175.29, 118.04}";
type = Stem;
},
{
horizontal = 1;
place = "{0, 80.71}";
type = Stem;
},
{
horizontal = 1;
place = "{656.29, 80.71}";
type = Stem;
},
{
place = "{88.81, 646.68}";
type = Stem;
}
);
layerId = "7AC970EF-486C-4FB8-91F6-C99015BB6A18";
paths = (
{
closed = 1;
nodes = (
"532.6 0 LINE",
"642.38 93.72 LINE",
"735.49 621.77 LINE",
"641.18 737 LINE",
"291.86 737 LINE",
"181.95 643.37 LINE",
"88.81 115.1 LINE",
"183.27 0 LINE"
);
},
{
closed = 1;
nodes = (
"363.22 -175.29 LINE",
"384.05 -57.25 LINE",
"296.05 -57.25 LINE",
"275.22 -175.29 LINE"
);
},
{
closed = 1;
nodes = (
"183.51 135.66 LINE",
"265.26 601.33 LINE",
"329.76 656.16 LINE",
"596.01 656.41 LINE",
"640.76 601.33 LINE",
"558.93 135.75 LINE",
"494.59 80.83 LINE",
"228.34 80.58 LINE"
);
}
);
width = 694;
}
);
leftKerningGroup = C;
note = uni1ECC;
rightKerningGroup = O;
unicode = 1ECC;
},
{
glyphname = Ograve;
lastChange = "2019-09-04 12:41:08 +0000";
layers = (
{
hints = (
{
horizontal = 1;
place = "{0, 80.71}";
type = Stem;
},
{
horizontal = 1;
place = "{656.29, 80.71}";
type = Stem;
},
{
horizontal = 1;
place = "{794.25, 148.83}";
type = Stem;
},
{
place = "{88.81, 646.68}";
type = Stem;
}
);
layerId = "7AC970EF-486C-4FB8-91F6-C99015BB6A18";
paths = (
{
closed = 1;
nodes = (
"532.6 0 LINE",
"642.38 93.72 LINE",
"735.49 621.77 LINE",
"641.18 737 LINE",
"291.86 737 LINE",
"181.95 643.37 LINE",
"88.81 115.1 LINE",
"183.27 0 LINE"
);
},
{
closed = 1;
nodes = (
"183.51 135.66 LINE",
"265.26 601.33 LINE",
"329.76 656.16 LINE",
"596.01 656.41 LINE",
"640.76 601.33 LINE",
"558.93 135.75 LINE",
"494.59 80.83 LINE",
"228.34 80.58 LINE"
);
},
{
closed = 1;
nodes = (
"501.39 794.25 LINE",
"431.97 943.08 LINE",
"326.26 943.08 LINE",
"429.48 794.25 LINE"
);
}
);
width = 694;
}
);
leftKerningGroup = C;
note = Ograve;
rightKerningGroup = O;
unicode = 00D2;
},
{
glyphname = uni1ECE;
lastChange = "2019-09-04 12:41:08 +0000";
layers = (
{
hints = (
{
horizontal = 1;
place = "{0, 80.71}";
type = Stem;
},
{
horizontal = 1;
place = "{656.29, 80.71}";
type = Stem;
},
{
horizontal = 1;
place = "{946.33, 54.54}";
type = Stem;
},
{
place = "{88.81, 646.68}";
type = Stem;
}
);
layerId = "7AC970EF-486C-4FB8-91F6-C99015BB6A18";
paths = (
{
closed = 1;
nodes = (
"532.6 0 LINE",
"642.38 93.72 LINE",
"735.49 621.77 LINE",
"641.18 737 LINE",
"291.86 737 LINE",
"181.95 643.37 LINE",
"88.81 115.1 LINE",
"183.27 0 LINE"
);
},
{
closed = 1;
nodes = (
"183.51 135.66 LINE",
"265.26 601.33 LINE",
"329.76 656.16 LINE",
"596.01 656.41 LINE",
"640.76 601.33 LINE",
"558.93 135.75 LINE",
"494.59 80.83 LINE",
"228.34 80.58 LINE"
);
},
{
closed = 1;
nodes = (
"511.36 794.25 LINE",
"516.23 821.58 LINE",
"596.79 879.55 LINE",
"609.03 948.94 LINE",
"567.46 1000.87 LINE",
"464.95 1000.87 LINE",
"413.97 957.14 LINE",
"451.74 911.46 LINE",
"492.45 946.33 LINE",
"531.26 946.33 LINE",
"541.05 934.04 LINE",
"536.66 909.37 LINE",
"460.99 852.58 LINE",
"450.66 794.25 LINE"
);
}
);
width = 694;
}
);
leftKerningGroup = C;
note = uni1ECE;
rightKerningGroup = O;
unicode = 1ECE;
},
{
glyphname = Ohorn;
lastChange = "2019-09-04 12:41:08 +0000";
layers = (
{
hints = (
{
horizontal = 1;
place = "{0, 80.71}";
type = Stem;
},
{
horizontal = 1;
place = "{615.29, 58.42}";
type = Stem;
},
{
place = "{88.81, 792.1}";
type = Stem;
},
{
horizontal = 1;
place = "{656.29, 80.71}";
type = Stem;
}
);
layerId = "7AC970EF-486C-4FB8-91F6-C99015BB6A18";
paths = (
{
closed = 1;
nodes = (
"532.6 0 LINE",
"642.38 93.72 LINE",
"734.34 615.29 LINE",
"783.05 615.29 LINE",
"880.91 802.08 LINE",
"779.76 802.08 LINE",
"734.68 673.71 LINE",
"692.98 673.71 LINE",
"641.18 737 LINE",
"291.86 737 LINE",
"181.95 643.37 LINE",
"88.81 115.1 LINE",
"183.27 0 LINE"
);
},
{
closed = 1;
nodes = (
"183.51 135.66 LINE",
"265.26 601.33 LINE",
"329.76 656.16 LINE",
"596.01 656.41 LINE",
"640.76 601.33 LINE",
"558.93 135.75 LINE",
"494.59 80.83 LINE",
"228.34 80.58 LINE"
);
}
);
width = 694;
}
);
leftKerningGroup = C;
note = Ohorn;
rightKerningGroup = O;
unicode = 01A0;
},
{
glyphname = uni1EDA;
lastChange = "2019-09-04 12:41:08 +0000";
layers = (
{
hints = (
{
horizontal = 1;
place = "{0, 80.71}";
type = Stem;
},
{
horizontal = 1;
place = "{656.29, 80.71}";
type = Stem;
},
{
horizontal = 1;
place = "{794.25, 148.83}";
type = Stem;
},
{
place = "{88.81, 792.1}";
type = Stem;
},
{
horizontal = 1;
place = "{615.29, 58.42}";
type = Stem;
}
);
layerId = "7AC970EF-486C-4FB8-91F6-C99015BB6A18";
paths = (
{
closed = 1;
nodes = (
"532.6 0 LINE",
"642.38 93.72 LINE",
"734.34 615.29 LINE",
"783.05 615.29 LINE",
"880.91 802.08 LINE",
"779.76 802.08 LINE",
"734.68 673.71 LINE",
"692.98 673.71 LINE",
"641.18 737 LINE",
"291.86 737 LINE",
"181.95 643.37 LINE",
"88.81 115.1 LINE",
"183.27 0 LINE"
);
},
{
closed = 1;
nodes = (
"183.51 135.66 LINE",
"265.26 601.33 LINE",
"329.76 656.16 LINE",
"596.01 656.41 LINE",
"640.76 601.33 LINE",
"558.93 135.75 LINE",
"494.59 80.83 LINE",
"228.34 80.58 LINE"
);
},
{
closed = 1;
nodes = (
"526.46 794.25 LINE",
"683.62 943.08 LINE",
"565.28 943.08 LINE",
"443.28 794.25 LINE"
);
}
);
width = 694;
}
);
leftKerningGroup = C;
note = uni1EDA;
rightKerningGroup = O;
unicode = 1EDA;
},
{
glyphname = uni1EE2;
lastChange = "2019-09-04 12:41:08 +0000";
layers = (
{
hints = (
{
horizontal = 1;
place = "{-175.29, 118.04}";
type = Stem;
},
{
horizontal = 1;
place = "{0, 80.71}";
type = Stem;
},
{
horizontal = 1;
place = "{615.29, 58.42}";
type = Stem;
},
{
place = "{88.81, 792.1}";
type = Stem;
},
{
horizontal = 1;
place = "{656.29, 80.71}";
type = Stem;
}
);
layerId = "7AC970EF-486C-4FB8-91F6-C99015BB6A18";
paths = (
{
closed = 1;
nodes = (
"532.6 0 LINE",
"642.38 93.72 LINE",
"734.34 615.29 LINE",
"783.05 615.29 LINE",
"880.91 802.08 LINE",
"779.76 802.08 LINE",
"734.68 673.71 LINE",
"692.98 673.71 LINE",
"641.18 737 LINE",
"291.86 737 LINE",
"181.95 643.37 LINE",
"88.81 115.1 LINE",
"183.27 0 LINE"
);
},
{
closed = 1;
nodes = (
"363.22 -175.29 LINE",
"384.05 -57.25 LINE",
"296.05 -57.25 LINE",
"275.22 -175.29 LINE"
);
},
{
closed = 1;
nodes = (
"183.51 135.66 LINE",
"265.26 601.33 LINE",
"329.76 656.16 LINE",
"596.01 656.41 LINE",
"640.76 601.33 LINE",
"558.93 135.75 LINE",
"494.59 80.83 LINE",
"228.34 80.58 LINE"
);
}
);
width = 694;
}
);
leftKerningGroup = C;
note = uni1EE2;
rightKerningGroup = O;
unicode = 1EE2;
},
{
glyphname = uni1EDC;
lastChange = "2019-09-04 12:41:08 +0000";
layers = (
{
hints = (
{
horizontal = 1;
place = "{0, 80.71}";
type = Stem;
},
{
horizontal = 1;
place = "{656.29, 80.71}";
type = Stem;
},
{
horizontal = 1;
place = "{794.25, 148.83}";
type = Stem;
},
{
place = "{88.81, 792.1}";
type = Stem;
},
{
horizontal = 1;
place = "{615.29, 58.42}";
type = Stem;
}
);
layerId = "7AC970EF-486C-4FB8-91F6-C99015BB6A18";
paths = (
{
closed = 1;
nodes = (
"532.6 0 LINE",
"642.38 93.72 LINE",
"734.34 615.29 LINE",
"783.05 615.29 LINE",
"880.91 802.08 LINE",
"779.76 802.08 LINE",
"734.68 673.71 LINE",
"692.98 673.71 LINE",
"641.18 737 LINE",
"291.86 737 LINE",
"181.95 643.37 LINE",
"88.81 115.1 LINE",
"183.27 0 LINE"
);
},
{
closed = 1;
nodes = (
"183.51 135.66 LINE",
"265.26 601.33 LINE",
"329.76 656.16 LINE",
"596.01 656.41 LINE",
"640.76 601.33 LINE",
"558.93 135.75 LINE",
"494.59 80.83 LINE",
"228.34 80.58 LINE"
);
},
{
closed = 1;
nodes = (
"501.39 794.25 LINE",
"431.97 943.08 LINE",
"326.26 943.08 LINE",
"429.48 794.25 LINE"
);
}
);
width = 694;
}
);
leftKerningGroup = C;
note = uni1EDC;
rightKerningGroup = O;
unicode = 1EDC;
},
{
glyphname = uni1EDE;
lastChange = "2019-09-04 12:41:08 +0000";
layers = (
{
hints = (
{
horizontal = 1;
place = "{0, 80.71}";
type = Stem;
},
{
horizontal = 1;
place = "{656.29, 80.71}";
type = Stem;
},
{
horizontal = 1;
place = "{946.33, 54.54}";
type = Stem;
},
{
place = "{88.81, 792.1}";
type = Stem;
},
{
horizontal = 1;
place = "{615.29, 58.42}";
type = Stem;
}
);
layerId = "7AC970EF-486C-4FB8-91F6-C99015BB6A18";
paths = (
{
closed = 1;
nodes = (
"532.6 0 LINE",
"642.38 93.72 LINE",
"734.34 615.29 LINE",
"783.05 615.29 LINE",
"880.91 802.08 LINE",
"779.76 802.08 LINE",
"734.68 673.71 LINE",
"692.98 673.71 LINE",
"641.18 737 LINE",
"291.86 737 LINE",
"181.95 643.37 LINE",
"88.81 115.1 LINE",
"183.27 0 LINE"
);
},
{
closed = 1;
nodes = (
"183.51 135.66 LINE",
"265.26 601.33 LINE",
"329.76 656.16 LINE",
"596.01 656.41 LINE",
"640.76 601.33 LINE",
"558.93 135.75 LINE",
"494.59 80.83 LINE",
"228.34 80.58 LINE"
);
},
{
closed = 1;
nodes = (
"511.36 794.25 LINE",
"516.23 821.58 LINE",
"596.79 879.55 LINE",
"609.03 948.94 LINE",
"567.46 1000.87 LINE",
"464.95 1000.87 LINE",
"413.97 957.14 LINE",
"451.74 911.46 LINE",
"492.45 946.33 LINE",
"531.26 946.33 LINE",
"541.05 934.04 LINE",
"536.66 909.37 LINE",
"460.99 852.58 LINE",
"450.66 794.25 LINE"
);
}
);
width = 694;
}
);
leftKerningGroup = C;
note = uni1EDE;
rightKerningGroup = O;
unicode = 1EDE;
},
{
glyphname = uni1EE0;
lastChange = "2019-09-04 12:41:08 +0000";
layers = (
{
hints = (
{
horizontal = 1;
place = "{0, 80.71}";
type = Stem;
},
{
horizontal = 1;
place = "{656.29, 80.71}";
type = Stem;
},
{
horizontal = 1;
place = "{863.91, 57.55}";
type = Stem;
},
{
place = "{88.81, 792.1}";
type = Stem;
},
{
horizontal = 1;
place = "{794.25, 57.54}";
type = Stem;
},
{
horizontal = 1;
place = "{615.29, 58.42}";
type = Stem;
}
);
layerId = "7AC970EF-486C-4FB8-91F6-C99015BB6A18";
paths = (
{
closed = 1;
nodes = (
"532.6 0 LINE",
"642.38 93.72 LINE",
"734.34 615.29 LINE",
"783.05 615.29 LINE",
"880.91 802.08 LINE",
"779.76 802.08 LINE",
"734.68 673.71 LINE",
"692.98 673.71 LINE",
"641.18 737 LINE",
"291.86 737 LINE",
"181.95 643.37 LINE",
"88.81 115.1 LINE",
"183.27 0 LINE"
);
},
{
closed = 1;
nodes = (
"183.51 135.66 LINE",
"265.26 601.33 LINE",
"329.76 656.16 LINE",
"596.01 656.41 LINE",
"640.76 601.33 LINE",
"558.93 135.75 LINE",
"494.59 80.83 LINE",
"228.34 80.58 LINE"
);
},
{
closed = 1;
nodes = (
"609.31 794.25 LINE",
"672.13 848.34 LINE",
"685.74 919.21 LINE",
"632.74 919.21 LINE",
"626.2 888.04 LINE",
"583.11 851.79 LINE",
"546.59 851.79 LINE",
"487.05 921.46 LINE",
"385.57 921.46 LINE",
"322.63 866.92 LINE",
"309.08 796.41 LINE",
"362.16 796.41 LINE",
"368.74 827.54 LINE",
"411.74 863.91 LINE",
"452.4 863.91 LINE",
"511.94 794.25 LINE"
);
}
);
width = 694;
}
);
leftKerningGroup = C;
note = uni1EE0;
rightKerningGroup = O;
unicode = 1EE0;
},
{
glyphname = Ohungarumlaut;
lastChange = "2019-09-04 12:41:08 +0000";
layers = (
{
hints = (
{
horizontal = 1;
place = "{0, 80.71}";
type = Stem;
},
{
horizontal = 1;
place = "{656.29, 80.71}";
type = Stem;
},
{
horizontal = 1;
place = "{794.25, 148.83}";
type = Stem;
},
{
place = "{88.81, 670.44}";
type = Stem;
}
);
layerId = "7AC970EF-486C-4FB8-91F6-C99015BB6A18";
paths = (
{
closed = 1;
nodes = (
"532.6 0 LINE",
"642.38 93.72 LINE",
"735.49 621.77 LINE",
"641.18 737 LINE",
"291.86 737 LINE",
"181.95 643.37 LINE",
"88.81 115.1 LINE",
"183.27 0 LINE"
);
},
{
closed = 1;
nodes = (
"183.51 135.66 LINE",
"265.26 601.33 LINE",
"329.76 656.16 LINE",
"596.01 656.41 LINE",
"640.76 601.33 LINE",
"558.93 135.75 LINE",
"494.59 80.83 LINE",
"228.34 80.58 LINE"
);
},
{
closed = 1;
nodes = (
"436.34 794.25 LINE",
"593.5 943.08 LINE",
"475.16 943.08 LINE",
"353.16 794.25 LINE"
);
},
{
closed = 1;
nodes = (
"602.09 794.25 LINE",
"759.25 943.08 LINE",
"640.91 943.08 LINE",
"518.91 794.25 LINE"
);
}
);
width = 694;
}
);
leftKerningGroup = C;
note = Ohungarumlaut;
rightKerningGroup = O;
unicode = 0150;
},
{
glyphname = uni020E;
lastChange = "2019-09-04 12:41:08 +0000";
layers = (
{
hints = (
{
horizontal = 1;
place = "{0, 80.71}";
type = Stem;
},
{
horizontal = 1;
place = "{656.29, 80.71}";
type = Stem;
},
{
horizontal = 1;
place = "{869.37, 59.04}";
type = Stem;
},
{
place = "{88.81, 646.68}";
type = Stem;
}
);
layerId = "7AC970EF-486C-4FB8-91F6-C99015BB6A18";
paths = (
{
closed = 1;
nodes = (
"532.6 0 LINE",
"642.38 93.72 LINE",
"735.49 621.77 LINE",
"641.18 737 LINE",
"291.86 737 LINE",
"181.95 643.37 LINE",
"88.81 115.1 LINE",
"183.27 0 LINE"
);
},
{
closed = 1;
nodes = (
"183.51 135.66 LINE",
"265.26 601.33 LINE",
"329.76 656.16 LINE",
"596.01 656.41 LINE",
"640.76 601.33 LINE",
"558.93 135.75 LINE",
"494.59 80.83 LINE",
"228.34 80.58 LINE"
);
},
{
closed = 1;
nodes = (
"405.2 794.25 LINE",
"413.95 843.75 LINE",
"444.11 869.37 LINE",
"547.53 869.37 LINE",
"568.61 843.75 LINE",
"559.86 794.25 LINE",
"620.45 794.25 LINE",
"631.84 858.52 LINE",
"574.61 928.41 LINE",
"423.64 928.41 LINE",
"358.6 873.31 LINE",
"344.61 794.25 LINE"
);
}
);
width = 694;
}
);
leftKerningGroup = C;
note = uni020E;
rightKerningGroup = O;
unicode = 020E;
},
{
glyphname = Omacron;
lastChange = "2019-09-04 12:41:08 +0000";
layers = (
{
hints = (
{
horizontal = 1;
place = "{0, 80.71}";
type = Stem;
},
{
horizontal = 1;
place = "{656.29, 80.71}";
type = Stem;
},
{
horizontal = 1;
place = "{794.25, 67.04}";
type = Stem;
},
{
place = "{88.81, 646.68}";
type = Stem;
}
);
layerId = "7AC970EF-486C-4FB8-91F6-C99015BB6A18";
paths = (
{
closed = 1;
nodes = (
"532.6 0 LINE",
"642.38 93.72 LINE",
"735.49 621.77 LINE",
"641.18 737 LINE",
"291.86 737 LINE",
"181.95 643.37 LINE",
"88.81 115.1 LINE",
"183.27 0 LINE"
);
},
{
closed = 1;
nodes = (
"183.51 135.66 LINE",
"265.26 601.33 LINE",
"329.76 656.16 LINE",
"596.01 656.41 LINE",
"640.76 601.33 LINE",
"558.93 135.75 LINE",
"494.59 80.83 LINE",
"228.34 80.58 LINE"
);
},
{
closed = 1;
nodes = (
"660.57 794.25 LINE",
"672.49 861.29 LINE",
"319.07 861.29 LINE",
"307.16 794.25 LINE"
);
}
);
width = 694;
}
);
leftKerningGroup = C;
note = Omacron;
rightKerningGroup = O;
unicode = 014C;
},
{
glyphname = uni01EA;
lastChange = "2019-09-04 12:41:08 +0000";
layers = (
{
hints = (
{
horizontal = 1;
place = "{-160.63, 61.59}";
type = Stem;
},
{
horizontal = 1;
place = "{0, 80.71}";
type = Stem;
},
{
horizontal = 1;
place = "{656.29, 80.71}";
type = Stem;
},
{
place = "{88.81, 646.68}";
type = Stem;
}
);
layerId = "7AC970EF-486C-4FB8-91F6-C99015BB6A18";
paths = (
{
closed = 1;
nodes = (
"517.72 -160.63 LINE",
"528.58 -99.04 LINE",
"499.99 -99.04 LINE",
"479.8 -74.42 LINE",
"485.75 -40.63 LINE",
"532.58 0 LINE",
"532.6 0 LINE",
"642.38 93.72 LINE",
"735.49 621.77 LINE",
"641.18 737 LINE",
"291.86 737 LINE",
"181.95 643.37 LINE",
"88.81 115.1 LINE",
"183.27 0 LINE",
"473.09 0 LINE",
"429.11 -33.41 LINE",
"418.22 -95.05 LINE",
"472.07 -160.63 LINE"
);
},
{
closed = 1;
nodes = (
"183.51 135.66 LINE",
"265.26 601.33 LINE",
"329.76 656.16 LINE",
"596.01 656.41 LINE",
"640.76 601.33 LINE",
"558.93 135.75 LINE",
"494.59 80.83 LINE",
"228.34 80.58 LINE"
);
}
);
width = 694;
}
);
leftKerningGroup = C;
note = uni01EA;
rightKerningGroup = O;
unicode = 01EA;
},
{
glyphname = Oslash;
lastChange = "2019-09-04 12:41:08 +0000";
layers = (
{
hints = (
{
horizontal = 1;
place = "{0, 80.71}";
type = Stem;
},
{
horizontal = 1;
place = "{656.29, 80.71}";
type = Stem;
},
{
place = "{88.81, 646.68}";
type = Stem;
}
);
layerId = "7AC970EF-486C-4FB8-91F6-C99015BB6A18";
paths = (
{
closed = 1;
nodes = (
"532.6 0 LINE",
"642.38 93.72 LINE",
"735.49 621.77 LINE",
"641.18 737 LINE",
"291.86 737 LINE",
"181.95 643.37 LINE",
"88.81 115.1 LINE",
"183.27 0 LINE"
);
},
{
closed = 1;
nodes = (
"224.32 85.53 LINE",
"637.66 583.71 LINE",
"558.93 135.75 LINE",
"494.59 80.83 LINE",
"228.34 80.58 LINE"
);
},
{
closed = 1;
nodes = (
"265.26 601.33 LINE",
"329.76 656.16 LINE",
"596.01 656.41 LINE",
"600.31 651.12 LINE",
"186.43 152.27 LINE"
);
}
);
width = 694;
}
);
leftKerningGroup = C;
note = Oslash;
rightKerningGroup = O;
unicode = 00D8;
},
{
glyphname = Oslashacute;
lastChange = "2019-09-04 12:41:08 +0000";
layers = (
{
hints = (
{
horizontal = 1;
place = "{0, 80.71}";
type = Stem;
},
{
horizontal = 1;
place = "{656.29, 80.71}";
type = Stem;
},
{
horizontal = 1;
place = "{794.25, 148.83}";
type = Stem;
},
{
place = "{88.81, 646.68}";
type = Stem;
}
);
layerId = "7AC970EF-486C-4FB8-91F6-C99015BB6A18";
paths = (
{
closed = 1;
nodes = (
"532.6 0 LINE",
"642.38 93.72 LINE",
"735.49 621.77 LINE",
"641.18 737 LINE",
"291.86 737 LINE",
"181.95 643.37 LINE",
"88.81 115.1 LINE",
"183.27 0 LINE"
);
},
{
closed = 1;
nodes = (
"224.32 85.53 LINE",
"637.66 583.71 LINE",
"558.93 135.75 LINE",
"494.59 80.83 LINE",
"228.34 80.58 LINE"
);
},
{
closed = 1;
nodes = (
"265.26 601.33 LINE",
"329.76 656.16 LINE",
"596.01 656.41 LINE",
"600.31 651.12 LINE",
"186.43 152.27 LINE"
);
},
{
closed = 1;
nodes = (
"526.46 794.25 LINE",
"683.62 943.08 LINE",
"565.28 943.08 LINE",
"443.28 794.25 LINE"
);
}
);
width = 694;
}
);
leftKerningGroup = C;
note = Oslashacute;
rightKerningGroup = O;
unicode = 01FE;
},
{
glyphname = Otilde;
lastChange = "2019-09-04 12:41:08 +0000";
layers = (
{
hints = (
{
horizontal = 1;
place = "{0, 80.71}";
type = Stem;
},
{
horizontal = 1;
place = "{656.29, 80.71}";
type = Stem;
},
{
horizontal = 1;
place = "{863.91, 57.55}";
type = Stem;
},
{
place = "{88.81, 646.68}";
type = Stem;
},
{
horizontal = 1;
place = "{794.25, 57.54}";
type = Stem;
}
);
layerId = "7AC970EF-486C-4FB8-91F6-C99015BB6A18";
paths = (
{
closed = 1;
nodes = (
"532.6 0 LINE",
"642.38 93.72 LINE",
"735.49 621.77 LINE",
"641.18 737 LINE",
"291.86 737 LINE",
"181.95 643.37 LINE",
"88.81 115.1 LINE",
"183.27 0 LINE"
);
},
{
closed = 1;
nodes = (
"183.51 135.66 LINE",
"265.26 601.33 LINE",
"329.76 656.16 LINE",
"596.01 656.41 LINE",
"640.76 601.33 LINE",
"558.93 135.75 LINE",
"494.59 80.83 LINE",
"228.34 80.58 LINE"
);
},
{
closed = 1;
nodes = (
"609.31 794.25 LINE",
"672.13 848.34 LINE",
"685.74 919.21 LINE",
"632.74 919.21 LINE",
"626.2 888.04 LINE",
"583.11 851.79 LINE",
"546.59 851.79 LINE",
"487.05 921.46 LINE",
"385.57 921.46 LINE",
"322.63 866.92 LINE",
"309.08 796.41 LINE",
"362.16 796.41 LINE",
"368.74 827.54 LINE",
"411.74 863.91 LINE",
"452.4 863.91 LINE",
"511.94 794.25 LINE"
);
}
);
width = 694;
}
);
leftKerningGroup = C;
note = Otilde;
rightKerningGroup = O;
unicode = 00D5;
},
{
glyphname = uni022C;
lastChange = "2019-09-04 12:41:08 +0000";
layers = (
{
hints = (
{
horizontal = 1;
place = "{0, 80.71}";
type = Stem;
},
{
horizontal = 1;
place = "{656.29, 80.71}";
type = Stem;
},
{
horizontal = 1;
place = "{863.91, 57.55}";
type = Stem;
},
{
horizontal = 1;
place = "{953.44, 67.04}";
type = Stem;
},
{
place = "{88.81, 646.68}";
type = Stem;
},
{
horizontal = 1;
place = "{794.25, 57.54}";
type = Stem;
}
);
layerId = "7AC970EF-486C-4FB8-91F6-C99015BB6A18";
paths = (
{
closed = 1;
nodes = (
"532.6 0 LINE",
"642.38 93.72 LINE",
"735.49 621.77 LINE",
"641.18 737 LINE",
"291.86 737 LINE",
"181.95 643.37 LINE",
"88.81 115.1 LINE",
"183.27 0 LINE"
);
},
{
closed = 1;
nodes = (
"183.51 135.66 LINE",
"265.26 601.33 LINE",
"329.76 656.16 LINE",
"596.01 656.41 LINE",
"640.76 601.33 LINE",
"558.93 135.75 LINE",
"494.59 80.83 LINE",
"228.34 80.58 LINE"
);
},
{
closed = 1;
nodes = (
"609.31 794.25 LINE",
"672.13 848.34 LINE",
"685.74 919.21 LINE",
"632.74 919.21 LINE",
"626.2 888.04 LINE",
"583.11 851.79 LINE",
"546.59 851.79 LINE",
"487.05 921.46 LINE",
"385.57 921.46 LINE",
"322.63 866.92 LINE",
"309.08 796.41 LINE",
"362.16 796.41 LINE",
"368.74 827.54 LINE",
"411.74 863.91 LINE",
"452.4 863.91 LINE",
"511.94 794.25 LINE"
);
},
{
closed = 1;
nodes = (
"692.36 953.44 LINE",
"704.28 1020.48 LINE",
"350.86 1020.48 LINE",
"338.95 953.44 LINE"
);
}
);
width = 694;
}
);
leftKerningGroup = C;
note = uni022C;
rightKerningGroup = O;
unicode = 022C;
},
{
glyphname = OE;
lastChange = "2019-09-04 12:41:08 +0000";
layers = (
{
hints = (
{
horizontal = 1;
place = "{0, 83.58}";
type = Stem;
},
{
horizontal = 1;
place = "{345.75, 83.58}";
type = Stem;
},
{
horizontal = 1;
place = "{653.41, 83.59}";
type = Stem;
},
{
place = "{88.81, 1061.85}";
type = Stem;
}
);
layerId = "7AC970EF-486C-4FB8-91F6-C99015BB6A18";
paths = (
{
closed = 1;
nodes = (
"1020.66 0 LINE",
"1035.37 83.58 LINE",
"640.79 83.58 LINE",
"687.01 345.75 LINE",
"1039.83 345.75 LINE",
"1054.54 429.33 LINE",
"701.75 429.33 LINE",
"741.26 653.41 LINE",
"1135.87 653.41 LINE",
"1150.66 737 LINE",
"291.86 737 LINE",
"181.95 643.37 LINE",
"88.81 115.1 LINE",
"183.27 0 LINE"
);
},
{
closed = 1;
nodes = (
"183.51 135.66 LINE",
"265.26 601.33 LINE",
"329.76 656.16 LINE",
"596.01 656.41 LINE",
"640.76 601.33 LINE",
"634.93 568.16 LINE",
"558.64 135.5 LINE",
"494.59 80.83 LINE",
"228.34 80.58 LINE"
);
}
);
width = 1072;
}
);
leftKerningGroup = C;
note = OE;
rightKerningGroup = AE;
unicode = 0152;
},
{
glyphname = P;
lastChange = "2019-09-04 12:41:08 +0000";
layers = (
{
hints = (
{
horizontal = 1;
place = "{273.91, 80.77}";
type = Stem;
},
{
horizontal = 1;
place = "{656.43, 80.57}";
type = Stem;
},
{
place = "{86.66, 603.23}";
type = Stem;
}
);
layerId = "7AC970EF-486C-4FB8-91F6-C99015BB6A18";
paths = (
{
closed = 1;
nodes = (
"177.96 0 LINE",
"226.26 273.91 LINE",
"535.25 273.91 LINE",
"645.03 367.63 LINE",
"689.89 621.85 LINE",
"596.36 737 LINE",
"216.62 737 LINE",
"86.66 0 LINE"
);
},
{
closed = 1;
nodes = (
"293.7 656.35 LINE",
"550.41 656.5 LINE",
"595.08 601.33 LINE",
"561.58 409.66 LINE",
"497.18 354.75 LINE",
"240.49 354.6 LINE"
);
}
);
width = 610;
}
);
leftKerningGroup = B;
note = P;
rightKerningGroup = P;
unicode = 0050;
},
{
glyphname = Thorn;
lastChange = "2019-09-04 12:41:08 +0000";
layers = (
{
hints = (
{
horizontal = 1;
place = "{147, 80.76}";
type = Stem;
},
{
horizontal = 1;
place = "{529.51, 80.57}";
type = Stem;
},
{
place = "{86.66, 581.11}";
type = Stem;
}
);
layerId = "7AC970EF-486C-4FB8-91F6-C99015BB6A18";
paths = (
{
closed = 1;
nodes = (
"177.96 -1.5 LINE",
"204.15 147 LINE",
"513.12 147 LINE",
"622.91 240.72 LINE",
"667.77 494.94 LINE",
"574.24 610.08 LINE",
"285.8 610.08 LINE",
"307.92 735.5 LINE",
"216.62 735.5 LINE",
"86.66 -1.5 LINE"
);
},
{
closed = 1;
nodes = (
"271.58 529.43 LINE",
"528.29 529.58 LINE",
"572.96 474.41 LINE",
"539.45 282.75 LINE",
"475.05 227.83 LINE",
"218.37 227.68 LINE"
);
}
);
width = 610;
}
);
note = Thorn;
rightKerningGroup = Thorn;
unicode = 00DE;
},
{
glyphname = Q;
lastChange = "2019-09-04 12:41:08 +0000";
layers = (
{
hints = (
{
horizontal = 1;
place = "{0, 80.79}";
type = Stem;
},
{
horizontal = 1;
place = "{656.29, 80.71}";
type = Stem;
},
{
place = "{88.81, 646.68}";
type = Stem;
}
);
layerId = "7AC970EF-486C-4FB8-91F6-C99015BB6A18";
paths = (
{
closed = 1;
nodes = (
"369.16 -102.34 LINE",
"387.22 0 LINE",
"532.6 0 LINE",
"642.38 93.72 LINE",
"735.49 621.77 LINE",
"641.18 737 LINE",
"291.86 737 LINE",
"181.95 643.37 LINE",
"88.81 115.1 LINE",
"183.27 0 LINE",
"306.72 0 LINE",
"288.66 -102.34 LINE"
);
},
{
closed = 1;
nodes = (
"183.51 135.66 LINE",
"265.26 601.33 LINE",
"329.76 656.16 LINE",
"596.01 656.41 LINE",
"640.76 601.33 LINE",
"558.93 135.75 LINE",
"494.59 80.83 LINE",
"401.47 80.74 LINE",
"420.29 187.37 LINE",
"339.79 187.37 LINE",
"320.96 80.67 LINE",
"228.34 80.58 LINE"
);
}
);
width = 694;
}
);
leftKerningGroup = C;
note = Q;
rightKerningGroup = O;
unicode = 0051;
},
{
glyphname = R;
lastChange = "2019-09-04 12:41:08 +0000";
layers = (
{
hints = (
{
horizontal = 1;
place = "{292.19, 80.82}";
type = Stem;
},
{
horizontal = 1;
place = "{656.38, 80.65}";
type = Stem;
},
{
place = "{86.66, 617.63}";
type = Stem;
}
);
layerId = "7AC970EF-486C-4FB8-91F6-C99015BB6A18";
paths = (
{
closed = 1;
nodes = (
"177.96 0 LINE",
"229.48 292.19 LINE",
"439.61 292.19 LINE",
"519.31 0 LINE",
"620.37 0 LINE",
"538.35 292.19 LINE",
"544.16 292.19 LINE",
"663.83 394.97 LINE",
"704.29 624.82 LINE",
"612.57 737.06 LINE",
"216.61 737 LINE",
"86.66 0 LINE"
);
},
{
closed = 1;
nodes = (
"293.68 656.32 LINE",
"564.51 656.44 LINE",
"609.13 601.31 LINE",
"578.83 427.94 LINE",
"514.51 373.06 LINE",
"243.72 372.95 LINE"
);
}
);
width = 677;
}
);
leftKerningGroup = B;
note = R;
rightKerningGroup = R;
unicode = 0052;
},
{
glyphname = Racute;
lastChange = "2019-09-04 12:41:08 +0000";
layers = (
{
hints = (
{
horizontal = 1;
place = "{292.19, 80.82}";
type = Stem;
},
{
horizontal = 1;
place = "{656.38, 80.65}";
type = Stem;
},
{
horizontal = 1;
place = "{794.25, 148.83}";
type = Stem;
},
{
place = "{86.66, 617.63}";
type = Stem;
}
);
layerId = "7AC970EF-486C-4FB8-91F6-C99015BB6A18";
paths = (
{
closed = 1;
nodes = (
"177.96 0 LINE",
"229.48 292.19 LINE",
"439.61 292.19 LINE",
"519.31 0 LINE",
"620.37 0 LINE",
"538.35 292.19 LINE",
"544.16 292.19 LINE",
"663.83 394.97 LINE",
"704.29 624.82 LINE",
"612.57 737.06 LINE",
"216.61 737 LINE",
"86.66 0 LINE"
);
},
{
closed = 1;
nodes = (
"293.68 656.32 LINE",
"564.51 656.44 LINE",
"609.13 601.31 LINE",
"578.83 427.94 LINE",
"514.51 373.06 LINE",
"243.72 372.95 LINE"
);
},
{
closed = 1;
nodes = (
"492.95 794.25 LINE",
"650.11 943.08 LINE",
"531.77 943.08 LINE",
"409.77 794.25 LINE"
);
}
);
width = 677;
}
);
note = Racute;
rightKerningGroup = R;
unicode = 0154;
},
{
glyphname = Rcaron;
lastChange = "2019-09-04 12:41:08 +0000";
layers = (
{
hints = (
{
horizontal = 1;
place = "{292.19, 80.82}";
type = Stem;
},
{
horizontal = 1;
place = "{656.38, 80.65}";
type = Stem;
},
{
horizontal = 1;
place = "{794.25, 141.16}";
type = Stem;
},
{
place = "{86.66, 617.63}";
type = Stem;
}
);
layerId = "7AC970EF-486C-4FB8-91F6-C99015BB6A18";
paths = (
{
closed = 1;
nodes = (
"177.96 0 LINE",
"229.48 292.19 LINE",
"439.61 292.19 LINE",
"519.31 0 LINE",
"620.37 0 LINE",
"538.35 292.19 LINE",
"544.16 292.19 LINE",
"663.83 394.97 LINE",
"704.29 624.82 LINE",
"612.57 737.06 LINE",
"216.61 737 LINE",
"86.66 0 LINE"
);
},
{
closed = 1;
nodes = (
"293.68 656.32 LINE",
"564.51 656.44 LINE",
"609.13 601.31 LINE",
"578.83 427.94 LINE",
"514.51 373.06 LINE",
"243.72 372.95 LINE"
);
},
{
closed = 1;
nodes = (
"497.42 794.25 LINE",
"622.31 935.41 LINE",
"543.47 935.41 LINE",
"451.51 850.79 LINE",
"445.68 850.79 LINE",
"383.55 935.41 LINE",
"312.04 935.41 LINE",
"396.06 794.25 LINE"
);
}
);
width = 677;
}
);
note = Rcaron;
rightKerningGroup = R;
unicode = 0158;
},
{
glyphname = uni0156;
lastChange = "2019-09-04 12:41:08 +0000";
layers = (
{
hints = (
{
horizontal = 1;
place = "{-232.09, 174.84}";
type = Stem;
},
{
horizontal = 1;
place = "{292.19, 80.82}";
type = Stem;
},
{
horizontal = 1;
place = "{656.38, 80.65}";
type = Stem;
},
{
place = "{86.66, 617.63}";
type = Stem;
}
);
layerId = "7AC970EF-486C-4FB8-91F6-C99015BB6A18";
paths = (
{
closed = 1;
nodes = (
"177.96 0 LINE",
"229.48 292.19 LINE",
"439.61 292.19 LINE",
"519.31 0 LINE",
"620.37 0 LINE",
"538.35 292.19 LINE",
"544.16 292.19 LINE",
"663.83 394.97 LINE",
"704.29 624.82 LINE",
"612.57 737.06 LINE",
"216.61 737 LINE",
"86.66 0 LINE"
);
},
{
closed = 1;
nodes = (
"269.35 -232.09 LINE",
"381.95 -57.25 LINE",
"286.04 -57.25 LINE",
"215.66 -232.09 LINE"
);
},
{
closed = 1;
nodes = (
"293.68 656.32 LINE",
"564.51 656.44 LINE",
"609.13 601.31 LINE",
"578.83 427.94 LINE",
"514.51 373.06 LINE",
"243.72 372.95 LINE"
);
}
);
width = 677;
}
);
note = uni0156;
rightKerningGroup = R;
unicode = 0156;
},
{
glyphname = uni0210;
lastChange = "2019-09-04 12:41:08 +0000";
layers = (
{
hints = (
{
horizontal = 1;
place = "{292.19, 80.82}";
type = Stem;
},
{
horizontal = 1;
place = "{656.38, 80.65}";
type = Stem;
},
{
horizontal = 1;
place = "{794.25, 148.83}";
type = Stem;
},
{
place = "{86.66, 617.63}";
type = Stem;
}
);
layerId = "7AC970EF-486C-4FB8-91F6-C99015BB6A18";
paths = (
{
closed = 1;
nodes = (
"177.96 0 LINE",
"229.48 292.19 LINE",
"439.61 292.19 LINE",
"519.31 0 LINE",
"620.37 0 LINE",
"538.35 292.19 LINE",
"544.16 292.19 LINE",
"663.83 394.97 LINE",
"704.29 624.82 LINE",
"612.57 737.06 LINE",
"216.61 737 LINE",
"86.66 0 LINE"
);
},
{
closed = 1;
nodes = (
"293.68 656.32 LINE",
"564.51 656.44 LINE",
"609.13 601.31 LINE",
"578.83 427.94 LINE",
"514.51 373.06 LINE",
"243.72 372.95 LINE"
);
},
{
closed = 1;
nodes = (
"387.89 794.25 LINE",
"318.47 943.08 LINE",
"212.76 943.08 LINE",
"315.98 794.25 LINE"
);
},
{
closed = 1;
nodes = (
"554.1 794.25 LINE",
"484.68 943.08 LINE",
"378.97 943.08 LINE",
"482.18 794.25 LINE"
);
}
);
width = 677;
}
);
note = uni0210;
unicode = 0210;
},
{
glyphname = uni0212;
lastChange = "2019-09-04 12:41:08 +0000";
layers = (
{
hints = (
{
horizontal = 1;
place = "{292.19, 80.82}";
type = Stem;
},
{
horizontal = 1;
place = "{656.38, 80.65}";
type = Stem;
},
{
horizontal = 1;
place = "{869.37, 59.04}";
type = Stem;
},
{
place = "{86.66, 617.63}";
type = Stem;
}
);
layerId = "7AC970EF-486C-4FB8-91F6-C99015BB6A18";
paths = (
{
closed = 1;
nodes = (
"177.96 0 LINE",
"229.48 292.19 LINE",
"439.61 292.19 LINE",
"519.31 0 LINE",
"620.37 0 LINE",
"538.35 292.19 LINE",
"544.16 292.19 LINE",
"663.83 394.97 LINE",
"704.29 624.82 LINE",
"612.57 737.06 LINE",
"216.61 737 LINE",
"86.66 0 LINE"
);
},
{
closed = 1;
nodes = (
"293.68 656.32 LINE",
"564.51 656.44 LINE",
"609.13 601.31 LINE",
"578.83 427.94 LINE",
"514.51 373.06 LINE",
"243.72 372.95 LINE"
);
},
{
closed = 1;
nodes = (
"371.68 794.25 LINE",
"380.43 843.75 LINE",
"410.6 869.37 LINE",
"514.02 869.37 LINE",
"535.1 843.75 LINE",
"526.35 794.25 LINE",
"586.93 794.25 LINE",
"598.32 858.52 LINE",
"541.1 928.41 LINE",
"390.13 928.41 LINE",
"325.08 873.31 LINE",
"311.1 794.25 LINE"
);
}
);
width = 677;
}
);
note = uni0212;
unicode = 0212;
},
{
glyphname = S;
lastChange = "2019-09-04 12:41:08 +0000";
layers = (
{
hints = (
{
horizontal = 1;
place = "{0, 83.67}";
type = Stem;
},
{
horizontal = 1;
place = "{340.75, 80.46}";
type = Stem;
},
{
horizontal = 1;
place = "{653.33, 83.67}";
type = Stem;
},
{
place = "{81.46, 599.66}";
type = Stem;
}
);
layerId = "7AC970EF-486C-4FB8-91F6-C99015BB6A18";
paths = (
{
closed = 1;
nodes = (
"493.36 0 LINE",
"606.7 96.63 LINE",
"643.77 306.89 LINE",
"550.08 421.33 LINE",
"274.91 421.08 LINE",
"230.04 476.33 LINE",
"251.25 598.41 LINE",
"315.83 653.25 LINE",
"666.33 653.41 LINE",
"681.12 737 LINE",
"281.29 737 LINE",
"167.94 640.45 LINE",
"135.23 454.9 LINE",
"229.03 340.66 LINE",
"504.12 340.83 LINE",
"548.87 285.66 LINE",
"523.25 138.66 LINE",
"458.83 83.75 LINE",
"96.16 83.58 LINE",
"81.46 0 LINE"
);
}
);
width = 658;
}
);
leftKerningGroup = S;
note = S;
rightKerningGroup = S;
unicode = 0053;
},
{
glyphname = Sacute;
lastChange = "2019-09-04 12:41:08 +0000";
layers = (
{
hints = (
{
horizontal = 1;
place = "{0, 83.67}";
type = Stem;
},
{
horizontal = 1;
place = "{340.75, 80.46}";
type = Stem;
},
{
horizontal = 1;
place = "{653.33, 83.67}";
type = Stem;
},
{
horizontal = 1;
place = "{794.25, 148.83}";
type = Stem;
},
{
place = "{81.46, 599.66}";
type = Stem;
}
);
layerId = "7AC970EF-486C-4FB8-91F6-C99015BB6A18";
paths = (
{
closed = 1;
nodes = (
"493.36 0 LINE",
"606.7 96.63 LINE",
"643.77 306.89 LINE",
"550.08 421.33 LINE",
"274.91 421.08 LINE",
"230.04 476.33 LINE",
"251.25 598.41 LINE",
"315.83 653.25 LINE",
"666.33 653.41 LINE",
"681.12 737 LINE",
"281.29 737 LINE",
"167.94 640.45 LINE",
"135.23 454.9 LINE",
"229.03 340.66 LINE",
"504.12 340.83 LINE",
"548.87 285.66 LINE",
"523.25 138.66 LINE",
"458.83 83.75 LINE",
"96.16 83.58 LINE",
"81.46 0 LINE"
);
},
{
closed = 1;
nodes = (
"501.26 794.25 LINE",
"658.42 943.08 LINE",
"540.08 943.08 LINE",
"418.08 794.25 LINE"
);
}
);
width = 658;
}
);
leftKerningGroup = S;
note = Sacute;
rightKerningGroup = S;
unicode = 015A;
},
{
glyphname = Scaron;
lastChange = "2019-09-04 12:41:08 +0000";
layers = (
{
hints = (
{
horizontal = 1;
place = "{0, 83.67}";
type = Stem;
},
{
horizontal = 1;
place = "{340.75, 80.46}";
type = Stem;
},
{
horizontal = 1;
place = "{653.33, 83.67}";
type = Stem;
},
{
horizontal = 1;
place = "{794.25, 141.16}";
type = Stem;
},
{
place = "{81.46, 599.66}";
type = Stem;
}
);
layerId = "7AC970EF-486C-4FB8-91F6-C99015BB6A18";
paths = (
{
closed = 1;
nodes = (
"493.36 0 LINE",
"606.7 96.63 LINE",
"643.77 306.89 LINE",
"550.08 421.33 LINE",
"274.91 421.08 LINE",
"230.04 476.33 LINE",
"251.25 598.41 LINE",
"315.83 653.25 LINE",
"666.33 653.41 LINE",
"681.12 737 LINE",
"281.29 737 LINE",
"167.94 640.45 LINE",
"135.23 454.9 LINE",
"229.03 340.66 LINE",
"504.12 340.83 LINE",
"548.87 285.66 LINE",
"523.25 138.66 LINE",
"458.83 83.75 LINE",
"96.16 83.58 LINE",
"81.46 0 LINE"
);
},
{
closed = 1;
nodes = (
"505.74 794.25 LINE",
"630.62 935.41 LINE",
"551.78 935.41 LINE",
"459.82 850.79 LINE",
"453.99 850.79 LINE",
"391.87 935.41 LINE",
"320.35 935.41 LINE",
"404.38 794.25 LINE"
);
}
);
width = 658;
}
);
leftKerningGroup = S;
note = Scaron;
rightKerningGroup = S;
unicode = 0160;
},
{
glyphname = Scedilla;
lastChange = "2019-09-04 12:41:08 +0000";
layers = (
{
hints = (
{
horizontal = 1;
place = "{0, 83.67}";
type = Stem;
},
{
horizontal = 1;
place = "{340.75, 80.46}";
type = Stem;
},
{
horizontal = 1;
place = "{653.33, 83.67}";
type = Stem;
},
{
place = "{81.46, 599.66}";
type = Stem;
}
);
layerId = "7AC970EF-486C-4FB8-91F6-C99015BB6A18";
paths = (
{
closed = 1;
nodes = (
"298.79 -127.59 LINE",
"361.42 0 LINE",
"493.36 0 LINE",
"606.7 96.63 LINE",
"643.77 306.89 LINE",
"550.08 421.33 LINE",
"274.91 421.08 LINE",
"230.04 476.33 LINE",
"251.25 598.41 LINE",
"315.83 653.25 LINE",
"666.33 653.41 LINE",
"681.12 737 LINE",
"281.29 737 LINE",
"167.94 640.45 LINE",
"135.23 454.9 LINE",
"229.03 340.66 LINE",
"504.12 340.83 LINE",
"548.87 285.66 LINE",
"523.25 138.66 LINE",
"458.83 83.75 LINE",
"96.16 83.58 LINE",
"81.46 0 LINE",
"279.54 0 LINE",
"231.33 -127.59 LINE"
);
}
);
width = 658;
}
);
leftKerningGroup = S;
note = Scedilla;
rightKerningGroup = S;
unicode = 015E;
},
{
glyphname = Scircumflex;
lastChange = "2019-09-04 12:41:08 +0000";
layers = (
{
hints = (
{
horizontal = 1;
place = "{0, 83.67}";
type = Stem;
},
{
horizontal = 1;
place = "{340.75, 80.46}";
type = Stem;
},
{
horizontal = 1;
place = "{653.33, 83.67}";
type = Stem;
},
{
horizontal = 1;
place = "{794.25, 141.16}";
type = Stem;
},
{
place = "{81.46, 599.66}";
type = Stem;
}
);
layerId = "7AC970EF-486C-4FB8-91F6-C99015BB6A18";
paths = (
{
closed = 1;
nodes = (
"493.36 0 LINE",
"606.7 96.63 LINE",
"643.77 306.89 LINE",
"550.08 421.33 LINE",
"274.91 421.08 LINE",
"230.04 476.33 LINE",
"251.25 598.41 LINE",
"315.83 653.25 LINE",
"666.33 653.41 LINE",
"681.12 737 LINE",
"281.29 737 LINE",
"167.94 640.45 LINE",
"135.23 454.9 LINE",
"229.03 340.66 LINE",
"504.12 340.83 LINE",
"548.87 285.66 LINE",
"523.25 138.66 LINE",
"458.83 83.75 LINE",
"96.16 83.58 LINE",
"81.46 0 LINE"
);
},
{
closed = 1;
nodes = (
"378.04 794.25 LINE",
"470 878.87 LINE",
"475.83 878.87 LINE",
"537.96 794.25 LINE",
"609.47 794.25 LINE",
"525.44 935.41 LINE",
"424.08 935.41 LINE",
"299.2 794.25 LINE"
);
}
);
width = 658;
}
);
note = Scircumflex;
unicode = 015C;
},
{
glyphname = uni0218;
lastChange = "2019-09-04 12:41:08 +0000";
layers = (
{
hints = (
{
horizontal = 1;
place = "{-232.09, 174.84}";
type = Stem;
},
{
horizontal = 1;
place = "{0, 83.67}";
type = Stem;
},
{
horizontal = 1;
place = "{340.75, 80.46}";
type = Stem;
},
{
horizontal = 1;
place = "{653.33, 83.67}";
type = Stem;
},
{
place = "{81.46, 599.66}";
type = Stem;
}
);
layerId = "7AC970EF-486C-4FB8-91F6-C99015BB6A18";
paths = (
{
closed = 1;
nodes = (
"493.36 0 LINE",
"606.7 96.63 LINE",
"643.77 306.89 LINE",
"550.08 421.33 LINE",
"274.91 421.08 LINE",
"230.04 476.33 LINE",
"251.25 598.41 LINE",
"315.83 653.25 LINE",
"666.33 653.41 LINE",
"681.12 737 LINE",
"281.29 737 LINE",
"167.94 640.45 LINE",
"135.23 454.9 LINE",
"229.03 340.66 LINE",
"504.12 340.83 LINE",
"548.87 285.66 LINE",
"523.25 138.66 LINE",
"458.83 83.75 LINE",
"96.16 83.58 LINE",
"81.46 0 LINE"
);
},
{
closed = 1;
nodes = (
"242.76 -232.09 LINE",
"355.37 -57.25 LINE",
"259.46 -57.25 LINE",
"189.08 -232.09 LINE"
);
}
);
width = 658;
}
);
leftKerningGroup = S;
note = uni0218;
rightKerningGroup = S;
unicode = 0218;
},
{
glyphname = uni1E9E;
lastChange = "2019-09-04 12:41:08 +0000";
layers = (
{
hints = (
{
horizontal = 1;
place = "{0, 80.71}";
type = Stem;
},
{
horizontal = 1;
place = "{353.92, 80.58}";
type = Stem;
},
{
horizontal = 1;
place = "{656.29, 80.71}";
type = Stem;
},
{
place = "{86.66, 591.41}";
type = Stem;
}
);
layerId = "7AC970EF-486C-4FB8-91F6-C99015BB6A18";
paths = (
{
closed = 1;
nodes = (
"177.5 0 LINE",
"283.41 601.33 LINE",
"347.91 656.16 LINE",
"520.45 656.41 LINE",
"567.4 598.59 LINE",
"361.04 419.83 LINE",
"349.41 353.83 LINE",
"531.68 354 LINE",
"583.35 288.11 LINE",
"558.77 146.32 LINE",
"482.11 80.83 LINE",
"369.13 80.58 LINE",
"305.76 157.97 LINE",
"240.53 102.03 LINE",
"324.05 0 LINE",
"520.11 0 LINE",
"642.01 103.97 LINE",
"678.07 308.49 LINE",
"576.93 434.5 LINE",
"485.66 434.5 LINE",
"641.33 570.66 LINE",
"652.24 631.34 LINE",
"565.62 737 LINE",
"310.01 737 LINE",
"200.1 643.36 LINE",
"86.66 0 LINE"
);
}
);
width = 689;
}
);
note = uni1E9E;
unicode = 1E9E;
},
{
glyphname = uni018F;
lastChange = "2019-09-04 12:41:08 +0000";
layers = (
{
hints = (
{
horizontal = 1;
place = "{0, 80.71}";
type = Stem;
},
{
horizontal = 1;
place = "{335, 78}";
type = Stem;
},
{
horizontal = 1;
place = "{656.29, 80.71}";
type = Stem;
},
{
place = "{88.82, 712.67}";
type = Stem;
}
);
layerId = "7AC970EF-486C-4FB8-91F6-C99015BB6A18";
paths = (
{
closed = 1;
nodes = (
"598.6 0 LINE",
"708.38 93.72 LINE",
"801.49 621.77 LINE",
"707.18 737 LINE",
"211.01 737 LINE",
"196.72 656.16 LINE",
"662.01 656.41 LINE",
"706.76 601.33 LINE",
"673.66 413 LINE",
"141.39 413 LINE",
"88.82 115.1 LINE",
"183.27 0 LINE"
);
},
{
closed = 1;
nodes = (
"183.51 135.66 LINE",
"218.51 335 LINE",
"659.95 335 LINE",
"624.93 135.75 LINE",
"560.6 80.83 LINE",
"228.35 80.58 LINE"
);
}
);
width = 760;
}
);
note = uni018F;
unicode = 018F;
},
{
glyphname = T;
lastChange = "2019-09-04 12:41:08 +0000";
layers = (
{
hints = (
{
horizontal = 1;
place = "{653.41, 83.59}";
type = Stem;
},
{
place = "{128.54, 543.12}";
type = Stem;
}
);
layerId = "7AC970EF-486C-4FB8-91F6-C99015BB6A18";
paths = (
{
closed = 1;
nodes = (
"323.46 0 LINE",
"438.68 653.41 LINE",
"656.87 653.41 LINE",
"671.66 737 LINE",
"143.33 737 LINE",
"128.54 653.41 LINE",
"347.38 653.41 LINE",
"232.16 0 LINE"
);
}
);
width = 555;
}
);
leftKerningGroup = T;
note = T;
rightKerningGroup = T;
unicode = 0054;
},
{
glyphname = Tbar;
lastChange = "2019-09-04 12:41:08 +0000";
layers = (
{
hints = (
{
horizontal = 1;
place = "{342.46, 68.91}";
type = Stem;
},
{
horizontal = 1;
place = "{653.41, 83.59}";
type = Stem;
},
{
place = "{128.54, 543.12}";
type = Stem;
}
);
layerId = "7AC970EF-486C-4FB8-91F6-C99015BB6A18";
paths = (
{
closed = 1;
nodes = (
"323.46 0 LINE",
"383.85 342.46 LINE",
"546.87 342.46 LINE",
"559 411.37 LINE",
"396 411.37 LINE",
"438.68 653.41 LINE",
"656.87 653.41 LINE",
"671.66 737 LINE",
"143.33 737 LINE",
"128.54 653.41 LINE",
"347.38 653.41 LINE",
"304.7 411.37 LINE",
"141 411.37 LINE",
"128.87 342.46 LINE",
"292.55 342.46 LINE",
"232.16 0 LINE"
);
}
);
width = 555;
}
);
leftKerningGroup = T;
note = Tbar;
rightKerningGroup = T;
unicode = 0166;
},
{
glyphname = Tcaron;
lastChange = "2019-09-04 12:41:08 +0000";
layers = (
{
hints = (
{
horizontal = 1;
place = "{653.41, 83.59}";
type = Stem;
},
{
horizontal = 1;
place = "{794.25, 141.16}";
type = Stem;
},
{
place = "{128.54, 543.12}";
type = Stem;
}
);
layerId = "7AC970EF-486C-4FB8-91F6-C99015BB6A18";
paths = (
{
closed = 1;
nodes = (
"323.46 0 LINE",
"438.68 653.41 LINE",
"656.87 653.41 LINE",
"671.66 737 LINE",
"143.33 737 LINE",
"128.54 653.41 LINE",
"347.38 653.41 LINE",
"232.16 0 LINE"
);
},
{
closed = 1;
nodes = (
"463.99 794.25 LINE",
"588.87 935.41 LINE",
"510.03 935.41 LINE",
"418.07 850.79 LINE",
"412.24 850.79 LINE",
"350.12 935.41 LINE",
"278.6 935.41 LINE",
"362.63 794.25 LINE"
);
}
);
width = 555;
}
);
leftKerningGroup = T;
note = Tcaron;
rightKerningGroup = T;
unicode = 0164;
},
{
glyphname = uni0162;
lastChange = "2019-09-04 12:41:08 +0000";
layers = (
{
hints = (
{
horizontal = 1;
place = "{653.41, 83.59}";
type = Stem;
},
{
place = "{128.54, 543.12}";
type = Stem;
}
);
layerId = "7AC970EF-486C-4FB8-91F6-C99015BB6A18";
paths = (
{
closed = 1;
nodes = (
"276.82 -127.59 LINE",
"323.15 0 LINE",
"323.46 0 LINE",
"438.68 653.41 LINE",
"656.87 653.41 LINE",
"671.66 737 LINE",
"143.33 737 LINE",
"128.54 653.41 LINE",
"347.38 653.41 LINE",
"232.16 0 LINE",
"246.83 0 LINE",
"213.45 -127.59 LINE"
);
}
);
width = 554;
}
);
leftKerningGroup = T;
note = uni0162;
rightKerningGroup = T;
unicode = 0162;
},
{
glyphname = uni021A;
lastChange = "2019-09-04 12:41:08 +0000";
layers = (
{
hints = (
{
horizontal = 1;
place = "{-232.09, 174.84}";
type = Stem;
},
{
horizontal = 1;
place = "{653.41, 83.59}";
type = Stem;
},
{
place = "{128.54, 543.12}";
type = Stem;
}
);
layerId = "7AC970EF-486C-4FB8-91F6-C99015BB6A18";
paths = (
{
closed = 1;
nodes = (
"323.46 0 LINE",
"438.68 653.41 LINE",
"656.87 653.41 LINE",
"671.66 737 LINE",
"143.33 737 LINE",
"128.54 653.41 LINE",
"347.38 653.41 LINE",
"232.16 0 LINE"
);
},
{
closed = 1;
nodes = (
"201.76 -232.09 LINE",
"314.37 -57.25 LINE",
"218.46 -57.25 LINE",
"148.08 -232.09 LINE"
);
}
);
width = 555;
}
);
leftKerningGroup = T;
note = uni021A;
rightKerningGroup = T;
unicode = 021A;
},
{
glyphname = U;
lastChange = "2019-09-04 12:41:08 +0000";
layers = (
{
hints = (
{
horizontal = 1;
place = "{0, 80.71}";
type = Stem;
},
{
place = "{82.84, 666.36}";
type = Stem;
}
);
layerId = "7AC970EF-486C-4FB8-91F6-C99015BB6A18";
paths = (
{
closed = 1;
nodes = (
"635.52 93.47 LINE",
"749.2 737 LINE",
"658.28 737 LINE",
"552.06 135.5 LINE",
"487.73 80.58 LINE",
"222.38 80.83 LINE",
"177.38 135.83 LINE",
"283.53 737 LINE",
"192.62 737 LINE",
"82.84 115.35 LINE",
"177.3 0.25 LINE",
"525.73 -0.25 LINE"
);
}
);
width = 703;
}
);
note = U;
unicode = 0055;
},
{
glyphname = Uacute;
lastChange = "2019-09-04 12:41:08 +0000";
layers = (
{
hints = (
{
horizontal = 1;
place = "{0, 80.71}";
type = Stem;
},
{
horizontal = 1;
place = "{794.25, 148.83}";
type = Stem;
},
{
place = "{82.84, 666.36}";
type = Stem;
}
);
layerId = "7AC970EF-486C-4FB8-91F6-C99015BB6A18";
paths = (
{
closed = 1;
nodes = (
"635.52 93.47 LINE",
"749.2 737 LINE",
"658.28 737 LINE",
"552.06 135.5 LINE",
"487.73 80.58 LINE",
"222.38 80.83 LINE",
"177.38 135.83 LINE",
"283.53 737 LINE",
"192.62 737 LINE",
"82.84 115.35 LINE",
"177.3 0.25 LINE",
"525.73 -0.25 LINE"
);
},
{
closed = 1;
nodes = (
"519.89 794.25 LINE",
"677.05 943.08 LINE",
"558.71 943.08 LINE",
"436.71 794.25 LINE"
);
}
);
width = 703;
}
);
note = Uacute;
unicode = 00DA;
},
{
glyphname = Ubreve;
lastChange = "2019-09-04 12:41:08 +0000";
layers = (
{
hints = (
{
horizontal = 1;
place = "{0, 80.71}";
type = Stem;
},
{
horizontal = 1;
place = "{794.22, 58.99}";
type = Stem;
},
{
place = "{82.84, 666.36}";
type = Stem;
},
{
horizontal = 1;
place = "{878.91, 49.5}";
type = Stem;
}
);
layerId = "7AC970EF-486C-4FB8-91F6-C99015BB6A18";
paths = (
{
closed = 1;
nodes = (
"635.52 93.47 LINE",
"749.2 737 LINE",
"658.28 737 LINE",
"552.06 135.5 LINE",
"487.73 80.58 LINE",
"222.38 80.83 LINE",
"177.38 135.83 LINE",
"283.53 737 LINE",
"192.62 737 LINE",
"82.84 115.35 LINE",
"177.3 0.25 LINE",
"525.73 -0.25 LINE"
);
},
{
closed = 1;
nodes = (
"553.26 794.25 LINE",
"618.23 849.18 LINE",
"632.25 928.41 LINE",
"571.66 928.41 LINE",
"562.91 878.91 LINE",
"532.75 853.21 LINE",
"429.33 853.21 LINE",
"408.25 878.91 LINE",
"417 928.41 LINE",
"356.41 928.41 LINE",
"344.93 863.31 LINE",
"402.5 794.19 LINE"
);
}
);
width = 703;
}
);
note = Ubreve;
unicode = 016C;
},
{
glyphname = Ucircumflex;
lastChange = "2019-09-04 12:41:08 +0000";
layers = (
{
hints = (
{
horizontal = 1;
place = "{0, 80.71}";
type = Stem;
},
{
horizontal = 1;
place = "{794.25, 141.16}";
type = Stem;
},
{
place = "{82.84, 666.36}";
type = Stem;
}
);
layerId = "7AC970EF-486C-4FB8-91F6-C99015BB6A18";
paths = (
{
closed = 1;
nodes = (
"635.52 93.47 LINE",
"749.2 737 LINE",
"658.28 737 LINE",
"552.06 135.5 LINE",
"487.73 80.58 LINE",
"222.38 80.83 LINE",
"177.38 135.83 LINE",
"283.53 737 LINE",
"192.62 737 LINE",
"82.84 115.35 LINE",
"177.3 0.25 LINE",
"525.73 -0.25 LINE"
);
},
{
closed = 1;
nodes = (
"396.66 794.25 LINE",
"488.62 878.87 LINE",
"494.46 878.87 LINE",
"556.58 794.25 LINE",
"628.09 794.25 LINE",
"544.07 935.41 LINE",
"442.71 935.41 LINE",
"317.82 794.25 LINE"
);
}
);
width = 703;
}
);
note = Ucircumflex;
unicode = 00DB;
},
{
glyphname = uni0214;
lastChange = "2019-09-04 12:41:08 +0000";
layers = (
{
hints = (
{
horizontal = 1;
place = "{0, 80.71}";
type = Stem;
},
{
horizontal = 1;
place = "{794.25, 148.83}";
type = Stem;
},
{
place = "{82.84, 666.36}";
type = Stem;
}
);
layerId = "7AC970EF-486C-4FB8-91F6-C99015BB6A18";
paths = (
{
closed = 1;
nodes = (
"635.52 93.47 LINE",
"749.2 737 LINE",
"658.28 737 LINE",
"552.06 135.5 LINE",
"487.73 80.58 LINE",
"222.38 80.83 LINE",
"177.38 135.83 LINE",
"283.53 737 LINE",
"192.62 737 LINE",
"82.84 115.35 LINE",
"177.3 0.25 LINE",
"525.73 -0.25 LINE"
);
},
{
closed = 1;
nodes = (
"414.83 794.25 LINE",
"345.41 943.08 LINE",
"239.7 943.08 LINE",
"342.92 794.25 LINE"
);
},
{
closed = 1;
nodes = (
"581.04 794.25 LINE",
"511.62 943.08 LINE",
"405.91 943.08 LINE",
"509.13 794.25 LINE"
);
}
);
width = 703;
}
);
note = uni0214;
unicode = 0214;
},
{
glyphname = Udieresis;
lastChange = "2019-09-04 12:41:08 +0000";
layers = (
{
hints = (
{
horizontal = 1;
place = "{0, 80.71}";
type = Stem;
},
{
horizontal = 1;
place = "{794.25, 118.16}";
type = Stem;
},
{
place = "{82.84, 666.36}";
type = Stem;
}
);
layerId = "7AC970EF-486C-4FB8-91F6-C99015BB6A18";
paths = (
{
closed = 1;
nodes = (
"635.52 93.47 LINE",
"749.2 737 LINE",
"658.28 737 LINE",
"552.06 135.5 LINE",
"487.73 80.58 LINE",
"222.38 80.83 LINE",
"177.38 135.83 LINE",
"283.53 737 LINE",
"192.62 737 LINE",
"82.84 115.35 LINE",
"177.3 0.25 LINE",
"525.73 -0.25 LINE"
);
},
{
closed = 1;
nodes = (
"387.25 794.25 LINE",
"408.08 912.41 LINE",
"320.08 912.41 LINE",
"299.25 794.25 LINE"
);
},
{
closed = 1;
nodes = (
"652.66 794.25 LINE",
"673.5 912.41 LINE",
"585.5 912.41 LINE",
"564.66 794.25 LINE"
);
}
);
width = 703;
}
);
note = Udieresis;
unicode = 00DC;
},
{
glyphname = uni1EE4;
lastChange = "2019-09-04 12:41:08 +0000";
layers = (
{
hints = (
{
horizontal = 1;
place = "{-175.29, 118.04}";
type = Stem;
},
{
horizontal = 1;
place = "{0, 80.71}";
type = Stem;
},
{
place = "{82.84, 666.36}";
type = Stem;
}
);
layerId = "7AC970EF-486C-4FB8-91F6-C99015BB6A18";
paths = (
{
closed = 1;
nodes = (
"635.52 93.47 LINE",
"749.2 737 LINE",
"658.28 737 LINE",
"552.06 135.5 LINE",
"487.73 80.58 LINE",
"222.38 80.83 LINE",
"177.38 135.83 LINE",
"283.53 737 LINE",
"192.62 737 LINE",
"82.84 115.35 LINE",
"177.3 0.25 LINE",
"525.73 -0.25 LINE"
);
},
{
closed = 1;
nodes = (
"357.65 -175.29 LINE",
"378.49 -57.25 LINE",
"290.49 -57.25 LINE",
"269.65 -175.29 LINE"
);
}
);
width = 703;
}
);
note = uni1EE4;
unicode = 1EE4;
},
{
glyphname = Ugrave;
lastChange = "2019-09-04 12:41:08 +0000";
layers = (
{
hints = (
{
horizontal = 1;
place = "{0, 80.71}";
type = Stem;
},
{
horizontal = 1;
place = "{794.25, 148.83}";
type = Stem;
},
{
place = "{82.84, 666.36}";
type = Stem;
}
);
layerId = "7AC970EF-486C-4FB8-91F6-C99015BB6A18";
paths = (
{
closed = 1;
nodes = (
"635.52 93.47 LINE",
"749.2 737 LINE",
"658.28 737 LINE",
"552.06 135.5 LINE",
"487.73 80.58 LINE",
"222.38 80.83 LINE",
"177.38 135.83 LINE",
"283.53 737 LINE",
"192.62 737 LINE",
"82.84 115.35 LINE",
"177.3 0.25 LINE",
"525.73 -0.25 LINE"
);
},
{
closed = 1;
nodes = (
"494.82 794.25 LINE",
"425.4 943.08 LINE",
"319.69 943.08 LINE",
"422.9 794.25 LINE"
);
}
);
width = 703;
}
);
note = Ugrave;
unicode = 00D9;
},
{
glyphname = uni1EE6;
lastChange = "2019-09-04 12:41:08 +0000";
layers = (
{
hints = (
{
horizontal = 1;
place = "{0, 80.71}";
type = Stem;
},
{
horizontal = 1;
place = "{946.33, 54.54}";
type = Stem;
},
{
place = "{82.84, 666.36}";
type = Stem;
}
);
layerId = "7AC970EF-486C-4FB8-91F6-C99015BB6A18";
paths = (
{
closed = 1;
nodes = (
"635.52 93.47 LINE",
"749.2 737 LINE",
"658.28 737 LINE",
"552.06 135.5 LINE",
"487.73 80.58 LINE",
"222.38 80.83 LINE",
"177.38 135.83 LINE",
"283.53 737 LINE",
"192.62 737 LINE",
"82.84 115.35 LINE",
"177.3 0.25 LINE",
"525.73 -0.25 LINE"
);
},
{
closed = 1;
nodes = (
"504.79 794.25 LINE",
"509.66 821.58 LINE",
"590.22 879.55 LINE",
"602.46 948.94 LINE",
"560.88 1000.87 LINE",
"458.38 1000.87 LINE",
"407.4 957.14 LINE",
"445.16 911.46 LINE",
"485.87 946.33 LINE",
"524.68 946.33 LINE",
"534.48 934.04 LINE",
"530.08 909.37 LINE",
"454.41 852.58 LINE",
"444.08 794.25 LINE"
);
}
);
width = 703;
}
);
note = uni1EE6;
unicode = 1EE6;
},
{
glyphname = Uhorn;
lastChange = "2019-09-04 12:41:08 +0000";
layers = (
{
hints = (
{
horizontal = 1;
place = "{0, 80.71}";
type = Stem;
},
{
horizontal = 1;
place = "{615.29, 58.42}";
type = Stem;
},
{
place = "{82.84, 866.02}";
type = Stem;
}
);
layerId = "7AC970EF-486C-4FB8-91F6-C99015BB6A18";
paths = (
{
closed = 1;
nodes = (
"635.52 93.47 LINE",
"727.7 615.29 LINE",
"850.99 615.29 LINE",
"948.86 802.08 LINE",
"847.71 802.08 LINE",
"802.62 673.71 LINE",
"738.02 673.71 LINE",
"749.2 737 LINE",
"658.28 737 LINE",
"552.06 135.5 LINE",
"487.73 80.58 LINE",
"222.38 80.83 LINE",
"177.38 135.83 LINE",
"283.53 737 LINE",
"192.62 737 LINE",
"82.84 115.35 LINE",
"177.3 0.25 LINE",
"525.73 -0.25 LINE"
);
}
);
width = 703;
}
);
note = Uhorn;
unicode = 01AF;
},
{
glyphname = uni1EE8;
lastChange = "2019-09-04 12:41:08 +0000";
layers = (
{
hints = (
{
horizontal = 1;
place = "{0, 80.71}";
type = Stem;
},
{
horizontal = 1;
place = "{615.29, 58.42}";
type = Stem;
},
{
horizontal = 1;
place = "{794.25, 148.83}";
type = Stem;
},
{
place = "{82.84, 866.02}";
type = Stem;
}
);
layerId = "7AC970EF-486C-4FB8-91F6-C99015BB6A18";
paths = (
{
closed = 1;
nodes = (
"635.52 93.47 LINE",
"727.7 615.29 LINE",
"850.99 615.29 LINE",
"948.86 802.08 LINE",
"847.71 802.08 LINE",
"802.62 673.71 LINE",
"738.02 673.71 LINE",
"749.2 737 LINE",
"658.28 737 LINE",
"552.06 135.5 LINE",
"487.73 80.58 LINE",
"222.38 80.83 LINE",
"177.38 135.83 LINE",
"283.53 737 LINE",
"192.62 737 LINE",
"82.84 115.35 LINE",
"177.3 0.25 LINE",
"525.73 -0.25 LINE"
);
},
{
closed = 1;
nodes = (
"519.89 794.25 LINE",
"677.05 943.08 LINE",
"558.71 943.08 LINE",
"436.71 794.25 LINE"
);
}
);
width = 703;
}
);
note = uni1EE8;
unicode = 1EE8;
},
{
glyphname = uni1EF0;
lastChange = "2019-09-04 12:41:08 +0000";
layers = (
{
hints = (
{
horizontal = 1;
place = "{-175.29, 118.04}";
type = Stem;
},
{
horizontal = 1;
place = "{0, 80.71}";
type = Stem;
},
{
horizontal = 1;
place = "{615.29, 58.42}";
type = Stem;
},
{
place = "{82.84, 866.02}";
type = Stem;
}
);
layerId = "7AC970EF-486C-4FB8-91F6-C99015BB6A18";
paths = (
{
closed = 1;
nodes = (
"635.52 93.47 LINE",
"727.7 615.29 LINE",
"850.99 615.29 LINE",
"948.86 802.08 LINE",
"847.71 802.08 LINE",
"802.62 673.71 LINE",
"738.02 673.71 LINE",
"749.2 737 LINE",
"658.28 737 LINE",
"552.06 135.5 LINE",
"487.73 80.58 LINE",
"222.38 80.83 LINE",
"177.38 135.83 LINE",
"283.53 737 LINE",
"192.62 737 LINE",
"82.84 115.35 LINE",
"177.3 0.25 LINE",
"525.73 -0.25 LINE"
);
},
{
closed = 1;
nodes = (
"357.65 -175.29 LINE",
"378.49 -57.25 LINE",
"290.49 -57.25 LINE",
"269.65 -175.29 LINE"
);
}
);
width = 703;
}
);
note = uni1EF0;
unicode = 1EF0;
},
{
glyphname = uni1EEA;
lastChange = "2019-09-04 12:41:08 +0000";
layers = (
{
hints = (
{
horizontal = 1;
place = "{0, 80.71}";
type = Stem;
},
{
horizontal = 1;
place = "{615.29, 58.42}";
type = Stem;
},
{
horizontal = 1;
place = "{794.25, 148.83}";
type = Stem;
},
{
place = "{82.84, 866.02}";
type = Stem;
}
);
layerId = "7AC970EF-486C-4FB8-91F6-C99015BB6A18";
paths = (
{
closed = 1;
nodes = (
"635.52 93.47 LINE",
"727.7 615.29 LINE",
"850.99 615.29 LINE",
"948.86 802.08 LINE",
"847.71 802.08 LINE",
"802.62 673.71 LINE",
"738.02 673.71 LINE",
"749.2 737 LINE",
"658.28 737 LINE",
"552.06 135.5 LINE",
"487.73 80.58 LINE",
"222.38 80.83 LINE",
"177.38 135.83 LINE",
"283.53 737 LINE",
"192.62 737 LINE",
"82.84 115.35 LINE",
"177.3 0.25 LINE",
"525.73 -0.25 LINE"
);
},
{
closed = 1;
nodes = (
"494.82 794.25 LINE",
"425.4 943.08 LINE",
"319.69 943.08 LINE",
"422.9 794.25 LINE"
);
}
);
width = 703;
}
);
note = uni1EEA;
unicode = 1EEA;
},
{
glyphname = uni1EEC;
lastChange = "2019-09-04 12:41:08 +0000";
layers = (
{
hints = (
{
horizontal = 1;
place = "{0, 80.71}";
type = Stem;
},
{
horizontal = 1;
place = "{615.29, 58.42}";
type = Stem;
},
{
horizontal = 1;
place = "{946.33, 54.54}";
type = Stem;
},
{
place = "{82.84, 866.02}";
type = Stem;
}
);
layerId = "7AC970EF-486C-4FB8-91F6-C99015BB6A18";
paths = (
{
closed = 1;
nodes = (
"635.52 93.47 LINE",
"727.7 615.29 LINE",
"850.99 615.29 LINE",
"948.86 802.08 LINE",
"847.71 802.08 LINE",
"802.62 673.71 LINE",
"738.02 673.71 LINE",
"749.2 737 LINE",
"658.28 737 LINE",
"552.06 135.5 LINE",
"487.73 80.58 LINE",
"222.38 80.83 LINE",
"177.38 135.83 LINE",
"283.53 737 LINE",
"192.62 737 LINE",
"82.84 115.35 LINE",
"177.3 0.25 LINE",
"525.73 -0.25 LINE"
);
},
{
closed = 1;
nodes = (
"504.79 794.25 LINE",
"509.66 821.58 LINE",
"590.22 879.55 LINE",
"602.46 948.94 LINE",
"560.88 1000.87 LINE",
"458.38 1000.87 LINE",
"407.4 957.14 LINE",
"445.16 911.46 LINE",
"485.87 946.33 LINE",
"524.68 946.33 LINE",
"534.48 934.04 LINE",
"530.08 909.37 LINE",
"454.41 852.58 LINE",
"444.08 794.25 LINE"
);
}
);
width = 703;
}
);
note = uni1EEC;
unicode = 1EEC;
},
{
glyphname = uni1EEE;
lastChange = "2019-09-04 12:41:08 +0000";
layers = (
{
hints = (
{
horizontal = 1;
place = "{0, 80.71}";
type = Stem;
},
{
horizontal = 1;
place = "{615.29, 58.42}";
type = Stem;
},
{
horizontal = 1;
place = "{863.91, 57.55}";
type = Stem;
},
{
place = "{82.84, 866.02}";
type = Stem;
},
{
horizontal = 1;
place = "{794.25, 57.54}";
type = Stem;
}
);
layerId = "7AC970EF-486C-4FB8-91F6-C99015BB6A18";
paths = (
{
closed = 1;
nodes = (
"635.52 93.47 LINE",
"727.7 615.29 LINE",
"850.99 615.29 LINE",
"948.86 802.08 LINE",
"847.71 802.08 LINE",
"802.62 673.71 LINE",
"738.02 673.71 LINE",
"749.2 737 LINE",
"658.28 737 LINE",
"552.06 135.5 LINE",
"487.73 80.58 LINE",
"222.38 80.83 LINE",
"177.38 135.83 LINE",
"283.53 737 LINE",
"192.62 737 LINE",
"82.84 115.35 LINE",
"177.3 0.25 LINE",
"525.73 -0.25 LINE"
);
},
{
closed = 1;
nodes = (
"602.73 794.25 LINE",
"665.55 848.34 LINE",
"679.16 919.21 LINE",
"626.16 919.21 LINE",
"619.62 888.04 LINE",
"576.54 851.79 LINE",
"540.02 851.79 LINE",
"480.47 921.46 LINE",
"379 921.46 LINE",
"316.06 866.92 LINE",
"302.51 796.41 LINE",
"355.58 796.41 LINE",
"362.16 827.54 LINE",
"405.16 863.91 LINE",
"445.83 863.91 LINE",
"505.37 794.25 LINE"
);
}
);
width = 703;
}
);
note = uni1EEE;
unicode = 1EEE;
},
{
glyphname = Uhungarumlaut;
lastChange = "2019-09-04 12:41:08 +0000";
layers = (
{
hints = (
{
horizontal = 1;
place = "{0, 80.71}";
type = Stem;
},
{
horizontal = 1;
place = "{794.25, 148.83}";
type = Stem;
},
{
place = "{82.84, 669.83}";
type = Stem;
}
);
layerId = "7AC970EF-486C-4FB8-91F6-C99015BB6A18";
paths = (
{
closed = 1;
nodes = (
"635.52 93.47 LINE",
"749.2 737 LINE",
"658.28 737 LINE",
"552.06 135.5 LINE",
"487.73 80.58 LINE",
"222.38 80.83 LINE",
"177.38 135.83 LINE",
"283.53 737 LINE",
"192.62 737 LINE",
"82.84 115.35 LINE",
"177.3 0.25 LINE",
"525.73 -0.25 LINE"
);
},
{
closed = 1;
nodes = (
"429.76 794.25 LINE",
"586.92 943.08 LINE",
"468.58 943.08 LINE",
"346.58 794.25 LINE"
);
},
{
closed = 1;
nodes = (
"595.51 794.25 LINE",
"752.67 943.08 LINE",
"634.33 943.08 LINE",
"512.33 794.25 LINE"
);
}
);
width = 703;
}
);
note = Uhungarumlaut;
unicode = 0170;
},
{
glyphname = uni0216;
lastChange = "2019-09-04 12:41:08 +0000";
layers = (
{
hints = (
{
horizontal = 1;
place = "{0, 80.71}";
type = Stem;
},
{
horizontal = 1;
place = "{869.37, 59.04}";
type = Stem;
},
{
place = "{82.84, 666.36}";
type = Stem;
}
);
layerId = "7AC970EF-486C-4FB8-91F6-C99015BB6A18";
paths = (
{
closed = 1;
nodes = (
"635.52 93.47 LINE",
"749.2 737 LINE",
"658.28 737 LINE",
"552.06 135.5 LINE",
"487.73 80.58 LINE",
"222.38 80.83 LINE",
"177.38 135.83 LINE",
"283.53 737 LINE",
"192.62 737 LINE",
"82.84 115.35 LINE",
"177.3 0.25 LINE",
"525.73 -0.25 LINE"
);
},
{
closed = 1;
nodes = (
"398.62 794.25 LINE",
"407.37 843.75 LINE",
"437.54 869.37 LINE",
"540.96 869.37 LINE",
"562.04 843.75 LINE",
"553.29 794.25 LINE",
"613.87 794.25 LINE",
"625.26 858.52 LINE",
"568.04 928.41 LINE",
"417.07 928.41 LINE",
"352.02 873.31 LINE",
"338.04 794.25 LINE"
);
}
);
width = 703;
}
);
note = uni0216;
unicode = 0216;
},
{
glyphname = Umacron;
lastChange = "2019-09-04 12:41:08 +0000";
layers = (
{
hints = (
{
horizontal = 1;
place = "{0, 80.71}";
type = Stem;
},
{
horizontal = 1;
place = "{794.25, 67.04}";
type = Stem;
},
{
place = "{82.84, 666.36}";
type = Stem;
}
);
layerId = "7AC970EF-486C-4FB8-91F6-C99015BB6A18";
paths = (
{
closed = 1;
nodes = (
"635.52 93.47 LINE",
"749.2 737 LINE",
"658.28 737 LINE",
"552.06 135.5 LINE",
"487.73 80.58 LINE",
"222.38 80.83 LINE",
"177.38 135.83 LINE",
"283.53 737 LINE",
"192.62 737 LINE",
"82.84 115.35 LINE",
"177.3 0.25 LINE",
"525.73 -0.25 LINE"
);
},
{
closed = 1;
nodes = (
"654 794.25 LINE",
"665.91 861.29 LINE",
"312.5 861.29 LINE",
"300.58 794.25 LINE"
);
}
);
width = 703;
}
);
note = Umacron;
unicode = 016A;
},
{
glyphname = Uogonek;
lastChange = "2019-09-04 12:41:08 +0000";
layers = (
{
hints = (
{
horizontal = 1;
place = "{-160.63, 61.59}";
type = Stem;
},
{
horizontal = 1;
place = "{0.13, 80.58}";
type = Stem;
},
{
place = "{82.84, 666.36}";
type = Stem;
}
);
layerId = "7AC970EF-486C-4FB8-91F6-C99015BB6A18";
paths = (
{
closed = 1;
nodes = (
"377.12 -160.63 LINE",
"388 -99.04 LINE",
"359.41 -99.04 LINE",
"339.08 -74.42 LINE",
"345.25 -39.88 LINE",
"405.34 -0.08 LINE",
"525.73 -0.25 LINE",
"635.52 93.47 LINE",
"749.2 737 LINE",
"658.28 737 LINE",
"552.06 135.5 LINE",
"487.73 80.58 LINE",
"222.38 80.83 LINE",
"177.38 135.83 LINE",
"283.53 737 LINE",
"192.62 737 LINE",
"82.84 115.35 LINE",
"177.3 0.25 LINE",
"332.56 0 LINE",
"289.2 -28.76 LINE",
"277.56 -95.05 LINE",
"331.41 -160.63 LINE"
);
}
);
width = 703;
}
);
note = Uogonek;
unicode = 0172;
},
{
glyphname = Uring;
lastChange = "2019-09-04 12:41:08 +0000";
layers = (
{
hints = (
{
horizontal = 1;
place = "{0, 80.71}";
type = Stem;
},
{
horizontal = 1;
place = "{794.25, 50.21}";
type = Stem;
},
{
horizontal = 1;
place = "{940.5, 50.21}";
type = Stem;
},
{
place = "{82.84, 666.36}";
type = Stem;
}
);
layerId = "7AC970EF-486C-4FB8-91F6-C99015BB6A18";
paths = (
{
closed = 1;
nodes = (
"635.52 93.47 LINE",
"749.2 737 LINE",
"658.28 737 LINE",
"552.06 135.5 LINE",
"487.73 80.58 LINE",
"222.38 80.83 LINE",
"177.38 135.83 LINE",
"283.53 737 LINE",
"192.62 737 LINE",
"82.84 115.35 LINE",
"177.3 0.25 LINE",
"525.73 -0.25 LINE"
);
},
{
closed = 1;
nodes = (
"524.69 794.25 LINE",
"588.15 848.25 LINE",
"601.33 922.83 LINE",
"545.46 990.71 LINE",
"448.35 990.71 LINE",
"385.21 936.75 LINE",
"372.01 862.1 LINE",
"428.02 794.25 LINE"
);
},
{
closed = 1;
nodes = (
"435.25 873.75 LINE",
"441.83 911.16 LINE",
"476.5 940.5 LINE",
"513.83 940.5 LINE",
"538 911.16 LINE",
"531.41 873.75 LINE",
"496.87 844.46 LINE",
"459.54 844.46 LINE"
);
}
);
width = 703;
}
);
note = Uring;
unicode = 016E;
},
{
glyphname = Utilde;
lastChange = "2019-09-04 12:41:08 +0000";
layers = (
{
hints = (
{
horizontal = 1;
place = "{0, 80.71}";
type = Stem;
},
{
horizontal = 1;
place = "{863.91, 57.55}";
type = Stem;
},
{
place = "{82.84, 666.36}";
type = Stem;
},
{
horizontal = 1;
place = "{794.25, 57.54}";
type = Stem;
}
);
layerId = "7AC970EF-486C-4FB8-91F6-C99015BB6A18";
paths = (
{
closed = 1;
nodes = (
"635.52 93.47 LINE",
"749.2 737 LINE",
"658.28 737 LINE",
"552.06 135.5 LINE",
"487.73 80.58 LINE",
"222.38 80.83 LINE",
"177.38 135.83 LINE",
"283.53 737 LINE",
"192.62 737 LINE",
"82.84 115.35 LINE",
"177.3 0.25 LINE",
"525.73 -0.25 LINE"
);
},
{
closed = 1;
nodes = (
"602.73 794.25 LINE",
"665.55 848.34 LINE",
"679.16 919.21 LINE",
"626.16 919.21 LINE",
"619.62 888.04 LINE",
"576.54 851.79 LINE",
"540.02 851.79 LINE",
"480.47 921.46 LINE",
"379 921.46 LINE",
"316.06 866.92 LINE",
"302.51 796.41 LINE",
"355.58 796.41 LINE",
"362.16 827.54 LINE",
"405.16 863.91 LINE",
"445.83 863.91 LINE",
"505.37 794.25 LINE"
);
}
);
width = 703;
}
);
note = Utilde;
unicode = 0168;
},
{
glyphname = V;
lastChange = "2019-09-11 16:00:35 +0000";
layers = (
{
hints = (
{
horizontal = 1;
place = "{0, 86.5}";
type = Stem;
},
{
place = "{140.67, 642.58}";
type = Stem;
}
);
layerId = "7AC970EF-486C-4FB8-91F6-C99015BB6A18";
paths = (
{
closed = 1;
nodes = (
"404.93 0 LINE",
"783.25 737 LINE",
"680.55 737 LINE",
"356.55 86.5 LINE",
"333.8 86.5 LINE",
"232.64 737 LINE",
"140.67 737 LINE",
"262.62 0 LINE"
);
}
);
width = 666;
}
);
leftKerningGroup = V;
note = V;
rightKerningGroup = V;
unicode = 0056;
},
{
glyphname = W;
lastChange = "2019-09-11 16:00:21 +0000";
layers = (
{
hints = (
{
horizontal = 1;
place = "{0, 86.5}";
type = Stem;
},
{
place = "{555.15, 74.34}";
type = Stem;
}
);
layerId = "7AC970EF-486C-4FB8-91F6-C99015BB6A18";
paths = (
{
closed = 1;
nodes = (
"333.09 0 LINE",
"544.32 530.65 LINE",
"565.99 0 LINE",
"712.21 0 LINE",
"1023.33 737 LINE",
"922.54 737 LINE",
"663.33 86.5 LINE",
"640.58 86.5 LINE",
"618.4 737 LINE",
"535.66 737 LINE",
"284.25 86.5 LINE",
"261.5 86.5 LINE",
"231.71 737 LINE",
"138.33 737 LINE",
"189.35 0 LINE"
);
}
);
width = 909;
}
);
leftKerningGroup = W;
note = W;
rightKerningGroup = W;
unicode = 0057;
},
{
glyphname = Wacute;
lastChange = "2019-09-04 12:41:08 +0000";
layers = (
{
hints = (
{
horizontal = 1;
place = "{0, 86.5}";
type = Stem;
},
{
horizontal = 1;
place = "{794.25, 148.83}";
type = Stem;
},
{
place = "{555.15, 74.34}";
type = Stem;
}
);
layerId = "7AC970EF-486C-4FB8-91F6-C99015BB6A18";
paths = (
{
closed = 1;
nodes = (
"333.09 0 LINE",
"544.32 530.65 LINE",
"565.99 0 LINE",
"712.21 0 LINE",
"1023.33 737 LINE",
"922.54 737 LINE",
"663.33 86.5 LINE",
"640.58 86.5 LINE",
"618.4 737 LINE",
"535.66 737 LINE",
"284.25 86.5 LINE",
"261.5 86.5 LINE",
"231.71 737 LINE",
"138.33 737 LINE",
"189.35 0 LINE"
);
},
{
closed = 1;
nodes = (
"629.72 794.25 LINE",
"786.88 943.08 LINE",
"668.54 943.08 LINE",
"546.54 794.25 LINE"
);
}
);
width = 909;
}
);
leftKerningGroup = W;
note = Wacute;
rightKerningGroup = W;
unicode = 1E82;
},
{
glyphname = Wcircumflex;
lastChange = "2019-09-04 12:41:08 +0000";
layers = (
{
hints = (
{
horizontal = 1;
place = "{0, 86.5}";
type = Stem;
},
{
horizontal = 1;
place = "{794.25, 141.16}";
type = Stem;
},
{
place = "{555.15, 74.34}";
type = Stem;
}
);
layerId = "7AC970EF-486C-4FB8-91F6-C99015BB6A18";
paths = (
{
closed = 1;
nodes = (
"333.09 0 LINE",
"544.32 530.65 LINE",
"565.99 0 LINE",
"712.21 0 LINE",
"1023.33 737 LINE",
"922.54 737 LINE",
"663.33 86.5 LINE",
"640.58 86.5 LINE",
"618.4 737 LINE",
"535.66 737 LINE",
"284.25 86.5 LINE",
"261.5 86.5 LINE",
"231.71 737 LINE",
"138.33 737 LINE",
"189.35 0 LINE"
);
},
{
closed = 1;
nodes = (
"506.5 794.25 LINE",
"598.46 878.87 LINE",
"604.29 878.87 LINE",
"666.41 794.25 LINE",
"737.93 794.25 LINE",
"653.9 935.41 LINE",
"552.54 935.41 LINE",
"427.66 794.25 LINE"
);
}
);
width = 909;
}
);
leftKerningGroup = W;
note = Wcircumflex;
rightKerningGroup = W;
unicode = 0174;
},
{
glyphname = Wdieresis;
lastChange = "2019-09-04 12:41:08 +0000";
layers = (
{
hints = (
{
horizontal = 1;
place = "{0, 86.5}";
type = Stem;
},
{
horizontal = 1;
place = "{794.25, 118.16}";
type = Stem;
},
{
place = "{555.15, 74.34}";
type = Stem;
}
);
layerId = "7AC970EF-486C-4FB8-91F6-C99015BB6A18";
paths = (
{
closed = 1;
nodes = (
"333.09 0 LINE",
"544.32 530.65 LINE",
"565.99 0 LINE",
"712.21 0 LINE",
"1023.33 737 LINE",
"922.54 737 LINE",
"663.33 86.5 LINE",
"640.58 86.5 LINE",
"618.4 737 LINE",
"535.66 737 LINE",
"284.25 86.5 LINE",
"261.5 86.5 LINE",
"231.71 737 LINE",
"138.33 737 LINE",
"189.35 0 LINE"
);
},
{
closed = 1;
nodes = (
"497.08 794.25 LINE",
"517.91 912.41 LINE",
"429.91 912.41 LINE",
"409.08 794.25 LINE"
);
},
{
closed = 1;
nodes = (
"762.5 794.25 LINE",
"783.33 912.41 LINE",
"695.33 912.41 LINE",
"674.5 794.25 LINE"
);
}
);
width = 909;
}
);
leftKerningGroup = W;
note = Wdieresis;
rightKerningGroup = W;
unicode = 1E84;
},
{
glyphname = Wgrave;
lastChange = "2019-09-04 12:41:08 +0000";
layers = (
{
hints = (
{
horizontal = 1;
place = "{0, 86.5}";
type = Stem;
},
{
horizontal = 1;
place = "{794.25, 148.83}";
type = Stem;
},
{
place = "{555.15, 74.34}";
type = Stem;
}
);
layerId = "7AC970EF-486C-4FB8-91F6-C99015BB6A18";
paths = (
{
closed = 1;
nodes = (
"333.09 0 LINE",
"544.32 530.65 LINE",
"565.99 0 LINE",
"712.21 0 LINE",
"1023.33 737 LINE",
"922.54 737 LINE",
"663.33 86.5 LINE",
"640.58 86.5 LINE",
"618.4 737 LINE",
"535.66 737 LINE",
"284.25 86.5 LINE",
"261.5 86.5 LINE",
"231.71 737 LINE",
"138.33 737 LINE",
"189.35 0 LINE"
);
},
{
closed = 1;
nodes = (
"604.65 794.25 LINE",
"535.23 943.08 LINE",
"429.52 943.08 LINE",
"532.74 794.25 LINE"
);
}
);
width = 909;
}
);
leftKerningGroup = W;
note = Wgrave;
rightKerningGroup = W;
unicode = 1E80;
},
{
glyphname = X;
lastChange = "2019-09-04 12:41:08 +0000";
layers = (
{
hints = (
{
horizontal = 1;
place = "{0, 737}";
type = Stem;
},
{
place = "{3.08, 753.31}";
type = Stem;
},
{
horizontal = 1;
place = "{323.75, 103.41}";
type = Stem;
}
);
layerId = "7AC970EF-486C-4FB8-91F6-C99015BB6A18";
paths = (
{
closed = 1;
nodes = (
"116.83 0 LINE",
"360.91 323.75 LINE",
"384.33 323.75 LINE",
"514.25 0 LINE",
"611.11 0 LINE",
"461.46 364.46 LINE",
"756.39 737 LINE",
"643.29 737 LINE",
"402.29 427.16 LINE",
"379.04 427.16 LINE",
"247.5 737 LINE",
"151.41 737 LINE",
"302.34 390.24 LINE",
"3.08 0 LINE"
);
}
);
width = 632;
}
);
leftKerningGroup = X;
note = X;
rightKerningGroup = X;
unicode = 0058;
},
{
glyphname = Y;
lastChange = "2019-09-04 12:41:08 +0000";
layers = (
{
hints = (
{
horizontal = 1;
place = "{0, 737}";
type = Stem;
},
{
place = "{147.14, 606.82}";
type = Stem;
}
);
layerId = "7AC970EF-486C-4FB8-91F6-C99015BB6A18";
paths = (
{
closed = 1;
nodes = (
"362.37 0 LINE",
"412.37 287.53 LINE",
"753.96 737 LINE",
"641 737 LINE",
"396.79 400.79 LINE",
"376.96 400.79 LINE",
"243.37 737 LINE",
"147.14 737 LINE",
"324.63 308.3 LINE",
"270.04 0 LINE"
);
}
);
width = 633;
}
);
leftKerningGroup = Y;
note = Y;
rightKerningGroup = Y;
unicode = 0059;
},
{
glyphname = Yacute;
lastChange = "2019-09-04 12:41:08 +0000";
layers = (
{
hints = (
{
horizontal = 1;
place = "{794.08, 148.83}";
type = Stem;
},
{
place = "{147.14, 606.82}";
type = Stem;
}
);
layerId = "7AC970EF-486C-4FB8-91F6-C99015BB6A18";
paths = (
{
closed = 1;
nodes = (
"362.37 0 LINE",
"412.37 287.53 LINE",
"753.96 737 LINE",
"641 737 LINE",
"396.79 400.79 LINE",
"376.96 400.79 LINE",
"243.37 737 LINE",
"147.14 737 LINE",
"324.63 308.3 LINE",
"270.04 0 LINE"
);
},
{
closed = 1;
nodes = (
"498.89 794.08 LINE",
"656.05 942.91 LINE",
"537.71 942.91 LINE",
"415.71 794.08 LINE"
);
}
);
width = 633;
}
);
leftKerningGroup = Y;
note = Yacute;
rightKerningGroup = Y;
unicode = 00DD;
},
{
glyphname = Ycircumflex;
lastChange = "2019-09-04 12:41:08 +0000";
layers = (
{
hints = (
{
horizontal = 1;
place = "{794.08, 141.17}";
type = Stem;
},
{
place = "{147.14, 606.82}";
type = Stem;
}
);
layerId = "7AC970EF-486C-4FB8-91F6-C99015BB6A18";
paths = (
{
closed = 1;
nodes = (
"362.37 0 LINE",
"412.37 287.53 LINE",
"753.96 737 LINE",
"641 737 LINE",
"396.79 400.79 LINE",
"376.96 400.79 LINE",
"243.37 737 LINE",
"147.14 737 LINE",
"324.63 308.3 LINE",
"270.04 0 LINE"
);
},
{
closed = 1;
nodes = (
"375.66 794.08 LINE",
"467.62 878.71 LINE",
"473.46 878.71 LINE",
"535.58 794.08 LINE",
"607.09 794.08 LINE",
"523.07 935.25 LINE",
"421.71 935.25 LINE",
"296.82 794.08 LINE"
);
}
);
width = 633;
}
);
leftKerningGroup = Y;
note = Ycircumflex;
rightKerningGroup = Y;
unicode = 0176;
},
{
glyphname = Ydieresis;
lastChange = "2019-09-04 12:41:08 +0000";
layers = (
{
hints = (
{
horizontal = 1;
place = "{794.08, 118.17}";
type = Stem;
},
{
place = "{147.14, 606.82}";
type = Stem;
}
);
layerId = "7AC970EF-486C-4FB8-91F6-C99015BB6A18";
paths = (
{
closed = 1;
nodes = (
"362.37 0 LINE",
"412.37 287.53 LINE",
"753.96 737 LINE",
"641 737 LINE",
"396.79 400.79 LINE",
"376.96 400.79 LINE",
"243.37 737 LINE",
"147.14 737 LINE",
"324.63 308.3 LINE",
"270.04 0 LINE"
);
},
{
closed = 1;
nodes = (
"366.25 794.08 LINE",
"387.08 912.25 LINE",
"299.08 912.25 LINE",
"278.25 794.08 LINE"
);
},
{
closed = 1;
nodes = (
"631.66 794.08 LINE",
"652.5 912.25 LINE",
"564.5 912.25 LINE",
"543.66 794.08 LINE"
);
}
);
width = 633;
}
);
leftKerningGroup = Y;
note = Ydieresis;
rightKerningGroup = Y;
unicode = 0178;
},
{
glyphname = uni1EF4;
lastChange = "2019-09-04 12:41:08 +0000";
layers = (
{
hints = (
{
horizontal = 1;
place = "{-175.29, 118.04}";
type = Stem;
},
{
place = "{147.14, 606.82}";
type = Stem;
}
);
layerId = "7AC970EF-486C-4FB8-91F6-C99015BB6A18";
paths = (
{
closed = 1;
nodes = (
"362.37 0 LINE",
"412.37 287.53 LINE",
"753.96 737 LINE",
"641 737 LINE",
"396.79 400.79 LINE",
"376.96 400.79 LINE",
"243.37 737 LINE",
"147.14 737 LINE",
"324.63 308.3 LINE",
"270.04 0 LINE"
);
},
{
closed = 1;
nodes = (
"329.61 -175.29 LINE",
"350.44 -57.25 LINE",
"262.44 -57.25 LINE",
"241.61 -175.29 LINE"
);
}
);
width = 633;
}
);
leftKerningGroup = Y;
note = uni1EF4;
rightKerningGroup = Y;
unicode = 1EF4;
},
{
glyphname = Ygrave;
lastChange = "2019-09-04 12:41:08 +0000";
layers = (
{
hints = (
{
horizontal = 1;
place = "{794.08, 148.83}";
type = Stem;
},
{
place = "{147.14, 606.82}";
type = Stem;
}
);
layerId = "7AC970EF-486C-4FB8-91F6-C99015BB6A18";
paths = (
{
closed = 1;
nodes = (
"362.37 0 LINE",
"412.37 287.53 LINE",
"753.96 737 LINE",
"641 737 LINE",
"396.79 400.79 LINE",
"376.96 400.79 LINE",
"243.37 737 LINE",
"147.14 737 LINE",
"324.63 308.3 LINE",
"270.04 0 LINE"
);
},
{
closed = 1;
nodes = (
"473.82 794.08 LINE",
"404.4 942.91 LINE",
"298.69 942.91 LINE",
"401.9 794.08 LINE"
);
}
);
width = 633;
}
);
leftKerningGroup = Y;
note = Ygrave;
rightKerningGroup = Y;
unicode = 1EF2;
},
{
glyphname = uni1EF6;
lastChange = "2019-09-04 12:41:08 +0000";
layers = (
{
hints = (
{
horizontal = 1;
place = "{946.16, 54.55}";
type = Stem;
},
{
place = "{147.14, 606.82}";
type = Stem;
}
);
layerId = "7AC970EF-486C-4FB8-91F6-C99015BB6A18";
paths = (
{
closed = 1;
nodes = (
"362.37 0 LINE",
"412.37 287.53 LINE",
"753.96 737 LINE",
"641 737 LINE",
"396.79 400.79 LINE",
"376.96 400.79 LINE",
"243.37 737 LINE",
"147.14 737 LINE",
"324.63 308.3 LINE",
"270.04 0 LINE"
);
},
{
closed = 1;
nodes = (
"483.79 794.08 LINE",
"488.66 821.42 LINE",
"569.22 879.38 LINE",
"581.46 948.77 LINE",
"539.88 1000.71 LINE",
"437.38 1000.71 LINE",
"386.4 956.98 LINE",
"424.16 911.29 LINE",
"464.87 946.16 LINE",
"503.68 946.16 LINE",
"513.48 933.87 LINE",
"509.08 909.21 LINE",
"433.41 852.41 LINE",
"423.08 794.08 LINE"
);
}
);
width = 633;
}
);
leftKerningGroup = Y;
note = uni1EF6;
rightKerningGroup = Y;
unicode = 1EF6;
},
{
glyphname = uni0232;
lastChange = "2019-09-04 12:41:08 +0000";
layers = (
{
hints = (
{
horizontal = 1;
place = "{794.08, 67.04}";
type = Stem;
},
{
place = "{147.14, 606.82}";
type = Stem;
}
);
layerId = "7AC970EF-486C-4FB8-91F6-C99015BB6A18";
paths = (
{
closed = 1;
nodes = (
"362.37 0 LINE",
"412.37 287.53 LINE",
"753.96 737 LINE",
"641 737 LINE",
"396.79 400.79 LINE",
"376.96 400.79 LINE",
"243.37 737 LINE",
"147.14 737 LINE",
"324.63 308.3 LINE",
"270.04 0 LINE"
);
},
{
closed = 1;
nodes = (
"633 794.08 LINE",
"644.91 861.12 LINE",
"291.5 861.12 LINE",
"279.58 794.08 LINE"
);
}
);
width = 633;
}
);
leftKerningGroup = Y;
note = uni0232;
rightKerningGroup = Y;
unicode = 0232;
},
{
glyphname = uni1EF8;
lastChange = "2019-09-04 12:41:08 +0000";
layers = (
{
hints = (
{
horizontal = 1;
place = "{863.75, 57.54}";
type = Stem;
},
{
place = "{147.14, 606.82}";
type = Stem;
},
{
horizontal = 1;
place = "{794.08, 57.54}";
type = Stem;
}
);
layerId = "7AC970EF-486C-4FB8-91F6-C99015BB6A18";
paths = (
{
closed = 1;
nodes = (
"362.37 0 LINE",
"412.37 287.53 LINE",
"753.96 737 LINE",
"641 737 LINE",
"396.79 400.79 LINE",
"376.96 400.79 LINE",
"243.37 737 LINE",
"147.14 737 LINE",
"324.63 308.3 LINE",
"270.04 0 LINE"
);
},
{
closed = 1;
nodes = (
"581.73 794.08 LINE",
"644.55 848.17 LINE",
"658.16 919.04 LINE",
"605.16 919.04 LINE",
"598.62 887.87 LINE",
"555.54 851.62 LINE",
"519.02 851.62 LINE",
"459.47 921.29 LINE",
"358 921.29 LINE",
"295.06 866.75 LINE",
"281.51 796.25 LINE",
"334.58 796.25 LINE",
"341.16 827.37 LINE",
"384.16 863.75 LINE",
"424.83 863.75 LINE",
"484.37 794.08 LINE"
);
}
);
width = 633;
}
);
leftKerningGroup = Y;
note = uni1EF8;
rightKerningGroup = Y;
unicode = 1EF8;
},
{
glyphname = Z;
lastChange = "2019-09-04 12:41:08 +0000";
layers = (
{
hints = (
{
horizontal = 1;
place = "{0, 83.58}";
type = Stem;
},
{
horizontal = 1;
place = "{653.41, 83.59}";
type = Stem;
},
{
place = "{71.66, 644.88}";
type = Stem;
}
);
layerId = "7AC970EF-486C-4FB8-91F6-C99015BB6A18";
paths = (
{
closed = 1;
nodes = (
"591.33 0 LINE",
"606.04 83.58 LINE",
"205.21 83.58 LINE",
"209.29 106.33 LINE",
"700.01 644.26 LINE",
"716.54 737 LINE",
"222.58 737 LINE",
"207.79 653.41 LINE",
"575.08 653.41 LINE",
"571.08 630.66 LINE",
"89.83 104.09 LINE",
"71.66 0 LINE"
);
}
);
width = 663;
}
);
leftKerningGroup = Z;
note = Z;
rightKerningGroup = Z;
unicode = 005A;
},
{
glyphname = Zacute;
lastChange = "2019-09-04 12:41:08 +0000";
layers = (
{
hints = (
{
horizontal = 1;
place = "{0, 83.58}";
type = Stem;
},
{
horizontal = 1;
place = "{653.41, 83.59}";
type = Stem;
},
{
horizontal = 1;
place = "{794.25, 148.83}";
type = Stem;
},
{
place = "{71.66, 644.88}";
type = Stem;
}
);
layerId = "7AC970EF-486C-4FB8-91F6-C99015BB6A18";
paths = (
{
closed = 1;
nodes = (
"591.33 0 LINE",
"606.04 83.58 LINE",
"205.21 83.58 LINE",
"209.29 106.33 LINE",
"700.01 644.26 LINE",
"716.54 737 LINE",
"222.58 737 LINE",
"207.79 653.41 LINE",
"575.08 653.41 LINE",
"571.08 630.66 LINE",
"89.83 104.09 LINE",
"71.66 0 LINE"
);
},
{
closed = 1;
nodes = (
"528.6 794.25 LINE",
"685.76 943.08 LINE",
"567.41 943.08 LINE",
"445.41 794.25 LINE"
);
}
);
width = 663;
}
);
leftKerningGroup = Z;
note = Zacute;
rightKerningGroup = Z;
unicode = 0179;
},
{
glyphname = Zcaron;
lastChange = "2019-09-04 12:41:08 +0000";
layers = (
{
hints = (
{
horizontal = 1;
place = "{0, 83.58}";
type = Stem;
},
{
horizontal = 1;
place = "{653.41, 83.59}";
type = Stem;
},
{
horizontal = 1;
place = "{794.25, 141.16}";
type = Stem;
},
{
place = "{71.66, 644.88}";
type = Stem;
}
);
layerId = "7AC970EF-486C-4FB8-91F6-C99015BB6A18";
paths = (
{
closed = 1;
nodes = (
"591.33 0 LINE",
"606.04 83.58 LINE",
"205.21 83.58 LINE",
"209.29 106.33 LINE",
"700.01 644.26 LINE",
"716.54 737 LINE",
"222.58 737 LINE",
"207.79 653.41 LINE",
"575.08 653.41 LINE",
"571.08 630.66 LINE",
"89.83 104.09 LINE",
"71.66 0 LINE"
);
},
{
closed = 1;
nodes = (
"533.07 794.25 LINE",
"657.96 935.41 LINE",
"579.12 935.41 LINE",
"487.16 850.79 LINE",
"481.32 850.79 LINE",
"419.2 935.41 LINE",
"347.69 935.41 LINE",
"431.71 794.25 LINE"
);
}
);
width = 663;
}
);
leftKerningGroup = Z;
note = Zcaron;
rightKerningGroup = Z;
unicode = 017D;
},
{
glyphname = Zdotaccent;
lastChange = "2019-09-04 12:41:08 +0000";
layers = (
{
hints = (
{
horizontal = 1;
place = "{0, 83.58}";
type = Stem;
},
{
horizontal = 1;
place = "{653.41, 83.59}";
type = Stem;
},
{
horizontal = 1;
place = "{794.25, 118.04}";
type = Stem;
},
{
place = "{71.66, 644.88}";
type = Stem;
}
);
layerId = "7AC970EF-486C-4FB8-91F6-C99015BB6A18";
paths = (
{
closed = 1;
nodes = (
"591.33 0 LINE",
"606.04 83.58 LINE",
"205.21 83.58 LINE",
"209.29 106.33 LINE",
"700.01 644.26 LINE",
"716.54 737 LINE",
"222.58 737 LINE",
"207.79 653.41 LINE",
"575.08 653.41 LINE",
"571.08 630.66 LINE",
"89.83 104.09 LINE",
"71.66 0 LINE"
);
},
{
closed = 1;
nodes = (
"530 794.25 LINE",
"550.83 912.29 LINE",
"462.83 912.29 LINE",
"442 794.25 LINE"
);
}
);
width = 663;
}
);
leftKerningGroup = Z;
note = Zdotaccent;
rightKerningGroup = Z;
unicode = 017B;
},
{
glyphname = a;
lastChange = "2019-09-04 12:41:08 +0000";
layers = (
{
hints = (
{
horizontal = 1;
place = "{0, 69.58}";
type = Stem;
},
{
horizontal = 1;
place = "{259.49, 69.76}";
type = Stem;
},
{
horizontal = 1;
place = "{449.25, 73.25}";
type = Stem;
},
{
place = "{73.5, 511.11}";
type = Stem;
}
);
layerId = "7AC970EF-486C-4FB8-91F6-C99015BB6A18";
paths = (
{
closed = 1;
nodes = (
"344.5 0 LINE",
"439.4 80.46 LINE",
"425.25 0 LINE",
"513.25 0 LINE",
"584.61 404.88 LINE",
"488.08 522.5 LINE",
"214.91 522.5 LINE",
"201.96 449.16 LINE",
"449.87 449.33 LINE",
"494.55 394.16 LINE",
"483.14 329.25 LINE",
"207.51 329.25 LINE",
"96.03 234.16 LINE",
"73.5 104.87 LINE",
"160.41 0 LINE"
);
},
{
closed = 1;
nodes = (
"165.08 124.66 LINE",
"178.79 204.58 LINE",
"243.37 259.41 LINE",
"470.89 259.56 LINE",
"455.55 172.32 LINE",
"334.58 69.66 LINE",
"209.83 69.5 LINE"
);
}
);
width = 590;
}
);
leftKerningGroup = a;
note = a;
rightKerningGroup = a;
unicode = 0061;
},
